<svg version="1.1" viewBox="0.0 0.0 600.0 371.0" fill="none" stroke="none" stroke-linecap="square" stroke-miterlimit="10" width="600" height="371" xmlns:xlink="http://www.w3.org/1999/xlink" xmlns="http://www.w3.org/2000/svg"><path fill="#ffffff" d="M0 0L600.0 0L600.0 371.0L0 371.0L0 0Z" fill-rule="nonzero"/><path stroke="#cccccc" stroke-width="1.0" stroke-linecap="butt" d="M47.5 89.5L47.5 298.5" fill-rule="nonzero"/><path stroke="#cccccc" stroke-width="1.0" stroke-linecap="butt" d="M225.5 89.5L225.5 298.5" fill-rule="nonzero"/><path stroke="#cccccc" stroke-width="1.0" stroke-linecap="butt" d="M403.5 89.5L403.5 298.5" fill-rule="nonzero"/><path stroke="#cccccc" stroke-width="1.0" stroke-linecap="butt" d="M581.5 89.5L581.5 298.5" fill-rule="nonzero"/><path stroke="#333333" stroke-width="1.0" stroke-linecap="butt" d="M47.5 298.5L581.5 298.5" fill-rule="nonzero"/><path stroke="#cccccc" stroke-width="1.0" stroke-linecap="butt" d="M47.5 228.5L581.5 228.5" fill-rule="nonzero"/><path stroke="#cccccc" stroke-width="1.0" stroke-linecap="butt" d="M47.5 159.5L581.5 159.5" fill-rule="nonzero"/><path stroke="#cccccc" stroke-width="1.0" stroke-linecap="butt" d="M47.5 89.5L581.5 89.5" fill-rule="nonzero"/><clipPath id="id_0"><path d="M47.55 89.78333L581.45 89.78333L581.45 298.45L47.55 298.45L47.55 89.78333Z" clip-rule="nonzero"/></clipPath><path stroke="#4285f4" stroke-width="2.0" stroke-linecap="butt" clip-path="url(#id_0)" d="M47.55 171.20993L83.14333 155.25911L118.736664 154.70927L154.33 163.53691L189.92334 166.8881L225.51666 164.45888L261.11 167.33638L296.70334 162.5767L332.29666 169.42723L367.89 166.6697L403.48334 154.73466L439.07666 148.62003L474.67 142.84344L510.26334 115.074776L545.8567 114.7343L581.45 116.16297" fill-rule="nonzero"/><path stroke="#db4437" stroke-width="2.0" stroke-linecap="butt" clip-path="url(#id_0)" d="M47.55 156.5685L83.14333 142.55235L118.736664 147.62782L154.33 147.13155L189.92334 147.60034L225.51666 147.96794L261.11 148.32373L296.70334 148.82L332.29666 149.36775L367.89 150.69939L403.48334 152.13467L439.07666 154.67067L474.67 137.6372L510.26334 122.09745L545.8567 116.81715L581.45 115.74494" fill-rule="nonzero"/><path stroke="#f4b400" stroke-width="2.0" stroke-linecap="butt" clip-path="url(#id_0)" d="M47.55 252.48073L83.14333 252.74088L118.736664 253.10081L154.33 253.24132L189.92334 253.25906L225.51666 253.49347L261.11 253.53554L296.70334 253.25107L332.29666 253.2288L367.89 253.03996L403.48334 253.12343L439.07666 254.05304L474.67 255.93103L510.26334 256.25934L545.8567 256.40472L581.45 256.57825" fill-rule="nonzero"/><path stroke="#0f9d58" stroke-width="2.0" stroke-linecap="butt" clip-path="url(#id_0)" d="M47.55 262.5635L83.14333 263.21176L118.736664 263.08344L154.33 262.96658L189.92334 262.5628L225.51666 262.0867L261.11 253.62875L296.70334 259.0134L332.29666 262.93945L367.89 261.81473L403.48334 262.36597L439.07666 260.47025L474.67 261.74033L510.26334 261.2496L545.8567 260.58118L581.45 260.9731" fill-rule="nonzero"/><path fill="#000000" fill-opacity="0.0" clip-path="url(#id_0)" d="M50.55 171.20993C50.55 172.86679 49.206856 174.20993 47.55 174.20993C45.893147 174.20993 44.55 172.86679 44.55 171.20993C44.55 169.55309 45.893147 168.20993 47.55 168.20993C49.206856 168.20993 50.55 169.55309 50.55 171.20993Z" fill-rule="nonzero"/><path fill="#000000" fill-opacity="0.0" clip-path="url(#id_0)" d="M86.14333 155.25911C86.14333 156.91595 84.800186 158.25911 83.14333 158.25911C81.48648 158.25911 80.14333 156.91595 80.14333 155.25911C80.14333 153.60225 81.48648 152.25911 83.14333 152.25911C84.800186 152.25911 86.14333 153.60225 86.14333 155.25911Z" fill-rule="nonzero"/><path fill="#000000" fill-opacity="0.0" clip-path="url(#id_0)" d="M121.736664 154.70927C121.736664 156.36612 120.393524 157.70927 118.736664 157.70927C117.07981 157.70927 115.736664 156.36612 115.736664 154.70927C115.736664 153.05241 117.07981 151.70927 118.736664 151.70927C120.393524 151.70927 121.736664 153.05241 121.736664 154.70927Z" fill-rule="nonzero"/><path fill="#000000" fill-opacity="0.0" clip-path="url(#id_0)" d="M157.33 163.53691C157.33 165.19377 155.98685 166.53691 154.33 166.53691C152.67314 166.53691 151.33 165.19377 151.33 163.53691C151.33 161.88007 152.67314 160.53691 154.33 160.53691C155.98685 160.53691 157.33 161.88007 157.33 163.53691Z" fill-rule="nonzero"/><path fill="#000000" fill-opacity="0.0" clip-path="url(#id_0)" d="M192.92334 166.8881C192.92334 168.54495 191.58018 169.8881 189.92334 169.8881C188.26648 169.8881 186.92334 168.54495 186.92334 166.8881C186.92334 165.23125 188.26648 163.8881 189.92334 163.8881C191.58018 163.8881 192.92334 165.23125 192.92334 166.8881Z" fill-rule="nonzero"/><path fill="#000000" fill-opacity="0.0" clip-path="url(#id_0)" d="M228.51666 164.45888C228.51666 166.11572 227.17352 167.45888 225.51666 167.45888C223.85982 167.45888 222.51666 166.11572 222.51666 164.45888C222.51666 162.80202 223.85982 161.45888 225.51666 161.45888C227.17352 161.45888 228.51666 162.80202 228.51666 164.45888Z" fill-rule="nonzero"/><path fill="#000000" fill-opacity="0.0" clip-path="url(#id_0)" d="M264.11 167.33638C264.11 168.99324 262.76685 170.33638 261.11 170.33638C259.45316 170.33638 258.11 168.99324 258.11 167.33638C258.11 165.67953 259.45316 164.33638 261.11 164.33638C262.76685 164.33638 264.11 165.67953 264.11 167.33638Z" fill-rule="nonzero"/><path fill="#000000" fill-opacity="0.0" clip-path="url(#id_0)" d="M299.70334 162.5767C299.70334 164.23355 298.3602 165.5767 296.70334 165.5767C295.04648 165.5767 293.70334 164.23355 293.70334 162.5767C293.70334 160.91985 295.04648 159.5767 296.70334 159.5767C298.3602 159.5767 299.70334 160.91985 299.70334 162.5767Z" fill-rule="nonzero"/><path fill="#000000" fill-opacity="0.0" clip-path="url(#id_0)" d="M335.29666 169.42723C335.29666 171.08408 333.95352 172.42723 332.29666 172.42723C330.6398 172.42723 329.29666 171.08408 329.29666 169.42723C329.29666 167.77037 330.6398 166.42723 332.29666 166.42723C333.95352 166.42723 335.29666 167.77037 335.29666 169.42723Z" fill-rule="nonzero"/><path fill="#000000" fill-opacity="0.0" clip-path="url(#id_0)" d="M370.89 166.6697C370.89 168.32655 369.54684 169.6697 367.89 169.6697C366.23315 169.6697 364.89 168.32655 364.89 166.6697C364.89 165.01285 366.23315 163.6697 367.89 163.6697C369.54684 163.6697 370.89 165.01285 370.89 166.6697Z" fill-rule="nonzero"/><path fill="#000000" fill-opacity="0.0" clip-path="url(#id_0)" d="M406.48334 154.73466C406.48334 156.39151 405.1402 157.73466 403.48334 157.73466C401.82648 157.73466 400.48334 156.39151 400.48334 154.73466C400.48334 153.0778 401.82648 151.73466 403.48334 151.73466C405.1402 151.73466 406.48334 153.0778 406.48334 154.73466Z" fill-rule="nonzero"/><path fill="#000000" fill-opacity="0.0" clip-path="url(#id_0)" d="M442.07666 148.62003C442.07666 150.27689 440.73352 151.62003 439.07666 151.62003C437.4198 151.62003 436.07666 150.27689 436.07666 148.62003C436.07666 146.96318 437.4198 145.62003 439.07666 145.62003C440.73352 145.62003 442.07666 146.96318 442.07666 148.62003Z" fill-rule="nonzero"/><path fill="#000000" fill-opacity="0.0" clip-path="url(#id_0)" d="M477.67 142.84344C477.67 144.50029 476.32684 145.84344 474.67 145.84344C473.01315 145.84344 471.67 144.50029 471.67 142.84344C471.67 141.18658 473.01315 139.84344 474.67 139.84344C476.32684 139.84344 477.67 141.18658 477.67 142.84344Z" fill-rule="nonzero"/><path fill="#000000" fill-opacity="0.0" clip-path="url(#id_0)" d="M513.2633 115.074776C513.2633 116.73163 511.9202 118.074776 510.26334 118.074776C508.60648 118.074776 507.26334 116.73163 507.26334 115.074776C507.26334 113.41792 508.60648 112.074776 510.26334 112.074776C511.9202 112.074776 513.2633 113.41792 513.2633 115.074776Z" fill-rule="nonzero"/><path fill="#000000" fill-opacity="0.0" clip-path="url(#id_0)" d="M548.8567 114.7343C548.8567 116.39116 547.51355 117.7343 545.8567 117.7343C544.1998 117.7343 542.8567 116.39116 542.8567 114.7343C542.8567 113.077446 544.1998 111.7343 545.8567 111.7343C547.51355 111.7343 548.8567 113.077446 548.8567 114.7343Z" fill-rule="nonzero"/><path fill="#000000" fill-opacity="0.0" clip-path="url(#id_0)" d="M584.45 116.16297C584.45 117.819824 583.1069 119.16297 581.45 119.16297C579.79315 119.16297 578.45 117.819824 578.45 116.16297C578.45 114.50612 579.79315 113.16297 581.45 113.16297C583.1069 113.16297 584.45 114.50612 584.45 116.16297Z" fill-rule="nonzero"/><path fill="#000000" fill-opacity="0.0" clip-path="url(#id_0)" d="M50.55 156.5685C50.55 158.22534 49.206856 159.5685 47.55 159.5685C45.893147 159.5685 44.55 158.22534 44.55 156.5685C44.55 154.91164 45.893147 153.5685 47.55 153.5685C49.206856 153.5685 50.55 154.91164 50.55 156.5685Z" fill-rule="nonzero"/><path fill="#000000" fill-opacity="0.0" clip-path="url(#id_0)" d="M86.14333 142.55235C86.14333 144.2092 84.800186 145.55235 83.14333 145.55235C81.48648 145.55235 80.14333 144.2092 80.14333 142.55235C80.14333 140.8955 81.48648 139.55235 83.14333 139.55235C84.800186 139.55235 86.14333 140.8955 86.14333 142.55235Z" fill-rule="nonzero"/><path fill="#000000" fill-opacity="0.0" clip-path="url(#id_0)" d="M121.736664 147.62782C121.736664 149.28467 120.393524 150.62782 118.736664 150.62782C117.07981 150.62782 115.736664 149.28467 115.736664 147.62782C115.736664 145.97096 117.07981 144.62782 118.736664 144.62782C120.393524 144.62782 121.736664 145.97096 121.736664 147.62782Z" fill-rule="nonzero"/><path fill="#000000" fill-opacity="0.0" clip-path="url(#id_0)" d="M157.33 147.13155C157.33 148.78839 155.98685 150.13155 154.33 150.13155C152.67314 150.13155 151.33 148.78839 151.33 147.13155C151.33 145.47469 152.67314 144.13155 154.33 144.13155C155.98685 144.13155 157.33 145.47469 157.33 147.13155Z" fill-rule="nonzero"/><path fill="#000000" fill-opacity="0.0" clip-path="url(#id_0)" d="M192.92334 147.60034C192.92334 149.2572 191.58018 150.60034 189.92334 150.60034C188.26648 150.60034 186.92334 149.2572 186.92334 147.60034C186.92334 145.9435 188.26648 144.60034 189.92334 144.60034C191.58018 144.60034 192.92334 145.9435 192.92334 147.60034Z" fill-rule="nonzero"/><path fill="#000000" fill-opacity="0.0" clip-path="url(#id_0)" d="M228.51666 147.96794C228.51666 149.6248 227.17352 150.96794 225.51666 150.96794C223.85982 150.96794 222.51666 149.6248 222.51666 147.96794C222.51666 146.3111 223.85982 144.96794 225.51666 144.96794C227.17352 144.96794 228.51666 146.3111 228.51666 147.96794Z" fill-rule="nonzero"/><path fill="#000000" fill-opacity="0.0" clip-path="url(#id_0)" d="M264.11 148.32373C264.11 149.98058 262.76685 151.32373 261.11 151.32373C259.45316 151.32373 258.11 149.98058 258.11 148.32373C258.11 146.66687 259.45316 145.32373 261.11 145.32373C262.76685 145.32373 264.11 146.66687 264.11 148.32373Z" fill-rule="nonzero"/><path fill="#000000" fill-opacity="0.0" clip-path="url(#id_0)" d="M299.70334 148.82C299.70334 150.47685 298.3602 151.82 296.70334 151.82C295.04648 151.82 293.70334 150.47685 293.70334 148.82C293.70334 147.16315 295.04648 145.82 296.70334 145.82C298.3602 145.82 299.70334 147.16315 299.70334 148.82Z" fill-rule="nonzero"/><path fill="#000000" fill-opacity="0.0" clip-path="url(#id_0)" d="M335.29666 149.36775C335.29666 151.02461 333.95352 152.36775 332.29666 152.36775C330.6398 152.36775 329.29666 151.02461 329.29666 149.36775C329.29666 147.71089 330.6398 146.36775 332.29666 146.36775C333.95352 146.36775 335.29666 147.71089 335.29666 149.36775Z" fill-rule="nonzero"/><path fill="#000000" fill-opacity="0.0" clip-path="url(#id_0)" d="M370.89 150.69939C370.89 152.35625 369.54684 153.69939 367.89 153.69939C366.23315 153.69939 364.89 152.35625 364.89 150.69939C364.89 149.04254 366.23315 147.69939 367.89 147.69939C369.54684 147.69939 370.89 149.04254 370.89 150.69939Z" fill-rule="nonzero"/><path fill="#000000" fill-opacity="0.0" clip-path="url(#id_0)" d="M406.48334 152.13467C406.48334 153.79152 405.1402 155.13467 403.48334 155.13467C401.82648 155.13467 400.48334 153.79152 400.48334 152.13467C400.48334 150.47781 401.82648 149.13467 403.48334 149.13467C405.1402 149.13467 406.48334 150.47781 406.48334 152.13467Z" fill-rule="nonzero"/><path fill="#000000" fill-opacity="0.0" clip-path="url(#id_0)" d="M442.07666 154.67067C442.07666 156.32751 440.73352 157.67067 439.07666 157.67067C437.4198 157.67067 436.07666 156.32751 436.07666 154.67067C436.07666 153.01381 437.4198 151.67067 439.07666 151.67067C440.73352 151.67067 442.07666 153.01381 442.07666 154.67067Z" fill-rule="nonzero"/><path fill="#000000" fill-opacity="0.0" clip-path="url(#id_0)" d="M477.67 137.6372C477.67 139.29407 476.32684 140.6372 474.67 140.6372C473.01315 140.6372 471.67 139.29407 471.67 137.6372C471.67 135.98035 473.01315 134.6372 474.67 134.6372C476.32684 134.6372 477.67 135.98035 477.67 137.6372Z" fill-rule="nonzero"/><path fill="#000000" fill-opacity="0.0" clip-path="url(#id_0)" d="M513.2633 122.09745C513.2633 123.75431 511.9202 125.09745 510.26334 125.09745C508.60648 125.09745 507.26334 123.75431 507.26334 122.09745C507.26334 120.4406 508.60648 119.09745 510.26334 119.09745C511.9202 119.09745 513.2633 120.4406 513.2633 122.09745Z" fill-rule="nonzero"/><path fill="#000000" fill-opacity="0.0" clip-path="url(#id_0)" d="M548.8567 116.81715C548.8567 118.474 547.51355 119.81715 545.8567 119.81715C544.1998 119.81715 542.8567 118.474 542.8567 116.81715C542.8567 115.160286 544.1998 113.81715 545.8567 113.81715C547.51355 113.81715 548.8567 115.160286 548.8567 116.81715Z" fill-rule="nonzero"/><path fill="#000000" fill-opacity="0.0" clip-path="url(#id_0)" d="M584.45 115.74494C584.45 117.4018 583.1069 118.74494 581.45 118.74494C579.79315 118.74494 578.45 117.4018 578.45 115.74494C578.45 114.08809 579.79315 112.74494 581.45 112.74494C583.1069 112.74494 584.45 114.08809 584.45 115.74494Z" fill-rule="nonzero"/><path fill="#000000" fill-opacity="0.0" clip-path="url(#id_0)" d="M50.55 252.48073C50.55 254.13759 49.206856 255.48073 47.55 255.48073C45.893147 255.48073 44.55 254.13759 44.55 252.48073C44.55 250.82388 45.893147 249.48073 47.55 249.48073C49.206856 249.48073 50.55 250.82388 50.55 252.48073Z" fill-rule="nonzero"/><path fill="#000000" fill-opacity="0.0" clip-path="url(#id_0)" d="M86.14333 252.74088C86.14333 254.39772 84.800186 255.74088 83.14333 255.74088C81.48648 255.74088 80.14333 254.39772 80.14333 252.74088C80.14333 251.08401 81.48648 249.74088 83.14333 249.74088C84.800186 249.74088 86.14333 251.08401 86.14333 252.74088Z" fill-rule="nonzero"/><path fill="#000000" fill-opacity="0.0" clip-path="url(#id_0)" d="M121.736664 253.10081C121.736664 254.75768 120.393524 256.10083 118.736664 256.10083C117.07981 256.10083 115.736664 254.75768 115.736664 253.10081C115.736664 251.44397 117.07981 250.10081 118.736664 250.10081C120.393524 250.10081 121.736664 251.44397 121.736664 253.10081Z" fill-rule="nonzero"/><path fill="#000000" fill-opacity="0.0" clip-path="url(#id_0)" d="M157.33 253.24132C157.33 254.89818 155.98685 256.24133 154.33 256.24133C152.67314 256.24133 151.33 254.89818 151.33 253.24132C151.33 251.58447 152.67314 250.24132 154.33 250.24132C155.98685 250.24132 157.33 251.58447 157.33 253.24132Z" fill-rule="nonzero"/><path fill="#000000" fill-opacity="0.0" clip-path="url(#id_0)" d="M192.92334 253.25906C192.92334 254.91591 191.58018 256.25906 189.92334 256.25906C188.26648 256.25906 186.92334 254.91591 186.92334 253.25906C186.92334 251.6022 188.26648 250.25906 189.92334 250.25906C191.58018 250.25906 192.92334 251.6022 192.92334 253.25906Z" fill-rule="nonzero"/><path fill="#000000" fill-opacity="0.0" clip-path="url(#id_0)" d="M228.51666 253.49347C228.51666 255.15031 227.17352 256.49347 225.51666 256.49347C223.85982 256.49347 222.51666 255.15031 222.51666 253.49347C222.51666 251.83661 223.85982 250.49347 225.51666 250.49347C227.17352 250.49347 228.51666 251.83661 228.51666 253.49347Z" fill-rule="nonzero"/><path fill="#000000" fill-opacity="0.0" clip-path="url(#id_0)" d="M264.11 253.53554C264.11 255.1924 262.76685 256.53555 261.11 256.53555C259.45316 256.53555 258.11 255.1924 258.11 253.53554C258.11 251.8787 259.45316 250.53554 261.11 250.53554C262.76685 250.53554 264.11 251.8787 264.11 253.53554Z" fill-rule="nonzero"/><path fill="#000000" fill-opacity="0.0" clip-path="url(#id_0)" d="M299.70334 253.25107C299.70334 254.90791 298.3602 256.25107 296.70334 256.25107C295.04648 256.25107 293.70334 254.90791 293.70334 253.25107C293.70334 251.59421 295.04648 250.25107 296.70334 250.25107C298.3602 250.25107 299.70334 251.59421 299.70334 253.25107Z" fill-rule="nonzero"/><path fill="#000000" fill-opacity="0.0" clip-path="url(#id_0)" d="M335.29666 253.2288C335.29666 254.88565 333.95352 256.2288 332.29666 256.2288C330.6398 256.2288 329.29666 254.88565 329.29666 253.2288C329.29666 251.57195 330.6398 250.2288 332.29666 250.2288C333.95352 250.2288 335.29666 251.57195 335.29666 253.2288Z" fill-rule="nonzero"/><path fill="#000000" fill-opacity="0.0" clip-path="url(#id_0)" d="M370.89 253.03996C370.89 254.69681 369.54684 256.03995 367.89 256.03995C366.23315 256.03995 364.89 254.69681 364.89 253.03996C364.89 251.3831 366.23315 250.03996 367.89 250.03996C369.54684 250.03996 370.89 251.3831 370.89 253.03996Z" fill-rule="nonzero"/><path fill="#000000" fill-opacity="0.0" clip-path="url(#id_0)" d="M406.48334 253.12343C406.48334 254.78027 405.1402 256.1234 403.48334 256.1234C401.82648 256.1234 400.48334 254.78027 400.48334 253.12343C400.48334 251.46657 401.82648 250.12343 403.48334 250.12343C405.1402 250.12343 406.48334 251.46657 406.48334 253.12343Z" fill-rule="nonzero"/><path fill="#000000" fill-opacity="0.0" clip-path="url(#id_0)" d="M442.07666 254.05304C442.07666 255.70988 440.73352 257.05304 439.07666 257.05304C437.4198 257.05304 436.07666 255.70988 436.07666 254.05304C436.07666 252.39618 437.4198 251.05304 439.07666 251.05304C440.73352 251.05304 442.07666 252.39618 442.07666 254.05304Z" fill-rule="nonzero"/><path fill="#000000" fill-opacity="0.0" clip-path="url(#id_0)" d="M477.67 255.93103C477.67 257.5879 476.32684 258.93103 474.67 258.93103C473.01315 258.93103 471.67 257.5879 471.67 255.93103C471.67 254.27419 473.01315 252.93103 474.67 252.93103C476.32684 252.93103 477.67 254.27419 477.67 255.93103Z" fill-rule="nonzero"/><path fill="#000000" fill-opacity="0.0" clip-path="url(#id_0)" d="M513.2633 256.25934C513.2633 257.9162 511.9202 259.25934 510.26334 259.25934C508.60648 259.25934 507.26334 257.9162 507.26334 256.25934C507.26334 254.60248 508.60648 253.25934 510.26334 253.25934C511.9202 253.25934 513.2633 254.60248 513.2633 256.25934Z" fill-rule="nonzero"/><path fill="#000000" fill-opacity="0.0" clip-path="url(#id_0)" d="M548.8567 256.40472C548.8567 258.06155 547.51355 259.40472 545.8567 259.40472C544.1998 259.40472 542.8567 258.06155 542.8567 256.40472C542.8567 254.74785 544.1998 253.40471 545.8567 253.40471C547.51355 253.40471 548.8567 254.74785 548.8567 256.40472Z" fill-rule="nonzero"/><path fill="#000000" fill-opacity="0.0" clip-path="url(#id_0)" d="M584.45 256.57825C584.45 258.2351 583.1069 259.57825 581.45 259.57825C579.79315 259.57825 578.45 258.2351 578.45 256.57825C578.45 254.9214 579.79315 253.57825 581.45 253.57825C583.1069 253.57825 584.45 254.9214 584.45 256.57825Z" fill-rule="nonzero"/><path fill="#000000" fill-opacity="0.0" clip-path="url(#id_0)" d="M50.55 262.5635C50.55 264.22037 49.206856 265.5635 47.55 265.5635C45.893147 265.5635 44.55 264.22037 44.55 262.5635C44.55 260.90665 45.893147 259.5635 47.55 259.5635C49.206856 259.5635 50.55 260.90665 50.55 262.5635Z" fill-rule="nonzero"/><path fill="#000000" fill-opacity="0.0" clip-path="url(#id_0)" d="M86.14333 263.21176C86.14333 264.86862 84.800186 266.21176 83.14333 266.21176C81.48648 266.21176 80.14333 264.86862 80.14333 263.21176C80.14333 261.5549 81.48648 260.21176 83.14333 260.21176C84.800186 260.21176 86.14333 261.5549 86.14333 263.21176Z" fill-rule="nonzero"/><path fill="#000000" fill-opacity="0.0" clip-path="url(#id_0)" d="M121.736664 263.08344C121.736664 264.7403 120.393524 266.08344 118.736664 266.08344C117.07981 266.08344 115.736664 264.7403 115.736664 263.08344C115.736664 261.42657 117.07981 260.08344 118.736664 260.08344C120.393524 260.08344 121.736664 261.42657 121.736664 263.08344Z" fill-rule="nonzero"/><path fill="#000000" fill-opacity="0.0" clip-path="url(#id_0)" d="M157.33 262.96658C157.33 264.62344 155.98685 265.96658 154.33 265.96658C152.67314 265.96658 151.33 264.62344 151.33 262.96658C151.33 261.30972 152.67314 259.96658 154.33 259.96658C155.98685 259.96658 157.33 261.30972 157.33 262.96658Z" fill-rule="nonzero"/><path fill="#000000" fill-opacity="0.0" clip-path="url(#id_0)" d="M192.92334 262.5628C192.92334 264.21967 191.58018 265.5628 189.92334 265.5628C188.26648 265.5628 186.92334 264.21967 186.92334 262.5628C186.92334 260.90594 188.26648 259.5628 189.92334 259.5628C191.58018 259.5628 192.92334 260.90594 192.92334 262.5628Z" fill-rule="nonzero"/><path fill="#000000" fill-opacity="0.0" clip-path="url(#id_0)" d="M228.51666 262.0867C228.51666 263.74356 227.17352 265.0867 225.51666 265.0867C223.85982 265.0867 222.51666 263.74356 222.51666 262.0867C222.51666 260.42984 223.85982 259.0867 225.51666 259.0867C227.17352 259.0867 228.51666 260.42984 228.51666 262.0867Z" fill-rule="nonzero"/><path fill="#000000" fill-opacity="0.0" clip-path="url(#id_0)" d="M264.11 253.62875C264.11 255.2856 262.76685 256.62875 261.11 256.62875C259.45316 256.62875 258.11 255.2856 258.11 253.62875C258.11 251.9719 259.45316 250.62875 261.11 250.62875C262.76685 250.62875 264.11 251.9719 264.11 253.62875Z" fill-rule="nonzero"/><path fill="#000000" fill-opacity="0.0" clip-path="url(#id_0)" d="M299.70334 259.0134C299.70334 260.67026 298.3602 262.0134 296.70334 262.0134C295.04648 262.0134 293.70334 260.67026 293.70334 259.0134C293.70334 257.35654 295.04648 256.0134 296.70334 256.0134C298.3602 256.0134 299.70334 257.35654 299.70334 259.0134Z" fill-rule="nonzero"/><path fill="#000000" fill-opacity="0.0" clip-path="url(#id_0)" d="M335.29666 262.93945C335.29666 264.5963 333.95352 265.93945 332.29666 265.93945C330.6398 265.93945 329.29666 264.5963 329.29666 262.93945C329.29666 261.2826 330.6398 259.93945 332.29666 259.93945C333.95352 259.93945 335.29666 261.2826 335.29666 262.93945Z" fill-rule="nonzero"/><path fill="#000000" fill-opacity="0.0" clip-path="url(#id_0)" d="M370.89 261.81473C370.89 263.4716 369.54684 264.81473 367.89 264.81473C366.23315 264.81473 364.89 263.4716 364.89 261.81473C364.89 260.1579 366.23315 258.81473 367.89 258.81473C369.54684 258.81473 370.89 260.1579 370.89 261.81473Z" fill-rule="nonzero"/><path fill="#000000" fill-opacity="0.0" clip-path="url(#id_0)" d="M406.48334 262.36597C406.48334 264.02283 405.1402 265.36597 403.48334 265.36597C401.82648 265.36597 400.48334 264.02283 400.48334 262.36597C400.48334 260.7091 401.82648 259.36597 403.48334 259.36597C405.1402 259.36597 406.48334 260.7091 406.48334 262.36597Z" fill-rule="nonzero"/><path fill="#000000" fill-opacity="0.0" clip-path="url(#id_0)" d="M442.07666 260.47025C442.07666 262.12708 440.73352 263.47025 439.07666 263.47025C437.4198 263.47025 436.07666 262.12708 436.07666 260.47025C436.07666 258.8134 437.4198 257.47025 439.07666 257.47025C440.73352 257.47025 442.07666 258.8134 442.07666 260.47025Z" fill-rule="nonzero"/><path fill="#000000" fill-opacity="0.0" clip-path="url(#id_0)" d="M477.67 261.74033C477.67 263.39716 476.32684 264.74033 474.67 264.74033C473.01315 264.74033 471.67 263.39716 471.67 261.74033C471.67 260.08347 473.01315 258.74033 474.67 258.74033C476.32684 258.74033 477.67 260.08347 477.67 261.74033Z" fill-rule="nonzero"/><path fill="#000000" fill-opacity="0.0" clip-path="url(#id_0)" d="M513.2633 261.2496C513.2633 262.90646 511.9202 264.2496 510.26334 264.2496C508.60648 264.2496 507.26334 262.90646 507.26334 261.2496C507.26334 259.59274 508.60648 258.2496 510.26334 258.2496C511.9202 258.2496 513.2633 259.59274 513.2633 261.2496Z" fill-rule="nonzero"/><path fill="#000000" fill-opacity="0.0" clip-path="url(#id_0)" d="M548.8567 260.58118C548.8567 262.23804 547.51355 263.58118 545.8567 263.58118C544.1998 263.58118 542.8567 262.23804 542.8567 260.58118C542.8567 258.92432 544.1998 257.58118 545.8567 257.58118C547.51355 257.58118 548.8567 258.92432 548.8567 260.58118Z" fill-rule="nonzero"/><path fill="#000000" fill-opacity="0.0" clip-path="url(#id_0)" d="M584.45 260.9731C584.45 262.62997 583.1069 263.9731 581.45 263.9731C579.79315 263.9731 578.45 262.62997 578.45 260.9731C578.45 259.31625 579.79315 257.9731 581.45 257.9731C583.1069 257.9731 584.45 259.31625 584.45 260.9731Z" fill-rule="nonzero"/><path fill="#424242" d="M269.48438 349.45L269.48438 340.91876L272.28125 340.91876Q273.67188 340.91876 274.35938 341.4969Q275.0625 342.0594 275.0625 343.1844Q275.0625 343.79376 274.71875 344.2625Q274.39062 344.71564 273.79688 344.96564Q274.5 345.15314 274.89062 345.7Q275.29688 346.23126 275.29688 346.98126Q275.29688 348.1375 274.54688 348.79376Q273.8125 349.45 272.45312 349.45L269.48438 349.45ZM270.60938 345.46564L270.60938 348.52814L272.46875 348.52814Q273.26562 348.52814 273.71875 348.1219Q274.17188 347.71564 274.17188 346.9969Q274.17188 345.46564 272.48438 345.46564L270.60938 345.46564ZM270.60938 344.5594L272.3125 344.5594Q273.04688 344.5594 273.48438 344.2Q273.9375 343.825 273.9375 343.1844Q273.9375 342.48126 273.53125 342.16876Q273.125 341.84064 272.28125 341.84064L270.60938 341.84064L270.60938 344.5594ZM280.23438 348.825Q279.60938 349.575 278.375 349.575Q277.35938 349.575 276.82812 348.98126Q276.29688 348.3875 276.29688 347.23126L276.29688 343.10626L277.375 343.10626L277.375 347.2Q277.375 348.65314 278.54688 348.65314Q279.79688 348.65314 280.20312 347.71564L280.20312 343.10626L281.29688 343.10626L281.29688 349.45L280.26562 349.45L280.23438 348.825ZM283.85938 349.45L283.85938 343.95L282.85938 343.95L282.85938 343.10626L283.85938 343.10626L283.85938 342.46564Q283.85938 341.4344 284.39062 340.8875Q284.9375 340.325 285.9375 340.325Q286.3125 340.325 286.6875 340.41876L286.625 341.3094Q286.34375 341.2469 286.04688 341.2469Q285.51562 341.2469 285.21875 341.5594Q284.9375 341.8719 284.9375 342.4344L284.9375 343.10626L286.29688 343.10626L286.29688 343.95L284.9375 343.95L284.9375 349.45L283.85938 349.45ZM287.85938 349.45L287.85938 343.95L286.85938 343.95L286.85938 343.10626L287.85938 343.10626L287.85938 342.46564Q287.85938 341.4344 288.39062 340.8875Q288.9375 340.325 289.9375 340.325Q290.3125 340.325 290.6875 340.41876L290.625 341.3094Q290.34375 341.2469 290.04688 341.2469Q289.51562 341.2469 289.21875 341.5594Q288.9375 341.8719 288.9375 342.4344L288.9375 343.10626L290.29688 343.10626L290.29688 343.95L288.9375 343.95L288.9375 349.45L287.85938 349.45ZM293.95312 349.575Q292.65625 349.575 291.84375 348.73126Q291.04688 347.8719 291.04688 346.45L291.04688 346.2625Q291.04688 345.3094 291.40625 344.575Q291.76562 343.825 292.40625 343.41876Q293.0625 342.9969 293.8125 342.9969Q295.04688 342.9969 295.73438 343.8094Q296.42188 344.6219 296.42188 346.1375L296.42188 346.59064L292.125 346.59064Q292.15625 347.52814 292.67188 348.10626Q293.20312 348.6844 294.01562 348.6844Q294.57812 348.6844 294.96875 348.45Q295.375 348.21564 295.6875 347.825L296.34375 348.34064Q295.54688 349.575 293.95312 349.575ZM293.8125 343.8875Q293.15625 343.8875 292.70312 344.3719Q292.26562 344.84064 292.17188 345.7L295.34375 345.7L295.34375 345.6219Q295.29688 344.79376 294.89062 344.34064Q294.5 343.8875 293.8125 343.8875ZM300.39062 344.075Q300.14062 344.04376 299.85938 344.04376Q298.78125 344.04376 298.40625 344.95L298.40625 349.45L297.32812 349.45L297.32812 343.10626L298.375 343.10626L298.39062 343.84064Q298.92188 342.9969 299.90625 342.9969Q300.21875 342.9969 300.39062 343.075L300.39062 344.075ZM307.0 345.65314Q305.5625 345.23126 304.89062 344.6219Q304.23438 344.0125 304.23438 343.1219Q304.23438 342.1219 305.03125 341.46564Q305.84375 340.79376 307.14062 340.79376Q308.01562 340.79376 308.70312 341.1375Q309.39062 341.48126 309.76562 342.075Q310.15625 342.66876 310.15625 343.3875L309.01562 343.3875Q309.01562 342.60626 308.51562 342.16876Q308.03125 341.73126 307.14062 341.73126Q306.3125 341.73126 305.84375 342.10626Q305.375 342.46564 305.375 343.10626Q305.375 343.6375 305.8125 343.9969Q306.26562 344.35626 307.32812 344.65314Q308.39062 344.95 308.98438 345.3094Q309.59375 345.66876 309.875 346.15314Q310.17188 346.6375 310.17188 347.27814Q310.17188 348.325 309.35938 348.95Q308.54688 349.575 307.20312 349.575Q306.3125 349.575 305.54688 349.23126Q304.79688 348.8875 304.375 348.3094Q303.96875 347.71564 303.96875 346.98126L305.09375 346.98126Q305.09375 347.7469 305.67188 348.2Q306.25 348.65314 307.20312 348.65314Q308.09375 348.65314 308.5625 348.29376Q309.03125 347.91876 309.03125 347.29376Q309.03125 346.66876 308.59375 346.325Q308.15625 345.98126 307.0 345.65314ZM312.5 349.45L311.42188 349.45L311.42188 343.10626L312.5 343.10626L312.5 349.45ZM311.32812 341.4344Q311.32812 341.16876 311.48438 340.98126Q311.65625 340.79376 311.96875 340.79376Q312.28125 340.79376 312.4375 340.98126Q312.60938 341.16876 312.60938 341.4344Q312.60938 341.6844 312.4375 341.8719Q312.28125 342.04376 311.96875 342.04376Q311.65625 342.04376 311.48438 341.8719Q311.32812 341.6844 311.32812 341.4344ZM315.34375 348.5594L319.04688 348.5594L319.04688 349.45L314.01562 349.45L314.01562 348.65314L317.51562 344.0125L314.0625 344.0125L314.0625 343.10626L318.875 343.10626L318.875 343.8719L315.34375 348.5594ZM322.95312 349.575Q321.65625 349.575 320.84375 348.73126Q320.04688 347.8719 320.04688 346.45L320.04688 346.2625Q320.04688 345.3094 320.40625 344.575Q320.76562 343.825 321.40625 343.41876Q322.0625 342.9969 322.8125 342.9969Q324.04688 342.9969 324.73438 343.8094Q325.42188 344.6219 325.42188 346.1375L325.42188 346.59064L321.125 346.59064Q321.15625 347.52814 321.67188 348.10626Q322.20312 348.6844 323.01562 348.6844Q323.57812 348.6844 323.96875 348.45Q324.375 348.21564 324.6875 347.825L325.34375 348.34064Q324.54688 349.575 322.95312 349.575ZM322.8125 343.8875Q322.15625 343.8875 321.70312 344.3719Q321.26562 344.84064 321.17188 345.7L324.34375 345.7L324.34375 345.6219Q324.29688 344.79376 323.89062 344.34064Q323.5 343.8875 322.8125 343.8875ZM329.28125 345.98126Q329.28125 344.66876 329.625 343.45Q329.98438 342.23126 330.6875 341.23126Q331.39062 340.23126 332.15625 339.825L332.375 340.54376Q331.51562 341.2 330.96875 342.54376Q330.42188 343.8875 330.375 345.5594L330.35938 346.0594Q330.35938 348.325 331.1875 349.98126Q331.6875 350.98126 332.375 351.54376L332.15625 352.2Q331.375 351.77814 330.65625 350.7469Q329.28125 348.7625 329.28125 345.98126ZM334.5 349.45L333.42188 349.45L333.42188 340.45L334.5 340.45L334.5 349.45ZM336.03125 346.21564Q336.03125 345.29376 336.39062 344.54376Q336.76562 343.79376 337.42188 343.40314Q338.07812 342.9969 338.90625 342.9969Q340.20312 342.9969 341.0 343.8875Q341.8125 344.77814 341.8125 346.27814L341.8125 346.35626Q341.8125 347.27814 341.45312 348.0125Q341.09375 348.7469 340.4375 349.16876Q339.78125 349.575 338.92188 349.575Q337.64062 349.575 336.82812 348.6844Q336.03125 347.77814 336.03125 346.29376L336.03125 346.21564ZM337.125 346.35626Q337.125 347.40314 337.60938 348.04376Q338.10938 348.6844 338.92188 348.6844Q339.75 348.6844 340.23438 348.04376Q340.71875 347.3875 340.71875 346.21564Q340.71875 345.1844 340.21875 344.54376Q339.73438 343.8875 338.90625 343.8875Q338.10938 343.8875 337.60938 344.52814Q337.125 345.15314 337.125 346.35626ZM343.0625 346.23126Q343.0625 344.7469 343.75 343.8719Q344.4375 342.9969 345.5625 342.9969Q346.71875 342.9969 347.375 343.8094L347.42188 343.10626L348.42188 343.10626L348.42188 349.29376Q348.42188 350.52814 347.6875 351.23126Q346.95312 351.95 345.73438 351.95Q345.04688 351.95 344.39062 351.65314Q343.73438 351.35626 343.39062 350.85626L343.95312 350.2Q344.64062 351.0594 345.65625 351.0594Q346.4375 351.0594 346.875 350.60626Q347.32812 350.16876 347.32812 349.35626L347.32812 348.8094Q346.67188 349.575 345.54688 349.575Q344.4375 349.575 343.75 348.6844Q343.0625 347.77814 343.0625 346.23126ZM344.15625 346.35626Q344.15625 347.41876 344.59375 348.04376Q345.03125 348.65314 345.82812 348.65314Q346.84375 348.65314 347.32812 347.71564L347.32812 344.825Q346.82812 343.91876 345.82812 343.91876Q345.04688 343.91876 344.59375 344.52814Q344.15625 345.1375 344.15625 346.35626ZM355.79688 349.45L350.20312 349.45L350.20312 348.66876L353.15625 345.3875Q353.8125 344.6375 354.0625 344.1844Q354.3125 343.71564 354.3125 343.21564Q354.3125 342.54376 353.90625 342.1219Q353.51562 341.6844 352.82812 341.6844Q352.03125 341.6844 351.57812 342.15314Q351.125 342.60626 351.125 343.4344L350.04688 343.4344Q350.04688 342.2469 350.79688 341.52814Q351.5625 340.79376 352.82812 340.79376Q354.03125 340.79376 354.71875 341.41876Q355.40625 342.04376 355.40625 343.09064Q355.40625 344.34064 353.79688 346.09064L351.51562 348.5594L355.79688 348.5594L355.79688 349.45ZM359.82812 346.04376Q359.82812 347.35626 359.48438 348.5594Q359.14062 349.7469 358.42188 350.7625Q357.71875 351.77814 356.95312 352.2L356.71875 351.54376Q357.625 350.85626 358.17188 349.40314Q358.71875 347.9344 358.73438 346.16876L358.73438 345.98126Q358.73438 344.7469 358.46875 343.6844Q358.21875 342.6219 357.75 341.79376Q357.29688 340.95 356.71875 340.48126L356.95312 339.825Q357.71875 340.2469 358.42188 341.2469Q359.125 342.2469 359.46875 343.46564Q359.82812 344.66876 359.82812 346.04376Z" fill-rule="nonzero"/><path fill="#757575" d="M24.6125 299.3094Q24.6125 301.21564 23.95625 302.15314Q23.315624 303.075 21.925 303.075Q20.565624 303.075 19.909374 302.16876Q19.253124 301.2625 19.221874 299.45L19.221874 298.0125Q19.221874 296.1219 19.8625 295.21564Q20.51875 294.29376 21.909374 294.29376Q23.284374 294.29376 23.940624 295.1844Q24.596874 296.0594 24.6125 297.90314L24.6125 299.3094ZM23.51875 297.825Q23.51875 296.45 23.128124 295.825Q22.753124 295.1844 21.909374 295.1844Q21.08125 295.1844 20.690624 295.825Q20.315624 296.45 20.315624 297.7469L20.315624 299.48126Q20.315624 300.85626 20.70625 301.52814Q21.1125 302.1844 21.925 302.1844Q22.721874 302.1844 23.1125 301.5594Q23.503124 300.9344 23.51875 299.60626L23.51875 297.825ZM30.39375 296.60626L30.425 297.40314Q31.159374 296.4969 32.33125 296.4969Q34.346874 296.4969 34.3625 298.7625L34.3625 302.95L33.26875 302.95L33.26875 298.7469Q33.26875 298.075 32.95625 297.7469Q32.659374 297.41876 32.003124 297.41876Q31.471874 297.41876 31.065624 297.7Q30.675 297.98126 30.45625 298.4344L30.45625 302.95L29.378124 302.95L29.378124 296.60626L30.39375 296.60626ZM40.065624 301.2625Q40.065624 300.825 39.721874 300.59064Q39.39375 300.34064 38.565624 300.16876Q37.753124 299.9969 37.26875 299.7469Q36.784374 299.4969 36.55 299.16876Q36.33125 298.825 36.33125 298.35626Q36.33125 297.575 36.9875 297.04376Q37.64375 296.4969 38.675 296.4969Q39.753124 296.4969 40.409374 297.0594Q41.08125 297.60626 41.08125 298.46564L40.003124 298.46564Q40.003124 298.02814 39.6125 297.71564Q39.2375 297.3875 38.675 297.3875Q38.08125 297.3875 37.7375 297.65314Q37.409374 297.90314 37.409374 298.3094Q37.409374 298.7 37.721874 298.90314Q38.034374 299.10626 38.846874 299.29376Q39.659374 299.46564 40.159374 299.71564Q40.659374 299.96564 40.89375 300.325Q41.14375 300.6844 41.14375 301.1844Q41.14375 302.04376 40.45625 302.5594Q39.784374 303.075 38.70625 303.075Q37.940624 303.075 37.346874 302.8094Q36.76875 302.52814 36.440624 302.04376Q36.1125 301.5594 36.1125 300.9969L37.190624 300.9969Q37.221874 301.54376 37.628124 301.8719Q38.034374 302.1844 38.70625 302.1844Q39.315624 302.1844 39.690624 301.9344Q40.065624 301.6844 40.065624 301.2625Z" fill-rule="nonzero"/><path fill="#757575" d="M24.846874 233.39444L19.253124 233.39444L19.253124 232.61319L22.20625 229.33194Q22.8625 228.58194 23.1125 228.12881Q23.3625 227.66006 23.3625 227.16006Q23.3625 226.48819 22.95625 226.06631Q22.565624 225.62881 21.878124 225.62881Q21.08125 225.62881 20.628124 226.09756Q20.175 226.55069 20.175 227.37881L19.096874 227.37881Q19.096874 226.19131 19.846874 225.47256Q20.6125 224.73819 21.878124 224.73819Q23.08125 224.73819 23.76875 225.36319Q24.45625 225.98819 24.45625 227.03506Q24.45625 228.28506 22.846874 230.03506L20.565624 232.50381L24.846874 232.50381L24.846874 233.39444ZM30.39375 227.05069L30.425 227.84756Q31.159374 226.94131 32.33125 226.94131Q34.346874 226.94131 34.3625 229.20694L34.3625 233.39444L33.26875 233.39444L33.26875 229.19131Q33.26875 228.51944 32.95625 228.19131Q32.659374 227.86319 32.003124 227.86319Q31.471874 227.86319 31.065624 228.14444Q30.675 228.42569 30.45625 228.87881L30.45625 233.39444L29.378124 233.39444L29.378124 227.05069L30.39375 227.05069ZM40.065624 231.70694Q40.065624 231.26944 39.721874 231.03506Q39.39375 230.78506 38.565624 230.61319Q37.753124 230.44131 37.26875 230.19131Q36.784374 229.94131 36.55 229.61319Q36.33125 229.26944 36.33125 228.80069Q36.33125 228.01944 36.9875 227.48819Q37.64375 226.94131 38.675 226.94131Q39.753124 226.94131 40.409374 227.50381Q41.08125 228.05069 41.08125 228.91006L40.003124 228.91006Q40.003124 228.47256 39.6125 228.16006Q39.2375 227.83194 38.675 227.83194Q38.08125 227.83194 37.7375 228.09756Q37.409374 228.34756 37.409374 228.75381Q37.409374 229.14444 37.721874 229.34756Q38.034374 229.55069 38.846874 229.73819Q39.659374 229.91006 40.159374 230.16006Q40.659374 230.41006 40.89375 230.76944Q41.14375 231.12881 41.14375 231.62881Q41.14375 232.48819 40.45625 233.00381Q39.784374 233.51944 38.70625 233.51944Q37.940624 233.51944 37.346874 233.25381Q36.76875 232.97256 36.440624 232.48819Q36.1125 232.00381 36.1125 231.44131L37.190624 231.44131Q37.221874 231.98819 37.628124 232.31631Q38.034374 232.62881 38.70625 232.62881Q39.315624 232.62881 39.690624 232.37881Q40.065624 232.12881 40.065624 231.70694Z" fill-rule="nonzero"/><path fill="#757575" d="M23.83125 160.9795L25.01875 160.9795L25.01875 161.8545L23.83125 161.8545L23.83125 163.83888L22.753124 163.83888L22.753124 161.8545L18.8625 161.8545L18.8625 161.21388L22.675 155.30763L23.83125 155.30763L23.83125 160.9795ZM20.096874 160.9795L22.753124 160.9795L22.753124 156.792L22.6125 157.02638L20.096874 160.9795ZM30.39375 157.49513L30.425 158.292Q31.159374 157.38576 32.33125 157.38576Q34.346874 157.38576 34.3625 159.65138L34.3625 163.83888L33.26875 163.83888L33.26875 159.63576Q33.26875 158.96388 32.95625 158.63576Q32.659374 158.30763 32.003124 158.30763Q31.471874 158.30763 31.065624 158.58888Q30.675 158.87013 30.45625 159.32326L30.45625 163.83888L29.378124 163.83888L29.378124 157.49513L30.39375 157.49513ZM40.065624 162.15138Q40.065624 161.71388 39.721874 161.4795Q39.39375 161.2295 38.565624 161.05763Q37.753124 160.88576 37.26875 160.63576Q36.784374 160.38576 36.55 160.05763Q36.33125 159.71388 36.33125 159.24513Q36.33125 158.46388 36.9875 157.93263Q37.64375 157.38576 38.675 157.38576Q39.753124 157.38576 40.409374 157.94826Q41.08125 158.49513 41.08125 159.3545L40.003124 159.3545Q40.003124 158.917 39.6125 158.6045Q39.2375 158.27638 38.675 158.27638Q38.08125 158.27638 37.7375 158.542Q37.409374 158.792 37.409374 159.19826Q37.409374 159.58888 37.721874 159.792Q38.034374 159.99513 38.846874 160.18263Q39.659374 160.3545 40.159374 160.6045Q40.659374 160.8545 40.89375 161.21388Q41.14375 161.57326 41.14375 162.07326Q41.14375 162.93263 40.45625 163.44826Q39.784374 163.96388 38.70625 163.96388Q37.940624 163.96388 37.346874 163.69826Q36.76875 163.417 36.440624 162.93263Q36.1125 162.44826 36.1125 161.88576L37.190624 161.88576Q37.221874 162.43263 37.628124 162.76076Q38.034374 163.07326 38.70625 163.07326Q39.315624 163.07326 39.690624 162.82326Q40.065624 162.57326 40.065624 162.15138Z" fill-rule="nonzero"/><path fill="#757575" d="M23.51875 85.75208L23.51875 86.65833L23.315624 86.65833Q22.05 86.68958 21.3 87.42396Q20.55 88.14271 20.425 89.45521Q21.1125 88.68958 22.26875 88.68958Q23.378124 88.68958 24.05 89.47083Q24.721874 90.25208 24.721874 91.50208Q24.721874 92.81458 24.003124 93.61146Q23.284374 94.40833 22.065624 94.40833Q20.846874 94.40833 20.08125 93.47083Q19.33125 92.51771 19.33125 91.03333L19.33125 90.62708Q19.33125 88.26771 20.33125 87.01771Q21.33125 85.76771 23.315624 85.75208L23.51875 85.75208ZM22.096874 89.59583Q21.534374 89.59583 21.065624 89.92396Q20.596874 90.25208 20.409374 90.76771L20.409374 91.15833Q20.409374 92.22083 20.878124 92.86146Q21.3625 93.50208 22.065624 93.50208Q22.8 93.50208 23.221874 92.97083Q23.64375 92.42396 23.64375 91.54896Q23.64375 90.67396 23.221874 90.14271Q22.8 89.59583 22.096874 89.59583ZM30.39375 87.93958L30.425 88.73646Q31.159374 87.83021 32.33125 87.83021Q34.346874 87.83021 34.3625 90.09583L34.3625 94.28333L33.26875 94.28333L33.26875 90.08021Q33.26875 89.40833 32.95625 89.08021Q32.659374 88.75208 32.003124 88.75208Q31.471874 88.75208 31.065624 89.03333Q30.675 89.31458 30.45625 89.76771L30.45625 94.28333L29.378124 94.28333L29.378124 87.93958L30.39375 87.93958ZM40.065624 92.59583Q40.065624 92.15833 39.721874 91.92396Q39.39375 91.67396 38.565624 91.50208Q37.753124 91.33021 37.26875 91.08021Q36.784374 90.83021 36.55 90.50208Q36.33125 90.15833 36.33125 89.68958Q36.33125 88.90833 36.9875 88.37708Q37.64375 87.83021 38.675 87.83021Q39.753124 87.83021 40.409374 88.39271Q41.08125 88.93958 41.08125 89.79896L40.003124 89.79896Q40.003124 89.36146 39.6125 89.04896Q39.2375 88.72083 38.675 88.72083Q38.08125 88.72083 37.7375 88.98646Q37.409374 89.23646 37.409374 89.64271Q37.409374 90.03333 37.721874 90.23646Q38.034374 90.43958 38.846874 90.62708Q39.659374 90.79896 40.159374 91.04896Q40.659374 91.29896 40.89375 91.65833Q41.14375 92.01771 41.14375 92.51771Q41.14375 93.37708 40.45625 93.89271Q39.784374 94.40833 38.70625 94.40833Q37.940624 94.40833 37.346874 94.14271Q36.76875 93.86146 36.440624 93.37708Q36.1125 92.89271 36.1125 92.33021L37.190624 92.33021Q37.221874 92.87708 37.628124 93.20521Q38.034374 93.51771 38.70625 93.51771Q39.315624 93.51771 39.690624 93.26771Q40.065624 93.01771 40.065624 92.59583Z" fill-rule="nonzero"/><path fill="#757575" d="M44.815624 316.45L43.7375 316.45L43.7375 309.23126L41.55 310.02814L41.55 309.04376L44.659374 307.8719L44.815624 307.8719L44.815624 316.45ZM48.753124 312.16876L49.190624 307.91876L53.565624 307.91876L53.565624 308.91876L50.1125 308.91876L49.846874 311.2469Q50.4875 310.8719 51.284374 310.8719Q52.440624 310.8719 53.128124 311.65314Q53.815624 312.41876 53.815624 313.73126Q53.815624 315.04376 53.096874 315.8094Q52.39375 316.575 51.1125 316.575Q49.9875 316.575 49.26875 315.95Q48.55 315.3094 48.45625 314.2L49.471874 314.2Q49.58125 314.9344 50.003124 315.3094Q50.425 315.6844 51.1125 315.6844Q51.8625 315.6844 52.3 315.16876Q52.7375 314.65314 52.7375 313.7469Q52.7375 312.8875 52.26875 312.3719Q51.8 311.85626 51.01875 311.85626Q50.315624 311.85626 49.909374 312.15314L49.628124 312.3875L48.753124 312.16876Z" fill-rule="nonzero"/><path fill="#757575" d="M224.81354 316.45L219.21979 316.45L219.21979 315.66876L222.17291 312.3875Q222.82916 311.6375 223.07916 311.1844Q223.32916 310.71564 223.32916 310.21564Q223.32916 309.54376 222.92291 309.1219Q222.53229 308.6844 221.84479 308.6844Q221.04791 308.6844 220.59479 309.15314Q220.14166 309.60626 220.14166 310.4344L219.06354 310.4344Q219.06354 309.2469 219.81354 308.52814Q220.57916 307.79376 221.84479 307.79376Q223.04791 307.79376 223.73541 308.41876Q224.42291 309.04376 224.42291 310.09064Q224.42291 311.34064 222.81354 313.09064L220.53229 315.5594L224.81354 315.5594L224.81354 316.45ZM231.57916 312.8094Q231.57916 314.71564 230.92291 315.65314Q230.28229 316.575 228.89166 316.575Q227.53229 316.575 226.87604 315.66876Q226.21979 314.7625 226.18854 312.95L226.18854 311.5125Q226.18854 309.6219 226.82916 308.71564Q227.48541 307.79376 228.87604 307.79376Q230.25104 307.79376 230.90729 308.6844Q231.56354 309.5594 231.57916 311.40314L231.57916 312.8094ZM230.48541 311.325Q230.48541 309.95 230.09479 309.325Q229.71979 308.6844 228.87604 308.6844Q228.04791 308.6844 227.65729 309.325Q227.28229 309.95 227.28229 311.2469L227.28229 312.98126Q227.28229 314.35626 227.67291 315.02814Q228.07916 315.6844 228.89166 315.6844Q229.68854 315.6844 230.07916 315.0594Q230.46979 314.4344 230.48541 313.10626L230.48541 311.325Z" fill-rule="nonzero"/><path fill="#757575" d="M402.7802 316.45L397.18646 316.45L397.18646 315.66876L400.1396 312.3875Q400.79584 311.6375 401.04584 311.1844Q401.29584 310.71564 401.29584 310.21564Q401.29584 309.54376 400.8896 309.1219Q400.49896 308.6844 399.81146 308.6844Q399.0146 308.6844 398.56146 309.15314Q398.10834 309.60626 398.10834 310.4344L397.0302 310.4344Q397.0302 309.2469 397.7802 308.52814Q398.54584 307.79376 399.81146 307.79376Q401.0146 307.79376 401.7021 308.41876Q402.3896 309.04376 402.3896 310.09064Q402.3896 311.34064 400.7802 313.09064L398.49896 315.5594L402.7802 315.5594L402.7802 316.45ZM404.68646 312.16876L405.12396 307.91876L409.49896 307.91876L409.49896 308.91876L406.04584 308.91876L405.7802 311.2469Q406.42084 310.8719 407.2177 310.8719Q408.37396 310.8719 409.06146 311.65314Q409.74896 312.41876 409.74896 313.73126Q409.74896 315.04376 409.0302 315.8094Q408.3271 316.575 407.04584 316.575Q405.92084 316.575 405.2021 315.95Q404.48334 315.3094 404.3896 314.2L405.4052 314.2Q405.5146 314.9344 405.93646 315.3094Q406.35834 315.6844 407.04584 315.6844Q407.79584 315.6844 408.23334 315.16876Q408.67084 314.65314 408.67084 313.7469Q408.67084 312.8875 408.2021 312.3719Q407.73334 311.85626 406.9521 311.85626Q406.24896 311.85626 405.8427 312.15314L405.56146 312.3875L404.68646 312.16876Z" fill-rule="nonzero"/><path fill="#757575" d="M576.73126 311.65314L577.54376 311.65314Q578.325 311.6375 578.7625 311.2469Q579.2 310.85626 579.2 310.1844Q579.2 308.6844 577.7 308.6844Q576.9969 308.6844 576.575 309.09064Q576.16876 309.4969 576.16876 310.15314L575.075 310.15314Q575.075 309.1375 575.8094 308.46564Q576.5594 307.79376 577.7 307.79376Q578.90314 307.79376 579.59064 308.4344Q580.27814 309.075 580.27814 310.21564Q580.27814 310.77814 579.91876 311.29376Q579.5594 311.8094 578.9344 312.075Q579.6375 312.29376 580.0125 312.8094Q580.40314 313.325 580.40314 314.075Q580.40314 315.21564 579.65314 315.90314Q578.90314 316.575 577.7 316.575Q576.5125 316.575 575.7469 315.91876Q574.9969 315.2625 574.9969 314.2L576.09064 314.2Q576.09064 314.8719 576.52814 315.27814Q576.96564 315.6844 577.71564 315.6844Q578.4969 315.6844 578.90314 315.27814Q579.325 314.85626 579.325 314.09064Q579.325 313.35626 578.8719 312.96564Q578.41876 312.5594 577.54376 312.54376L576.73126 312.54376L576.73126 311.65314ZM587.5125 312.8094Q587.5125 314.71564 586.85626 315.65314Q586.21564 316.575 584.825 316.575Q583.46564 316.575 582.8094 315.66876Q582.15314 314.7625 582.1219 312.95L582.1219 311.5125Q582.1219 309.6219 582.7625 308.71564Q583.41876 307.79376 584.8094 307.79376Q586.1844 307.79376 586.84064 308.6844Q587.4969 309.5594 587.5125 311.40314L587.5125 312.8094ZM586.41876 311.325Q586.41876 309.95 586.02814 309.325Q585.65314 308.6844 584.8094 308.6844Q583.98126 308.6844 583.59064 309.325Q583.21564 309.95 583.21564 311.2469L583.21564 312.98126Q583.21564 314.35626 583.60626 315.02814Q584.0125 315.6844 584.825 315.6844Q585.6219 315.6844 586.0125 315.0594Q586.40314 314.4344 586.41876 313.10626L586.41876 311.325Z" fill-rule="nonzero"/><path stroke="#4285f4" stroke-width="4.0" stroke-linecap="butt" d="M137.0 62.416668L149.0 62.416668" fill-rule="nonzero"/><path fill="#757575" d="M162.70312 63.15104L159.10938 63.15104L159.10938 66.916664L157.98438 66.916664L157.98438 58.385414L163.28125 58.385414L163.28125 59.30729L159.10938 59.30729L159.10938 62.229164L162.70312 62.229164L162.70312 63.15104ZM164.53125 63.68229Q164.53125 62.760414 164.89062 62.010414Q165.26562 61.260414 165.92188 60.86979Q166.57812 60.46354 167.40625 60.46354Q168.70312 60.46354 169.5 61.354164Q170.3125 62.24479 170.3125 63.74479L170.3125 63.822914Q170.3125 64.74479 169.95312 65.479164Q169.59375 66.21354 168.9375 66.635414Q168.28125 67.041664 167.42188 67.041664Q166.14062 67.041664 165.32812 66.15104Q164.53125 65.24479 164.53125 63.760414L164.53125 63.68229ZM165.625 63.822914Q165.625 64.86979 166.10938 65.510414Q166.60938 66.15104 167.42188 66.15104Q168.25 66.15104 168.73438 65.510414Q169.21875 64.854164 169.21875 63.68229Q169.21875 62.65104 168.71875 62.010414Q168.23438 61.354164 167.40625 61.354164Q166.60938 61.354164 166.10938 61.99479Q165.625 62.61979 165.625 63.822914ZM173.0 66.916664L171.92188 66.916664L171.92188 57.916664L173.0 57.916664L173.0 66.916664ZM176.0 66.916664L174.92188 66.916664L174.92188 57.916664L176.0 57.916664L176.0 66.916664ZM179.89062 65.322914L181.375 60.572914L182.53125 60.572914L179.98438 67.90104Q179.39062 69.479164 178.10938 69.479164L177.89062 69.46354L177.5 69.385414L177.5 68.510414L177.78125 68.52604Q178.34375 68.52604 178.64062 68.30729Q178.95312 68.08854 179.15625 67.49479L179.39062 66.83854L177.125 60.572914L178.3125 60.572914L179.89062 65.322914Z" fill-rule="nonzero"/><path stroke="#db4437" stroke-width="4.0" stroke-linecap="butt" d="M199.0 62.416668L211.0 62.416668" fill-rule="nonzero"/><path fill="#757575" d="M223.125 63.46354L221.10938 63.46354L221.10938 66.916664L219.98438 66.916664L219.98438 58.385414L222.8125 58.385414Q224.25 58.385414 225.01562 59.041664Q225.79688 59.697914 225.79688 60.947914Q225.79688 61.74479 225.35938 62.33854Q224.9375 62.93229 224.17188 63.229164L226.17188 66.83854L226.17188 66.916664L224.96875 66.916664L223.125 63.46354ZM221.10938 62.541664L222.84375 62.541664Q223.6875 62.541664 224.17188 62.11979Q224.67188 61.68229 224.67188 60.947914Q224.67188 60.166664 224.20312 59.74479Q223.73438 59.322914 222.84375 59.30729L221.10938 59.30729L221.10938 62.541664ZM228.0 66.916664L226.92188 66.916664L226.92188 60.572914L228.0 60.572914L228.0 66.916664ZM226.82812 58.90104Q226.82812 58.635414 226.98438 58.447914Q227.15625 58.260414 227.46875 58.260414Q227.78125 58.260414 227.9375 58.447914Q228.10938 58.635414 228.10938 58.90104Q228.10938 59.15104 227.9375 59.33854Q227.78125 59.510414 227.46875 59.510414Q227.15625 59.510414 226.98438 59.33854Q226.82812 59.15104 226.82812 58.90104ZM229.5625 63.697914Q229.5625 62.21354 230.25 61.33854Q230.9375 60.46354 232.0625 60.46354Q233.21875 60.46354 233.875 61.27604L233.92188 60.572914L234.92188 60.572914L234.92188 66.760414Q234.92188 67.99479 234.1875 68.697914Q233.45312 69.416664 232.23438 69.416664Q231.54688 69.416664 230.89062 69.11979Q230.23438 68.822914 229.89062 68.322914L230.45312 67.666664Q231.14062 68.52604 232.15625 68.52604Q232.9375 68.52604 233.375 68.072914Q233.82812 67.635414 233.82812 66.822914L233.82812 66.27604Q233.17188 67.041664 232.04688 67.041664Q230.9375 67.041664 230.25 66.15104Q229.5625 65.24479 229.5625 63.697914ZM230.65625 63.822914Q230.65625 64.885414 231.09375 65.510414Q231.53125 66.11979 232.32812 66.11979Q233.34375 66.11979 233.82812 65.18229L233.82812 62.291664Q233.32812 61.385414 232.32812 61.385414Q231.54688 61.385414 231.09375 61.99479Q230.65625 62.604164 230.65625 63.822914ZM238.29688 59.041664L238.29688 60.572914L239.46875 60.572914L239.46875 61.416664L238.29688 61.416664L238.29688 65.33854Q238.29688 65.729164 238.45312 65.916664Q238.60938 66.104164 238.98438 66.104164Q239.17188 66.104164 239.5 66.041664L239.5 66.916664Q239.07812 67.041664 238.67188 67.041664Q237.95312 67.041664 237.57812 66.604164Q237.20312 66.15104 237.20312 65.33854L237.20312 61.416664L236.04688 61.416664L236.04688 60.572914L237.20312 60.572914L237.20312 59.041664L238.29688 59.041664ZM240.53125 63.68229Q240.53125 62.760414 240.89062 62.010414Q241.26562 61.260414 241.92188 60.86979Q242.57812 60.46354 243.40625 60.46354Q244.70312 60.46354 245.5 61.354164Q246.3125 62.24479 246.3125 63.74479L246.3125 63.822914Q246.3125 64.74479 245.95312 65.479164Q245.59375 66.21354 244.9375 66.635414Q244.28125 67.041664 243.42188 67.041664Q242.14062 67.041664 241.32812 66.15104Q240.53125 65.24479 240.53125 63.760414L240.53125 63.68229ZM241.625 63.822914Q241.625 64.86979 242.10938 65.510414Q242.60938 66.15104 243.42188 66.15104Q244.25 66.15104 244.73438 65.510414Q245.21875 64.854164 245.21875 63.68229Q245.21875 62.65104 244.71875 62.010414Q244.23438 61.354164 243.40625 61.354164Q242.60938 61.354164 242.10938 61.99479Q241.625 62.61979 241.625 63.822914ZM250.89062 61.541664Q250.64062 61.510414 250.35938 61.510414Q249.28125 61.510414 248.90625 62.416664L248.90625 66.916664L247.82812 66.916664L247.82812 60.572914L248.875 60.572914L248.89062 61.30729Q249.42188 60.46354 250.40625 60.46354Q250.71875 60.46354 250.89062 60.541664L250.89062 61.541664ZM257.17188 63.822914Q257.17188 65.260414 256.51562 66.15104Q255.85938 67.041664 254.71875 67.041664Q253.5625 67.041664 252.90625 66.30729L252.90625 69.354164L251.82812 69.354164L251.82812 60.572914L252.8125 60.572914L252.85938 61.27604Q253.53125 60.46354 254.70312 60.46354Q255.84375 60.46354 256.5 61.322914Q257.17188 62.18229 257.17188 63.71354L257.17188 63.822914ZM256.09375 63.697914Q256.09375 62.61979 255.625 62.010414Q255.17188 61.385414 254.375 61.385414Q253.39062 61.385414 252.90625 62.24479L252.90625 65.27604Q253.39062 66.15104 254.39062 66.15104Q255.17188 66.15104 255.625 65.541664Q256.09375 64.916664 256.09375 63.697914Z" fill-rule="nonzero"/><path stroke="#f4b400" stroke-width="4.0" stroke-linecap="butt" d="M274.0 62.416668L286.0 62.416668" fill-rule="nonzero"/><path fill="#757575" d="M296.4375 58.385414L299.23438 65.33854L302.01562 58.385414L303.48438 58.385414L303.48438 66.916664L302.35938 66.916664L302.35938 63.58854L302.46875 60.010414L299.65625 66.916664L298.79688 66.916664L296.0 60.02604L296.10938 63.58854L296.10938 66.916664L294.98438 66.916664L294.98438 58.385414L296.4375 58.385414ZM304.53125 63.68229Q304.53125 62.760414 304.89062 62.010414Q305.26562 61.260414 305.92188 60.86979Q306.57812 60.46354 307.40625 60.46354Q308.70312 60.46354 309.5 61.354164Q310.3125 62.24479 310.3125 63.74479L310.3125 63.822914Q310.3125 64.74479 309.95312 65.479164Q309.59375 66.21354 308.9375 66.635414Q308.28125 67.041664 307.42188 67.041664Q306.14062 67.041664 305.32812 66.15104Q304.53125 65.24479 304.53125 63.760414L304.53125 63.68229ZM305.625 63.822914Q305.625 64.86979 306.10938 65.510414Q306.60938 66.15104 307.42188 66.15104Q308.25 66.15104 308.73438 65.510414Q309.21875 64.854164 309.21875 63.68229Q309.21875 62.65104 308.71875 62.010414Q308.23438 61.354164 307.40625 61.354164Q306.60938 61.354164 306.10938 61.99479Q305.625 62.61979 305.625 63.822914ZM311.53125 63.68229Q311.53125 62.760414 311.89062 62.010414Q312.26562 61.260414 312.92188 60.86979Q313.57812 60.46354 314.40625 60.46354Q315.70312 60.46354 316.5 61.354164Q317.3125 62.24479 317.3125 63.74479L317.3125 63.822914Q317.3125 64.74479 316.95312 65.479164Q316.59375 66.21354 315.9375 66.635414Q315.28125 67.041664 314.42188 67.041664Q313.14062 67.041664 312.32812 66.15104Q311.53125 65.24479 311.53125 63.760414L311.53125 63.68229ZM312.625 63.822914Q312.625 64.86979 313.10938 65.510414Q313.60938 66.15104 314.42188 66.15104Q315.25 66.15104 315.73438 65.510414Q316.21875 64.854164 316.21875 63.68229Q316.21875 62.65104 315.71875 62.010414Q315.23438 61.354164 314.40625 61.354164Q313.60938 61.354164 313.10938 61.99479Q312.625 62.61979 312.625 63.822914ZM318.5625 63.697914Q318.5625 62.229164 319.25 61.354164Q319.9375 60.46354 321.0625 60.46354Q322.17188 60.46354 322.82812 61.21354L322.82812 57.916664L323.90625 57.916664L323.90625 66.916664L322.90625 66.916664L322.85938 66.229164Q322.20312 67.041664 321.04688 67.041664Q319.95312 67.041664 319.25 66.135414Q318.5625 65.229164 318.5625 63.77604L318.5625 63.697914ZM319.64062 63.822914Q319.64062 64.90104 320.07812 65.510414Q320.53125 66.11979 321.3125 66.11979Q322.34375 66.11979 322.82812 65.18229L322.82812 62.27604Q322.34375 61.385414 321.32812 61.385414Q320.53125 61.385414 320.07812 61.99479Q319.64062 62.604164 319.64062 63.822914ZM327.89062 65.322914L329.375 60.572914L330.53125 60.572914L327.98438 67.90104Q327.39062 69.479164 326.10938 69.479164L325.89062 69.46354L325.5 69.385414L325.5 68.510414L325.78125 68.52604Q326.34375 68.52604 326.64062 68.30729Q326.95312 68.08854 327.15625 67.49479L327.39062 66.83854L325.125 60.572914L326.3125 60.572914L327.89062 65.322914ZM334.35938 66.15104Q334.9375 66.15104 335.375 65.80729Q335.8125 65.447914 335.85938 64.916664L336.89062 64.916664Q336.85938 65.46354 336.5 65.96354Q336.15625 66.447914 335.57812 66.74479Q335.01562 67.041664 334.35938 67.041664Q333.0625 67.041664 332.29688 66.18229Q331.54688 65.30729 331.54688 63.80729L331.54688 63.61979Q331.54688 62.697914 331.875 61.979164Q332.21875 61.260414 332.84375 60.86979Q333.48438 60.46354 334.35938 60.46354Q335.42188 60.46354 336.125 61.104164Q336.84375 61.729164 336.89062 62.760414L335.85938 62.760414Q335.8125 62.135414 335.39062 61.74479Q334.96875 61.354164 334.35938 61.354164Q333.53125 61.354164 333.07812 61.947914Q332.625 62.541664 332.625 63.666664L332.625 63.86979Q332.625 64.96354 333.07812 65.55729Q333.53125 66.15104 334.35938 66.15104ZM341.73438 66.916664Q341.64062 66.729164 341.57812 66.24479Q340.82812 67.041664 339.78125 67.041664Q338.84375 67.041664 338.23438 66.510414Q337.64062 65.979164 337.64062 65.15104Q337.64062 64.166664 338.39062 63.61979Q339.14062 63.072914 340.51562 63.072914L341.5625 63.072914L341.5625 62.572914Q341.5625 62.010414 341.21875 61.68229Q340.89062 61.33854 340.21875 61.33854Q339.64062 61.33854 339.25 61.635414Q338.85938 61.916664 338.85938 62.33854L337.76562 62.33854Q337.76562 61.854164 338.09375 61.416664Q338.4375 60.979164 339.01562 60.729164Q339.59375 60.46354 340.28125 60.46354Q341.39062 60.46354 342.0 61.010414Q342.625 61.55729 342.65625 62.510414L342.65625 65.43229Q342.65625 66.30729 342.875 66.822914L342.875 66.916664L341.73438 66.916664ZM339.9375 66.08854Q340.45312 66.08854 340.90625 65.822914Q341.35938 65.55729 341.5625 65.135414L341.5625 63.83854L340.71875 63.83854Q338.71875 63.83854 338.71875 65.010414Q338.71875 65.510414 339.0625 65.80729Q339.40625 66.08854 339.9375 66.08854ZM345.84375 60.572914L345.875 61.27604Q346.5625 60.46354 347.75 60.46354Q349.07812 60.46354 349.5625 61.479164Q349.875 61.02604 350.375 60.74479Q350.89062 60.46354 351.57812 60.46354Q353.67188 60.46354 353.70312 62.666664L353.70312 66.916664L352.625 66.916664L352.625 62.729164Q352.625 62.05729 352.3125 61.729164Q352.0 61.385414 351.26562 61.385414Q350.65625 61.385414 350.25 61.74479Q349.85938 62.104164 349.79688 62.71354L349.79688 66.916664L348.71875 66.916664L348.71875 62.760414Q348.71875 61.385414 347.35938 61.385414Q346.29688 61.385414 345.90625 62.291664L345.90625 66.916664L344.8125 66.916664L344.8125 60.572914L345.84375 60.572914ZM358.45312 67.041664Q357.15625 67.041664 356.34375 66.197914Q355.54688 65.33854 355.54688 63.916664L355.54688 63.729164Q355.54688 62.77604 355.90625 62.041664Q356.26562 61.291664 356.90625 60.885414Q357.5625 60.46354 358.3125 60.46354Q359.54688 60.46354 360.23438 61.27604Q360.92188 62.08854 360.92188 63.604164L360.92188 64.05729L356.625 64.05729Q356.65625 64.99479 357.17188 65.572914Q357.70312 66.15104 358.51562 66.15104Q359.07812 66.15104 359.46875 65.916664Q359.875 65.68229 360.1875 65.291664L360.84375 65.80729Q360.04688 67.041664 358.45312 67.041664ZM358.3125 61.354164Q357.65625 61.354164 357.20312 61.83854Q356.76562 62.30729 356.67188 63.166664L359.84375 63.166664L359.84375 63.08854Q359.79688 62.260414 359.39062 61.80729Q359.0 61.354164 358.3125 61.354164ZM363.0 66.916664L361.92188 66.916664L361.92188 57.916664L363.0 57.916664L363.0 66.916664Z" fill-rule="nonzero"/><path stroke="#0f9d58" stroke-width="4.0" stroke-linecap="butt" d="M380.0 62.416668L392.0 62.416668" fill-rule="nonzero"/><path fill="#757575" d="M404.51562 65.229164Q404.51562 64.791664 404.17188 64.55729Q403.84375 64.30729 403.01562 64.135414Q402.20312 63.96354 401.71875 63.71354Q401.23438 63.46354 401.0 63.135414Q400.78125 62.791664 400.78125 62.322914Q400.78125 61.541664 401.4375 61.010414Q402.09375 60.46354 403.125 60.46354Q404.20312 60.46354 404.85938 61.02604Q405.53125 61.572914 405.53125 62.43229L404.45312 62.43229Q404.45312 61.99479 404.0625 61.68229Q403.6875 61.354164 403.125 61.354164Q402.53125 61.354164 402.1875 61.61979Q401.85938 61.86979 401.85938 62.27604Q401.85938 62.666664 402.17188 62.86979Q402.48438 63.072914 403.29688 63.260414Q404.10938 63.43229 404.60938 63.68229Q405.10938 63.93229 405.34375 64.291664Q405.59375 64.65104 405.59375 65.15104Q405.59375 66.010414 404.90625 66.52604Q404.23438 67.041664 403.15625 67.041664Q402.39062 67.041664 401.79688 66.77604Q401.21875 66.49479 400.89062 66.010414Q400.5625 65.52604 400.5625 64.96354L401.64062 64.96354Q401.67188 65.510414 402.07812 65.83854Q402.48438 66.15104 403.15625 66.15104Q403.76562 66.15104 404.14062 65.90104Q404.51562 65.65104 404.51562 65.229164ZM412.17188 63.822914Q412.17188 65.260414 411.51562 66.15104Q410.85938 67.041664 409.71875 67.041664Q408.5625 67.041664 407.90625 66.30729L407.90625 69.354164L406.82812 69.354164L406.82812 60.572914L407.8125 60.572914L407.85938 61.27604Q408.53125 60.46354 409.70312 60.46354Q410.84375 60.46354 411.5 61.322914Q412.17188 62.18229 412.17188 63.71354L412.17188 63.822914ZM411.09375 63.697914Q411.09375 62.61979 410.625 62.010414Q410.17188 61.385414 409.375 61.385414Q408.39062 61.385414 407.90625 62.24479L407.90625 65.27604Q408.39062 66.15104 409.39062 66.15104Q410.17188 66.15104 410.625 65.541664Q411.09375 64.916664 411.09375 63.697914ZM417.51562 65.229164Q417.51562 64.791664 417.17188 64.55729Q416.84375 64.30729 416.01562 64.135414Q415.20312 63.96354 414.71875 63.71354Q414.23438 63.46354 414.0 63.135414Q413.78125 62.791664 413.78125 62.322914Q413.78125 61.541664 414.4375 61.010414Q415.09375 60.46354 416.125 60.46354Q417.20312 60.46354 417.85938 61.02604Q418.53125 61.572914 418.53125 62.43229L417.45312 62.43229Q417.45312 61.99479 417.0625 61.68229Q416.6875 61.354164 416.125 61.354164Q415.53125 61.354164 415.1875 61.61979Q414.85938 61.86979 414.85938 62.27604Q414.85938 62.666664 415.17188 62.86979Q415.48438 63.072914 416.29688 63.260414Q417.10938 63.43229 417.60938 63.68229Q418.10938 63.93229 418.34375 64.291664Q418.59375 64.65104 418.59375 65.15104Q418.59375 66.010414 417.90625 66.52604Q417.23438 67.041664 416.15625 67.041664Q415.39062 67.041664 414.79688 66.77604Q414.21875 66.49479 413.89062 66.010414Q413.5625 65.52604 413.5625 64.96354L414.64062 64.96354Q414.67188 65.510414 415.07812 65.83854Q415.48438 66.15104 416.15625 66.15104Q416.76562 66.15104 417.14062 65.90104Q417.51562 65.65104 417.51562 65.229164ZM422.35938 66.15104Q422.9375 66.15104 423.375 65.80729Q423.8125 65.447914 423.85938 64.916664L424.89062 64.916664Q424.85938 65.46354 424.5 65.96354Q424.15625 66.447914 423.57812 66.74479Q423.01562 67.041664 422.35938 67.041664Q421.0625 67.041664 420.29688 66.18229Q419.54688 65.30729 419.54688 63.80729L419.54688 63.61979Q419.54688 62.697914 419.875 61.979164Q420.21875 61.260414 420.84375 60.86979Q421.48438 60.46354 422.35938 60.46354Q423.42188 60.46354 424.125 61.104164Q424.84375 61.729164 424.89062 62.760414L423.85938 62.760414Q423.8125 62.135414 423.39062 61.74479Q422.96875 61.354164 422.35938 61.354164Q421.53125 61.354164 421.07812 61.947914Q420.625 62.541664 420.625 63.666664L420.625 63.86979Q420.625 64.96354 421.07812 65.55729Q421.53125 66.15104 422.35938 66.15104ZM430.39062 67.80729L425.03125 67.80729L425.03125 66.916664L430.39062 66.916664L430.39062 67.80729ZM430.5625 63.697914Q430.5625 62.197914 431.23438 61.33854Q431.92188 60.46354 433.07812 60.46354Q434.20312 60.46354 434.85938 61.21354L434.90625 60.572914L435.90625 60.572914L435.90625 69.354164L434.8125 69.354164L434.8125 66.322914Q434.15625 67.041664 433.07812 67.041664Q431.92188 67.041664 431.23438 66.15104Q430.5625 65.24479 430.5625 63.77604L430.5625 63.697914ZM431.64062 63.822914Q431.64062 64.90104 432.09375 65.52604Q432.5625 66.15104 433.34375 66.15104Q434.3125 66.15104 434.8125 65.291664L434.8125 62.18229Q434.29688 61.354164 433.35938 61.354164Q432.5625 61.354164 432.09375 61.979164Q431.64062 62.604164 431.64062 63.822914ZM441.73438 66.291664Q441.10938 67.041664 439.875 67.041664Q438.85938 67.041664 438.32812 66.447914Q437.79688 65.854164 437.79688 64.697914L437.79688 60.572914L438.875 60.572914L438.875 64.666664Q438.875 66.11979 440.04688 66.11979Q441.29688 66.11979 441.70312 65.18229L441.70312 60.572914L442.79688 60.572914L442.79688 66.916664L441.76562 66.916664L441.73438 66.291664ZM447.45312 67.041664Q446.15625 67.041664 445.34375 66.197914Q444.54688 65.33854 444.54688 63.916664L444.54688 63.729164Q444.54688 62.77604 444.90625 62.041664Q445.26562 61.291664 445.90625 60.885414Q446.5625 60.46354 447.3125 60.46354Q448.54688 60.46354 449.23438 61.27604Q449.92188 62.08854 449.92188 63.604164L449.92188 64.05729L445.625 64.05729Q445.65625 64.99479 446.17188 65.572914Q446.70312 66.15104 447.51562 66.15104Q448.07812 66.15104 448.46875 65.916664Q448.875 65.68229 449.1875 65.291664L449.84375 65.80729Q449.04688 67.041664 447.45312 67.041664ZM447.3125 61.354164Q446.65625 61.354164 446.20312 61.83854Q445.76562 62.30729 445.67188 63.166664L448.84375 63.166664L448.84375 63.08854Q448.79688 62.260414 448.39062 61.80729Q448.0 61.354164 447.3125 61.354164ZM454.73438 66.291664Q454.10938 67.041664 452.875 67.041664Q451.85938 67.041664 451.32812 66.447914Q450.79688 65.854164 450.79688 64.697914L450.79688 60.572914L451.875 60.572914L451.875 64.666664Q451.875 66.11979 453.04688 66.11979Q454.29688 66.11979 454.70312 65.18229L454.70312 60.572914L455.79688 60.572914L455.79688 66.916664L454.76562 66.916664L454.73438 66.291664ZM460.45312 67.041664Q459.15625 67.041664 458.34375 66.197914Q457.54688 65.33854 457.54688 63.916664L457.54688 63.729164Q457.54688 62.77604 457.90625 62.041664Q458.26562 61.291664 458.90625 60.885414Q459.5625 60.46354 460.3125 60.46354Q461.54688 60.46354 462.23438 61.27604Q462.92188 62.08854 462.92188 63.604164L462.92188 64.05729L458.625 64.05729Q458.65625 64.99479 459.17188 65.572914Q459.70312 66.15104 460.51562 66.15104Q461.07812 66.15104 461.46875 65.916664Q461.875 65.68229 462.1875 65.291664L462.84375 65.80729Q462.04688 67.041664 460.45312 67.041664ZM460.3125 61.354164Q459.65625 61.354164 459.20312 61.83854Q458.76562 62.30729 458.67188 63.166664L461.84375 63.166664L461.84375 63.08854Q461.79688 62.260414 461.39062 61.80729Q461.0 61.354164 460.3125 61.354164Z" fill-rule="nonzero"/><path fill="#757575" d="M28.2375 30.971874L22.08125 30.971874L22.08125 36.01875L29.2375 36.01875L29.2375 37.55L20.20625 37.55L20.20625 23.33125L29.14375 23.33125L29.14375 24.878124L22.08125 24.878124L22.08125 29.440624L28.2375 29.440624L28.2375 30.971874ZM32.878124 37.55L31.08125 37.55L31.08125 22.55L32.878124 22.55L32.878124 37.55ZM40.3 37.753124Q38.159374 37.753124 36.8 36.346874Q35.45625 34.925 35.45625 32.565624L35.45625 32.221874Q35.45625 30.659374 36.05 29.425Q36.659374 28.190624 37.7375 27.4875Q38.815624 26.784374 40.08125 26.784374Q42.14375 26.784374 43.284374 28.14375Q44.425 29.503124 44.425 32.034374L44.425 32.784374L37.26875 32.784374Q37.3 34.346874 38.175 35.315624Q39.05 36.26875 40.39375 36.26875Q41.3625 36.26875 42.01875 35.878124Q42.690624 35.4875 43.190624 34.846874L44.284374 35.70625Q42.95625 37.753124 40.3 37.753124ZM40.08125 28.26875Q38.9875 28.26875 38.2375 29.065624Q37.503124 29.8625 37.33125 31.3L42.6125 31.3L42.6125 31.159374Q42.534374 29.784374 41.8625 29.034374Q41.20625 28.26875 40.08125 28.26875ZM48.6125 26.9875L48.659374 28.159374Q49.83125 26.784374 51.8 26.784374Q54.01875 26.784374 54.815624 28.4875Q55.346874 27.721874 56.190624 27.253124Q57.034374 26.784374 58.190624 26.784374Q61.659374 26.784374 61.721874 30.471874L61.721874 37.55L59.909374 37.55L59.909374 30.58125Q59.909374 29.440624 59.39375 28.878124Q58.878124 28.315624 57.659374 28.315624Q56.659374 28.315624 55.9875 28.925Q55.33125 29.51875 55.221874 30.534374L55.221874 37.55L53.409374 37.55L53.409374 30.628124Q53.409374 28.315624 51.14375 28.315624Q49.3625 28.315624 48.721874 29.83125L48.721874 37.55L46.909374 37.55L46.909374 26.9875L48.6125 26.9875ZM69.3 37.753124Q67.15938 37.753124 65.8 36.346874Q64.45625 34.925 64.45625 32.565624L64.45625 32.221874Q64.45625 30.659374 65.05 29.425Q65.65938 28.190624 66.7375 27.4875Q67.81563 26.784374 69.08125 26.784374Q71.14375 26.784374 72.28438 28.14375Q73.425 29.503124 73.425 32.034374L73.425 32.784374L66.26875 32.784374Q66.3 34.346874 67.175 35.315624Q68.05 36.26875 69.39375 36.26875Q70.3625 36.26875 71.01875 35.878124Q71.69063 35.4875 72.19063 34.846874L73.28438 35.70625Q71.95625 37.753124 69.3 37.753124ZM69.08125 28.26875Q67.9875 28.26875 67.2375 29.065624Q66.50313 29.8625 66.33125 31.3L71.6125 31.3L71.6125 31.159374Q71.53438 29.784374 70.8625 29.034374Q70.20625 28.26875 69.08125 28.26875ZM77.62813 26.9875L77.69063 28.315624Q78.89375 26.784374 80.84688 26.784374Q84.20625 26.784374 84.22188 30.565624L84.22188 37.55L82.425 37.55L82.425 30.55Q82.40938 29.409374 81.89375 28.8625Q81.39375 28.315624 80.3 28.315624Q79.425 28.315624 78.75313 28.784374Q78.09688 29.253124 77.72188 30.01875L77.72188 37.55L75.925 37.55L75.925 26.9875L77.62813 26.9875ZM89.3625 24.425L89.3625 26.9875L91.34688 26.9875L91.34688 28.378124L89.3625 28.378124L89.3625 34.925Q89.3625 35.565624 89.62813 35.89375Q89.89375 36.20625 90.53438 36.20625Q90.84688 36.20625 91.39375 36.08125L91.39375 37.55Q90.675 37.753124 90.00313 37.753124Q88.8 37.753124 88.175 37.01875Q87.56563 36.284374 87.56563 34.925L87.56563 28.378124L85.64375 28.378124L85.64375 26.9875L87.56563 26.9875L87.56563 24.425L89.3625 24.425ZM103.39375 31.20625Q100.97188 30.51875 99.87813 29.51875Q98.78438 28.503124 98.78438 27.01875Q98.78438 25.33125 100.12813 24.2375Q101.47188 23.128124 103.6125 23.128124Q105.08125 23.128124 106.22188 23.70625Q107.37813 24.26875 108.00313 25.26875Q108.62813 26.253124 108.62813 27.440624L106.75313 27.440624Q106.75313 26.159374 105.925 25.425Q105.1125 24.675 103.6125 24.675Q102.22188 24.675 101.44063 25.284374Q100.675 25.89375 100.675 26.9875Q100.675 27.846874 101.40938 28.45625Q102.14375 29.05 103.90938 29.55Q105.69063 30.05 106.69063 30.659374Q107.69063 31.253124 108.175 32.05Q108.65938 32.846874 108.65938 33.940624Q108.65938 35.659374 107.31563 36.70625Q105.97188 37.753124 103.70625 37.753124Q102.25313 37.753124 100.97188 37.190624Q99.70625 36.628124 99.01875 35.659374Q98.33125 34.675 98.33125 33.425L100.22188 33.425Q100.22188 34.721874 101.175 35.471874Q102.12813 36.20625 103.70625 36.20625Q105.19063 36.20625 105.9875 35.6125Q106.78438 35.003124 106.78438 33.95625Q106.78438 32.909374 106.05 32.346874Q105.31563 31.76875 103.39375 31.20625ZM112.87813 37.55L111.08125 37.55L111.08125 26.9875L112.87813 26.9875L112.87813 37.55ZM110.925 24.175Q110.925 23.7375 111.19063 23.440624Q111.47188 23.128124 111.9875 23.128124Q112.51875 23.128124 112.78438 23.440624Q113.06563 23.7375 113.06563 24.175Q113.06563 24.6125 112.78438 24.909374Q112.51875 25.20625 111.9875 25.20625Q111.47188 25.20625 111.19063 24.909374Q110.925 24.6125 110.925 24.175ZM117.6125 36.08125L123.8 36.08125L123.8 37.55L115.40938 37.55L115.40938 36.221874L121.2375 28.471874L115.50313 28.471874L115.50313 26.9875L123.50313 26.9875L123.50313 28.26875L117.6125 36.08125ZM130.3 37.753124Q128.15938 37.753124 126.8 36.346874Q125.45625 34.925 125.45625 32.565624L125.45625 32.221874Q125.45625 30.659374 126.05 29.425Q126.65938 28.190624 127.7375 27.4875Q128.81563 26.784374 130.08125 26.784374Q132.14375 26.784374 133.28438 28.14375Q134.425 29.503124 134.425 32.034374L134.425 32.784374L127.26875 32.784374Q127.3 34.346874 128.175 35.315624Q129.05 36.26875 130.39375 36.26875Q131.3625 36.26875 132.01875 35.878124Q132.69063 35.4875 133.19063 34.846874L134.28438 35.70625Q132.95625 37.753124 130.3 37.753124ZM130.08125 28.26875Q128.9875 28.26875 128.2375 29.065624Q127.50313 29.8625 127.33125 31.3L132.6125 31.3L132.6125 31.159374Q132.53438 29.784374 131.8625 29.034374Q131.20625 28.26875 130.08125 28.26875ZM150.3625 27.034374Q150.3625 28.1125 149.8 28.940624Q149.2375 29.76875 148.26875 30.2375Q149.39375 30.70625 150.03438 31.628124Q150.69063 32.55 150.69063 33.70625Q150.69063 35.55 149.44063 36.659374Q148.19063 37.753124 146.15938 37.753124Q144.1125 37.753124 142.87813 36.659374Q141.64375 35.55 141.64375 33.70625Q141.64375 32.565624 142.26875 31.64375Q142.90938 30.70625 144.01875 30.221874Q143.06563 29.753124 142.51875 28.925Q141.97188 28.096874 141.97188 27.034374Q141.97188 25.2375 143.12813 24.190624Q144.28438 23.128124 146.15938 23.128124Q148.03438 23.128124 149.19063 24.190624Q150.3625 25.2375 150.3625 27.034374ZM148.87813 33.675Q148.87813 32.4875 148.1125 31.7375Q147.3625 30.971874 146.14375 30.971874Q144.925 30.971874 144.19063 31.721874Q143.45625 32.45625 143.45625 33.675Q143.45625 34.878124 144.175 35.58125Q144.89375 36.26875 146.15938 36.26875Q147.44063 36.26875 148.15938 35.58125Q148.87813 34.878124 148.87813 33.675ZM146.15938 24.6125Q145.09688 24.6125 144.44063 25.284374Q143.78438 25.940624 143.78438 27.065624Q143.78438 28.159374 144.425 28.83125Q145.08125 29.4875 146.15938 29.4875Q147.25313 29.4875 147.89375 28.83125Q148.55 28.159374 148.55 27.08125Q148.55 25.9875 147.87813 25.3Q147.20625 24.6125 146.15938 24.6125Z" fill-rule="nonzero"/></svg>