<svg version="1.1" viewBox="0.0 0.0 600.0 371.0" fill="none" stroke="none" stroke-linecap="square" stroke-miterlimit="10" width="600" height="371" xmlns:xlink="http://www.w3.org/1999/xlink" xmlns="http://www.w3.org/2000/svg"><path fill="#ffffff" d="M0 0L600.0 0L600.0 371.0L0 371.0L0 0Z" fill-rule="nonzero"/><path stroke="#333333" stroke-width="1.0" stroke-linecap="butt" d="M54.5 298.5L581.5 298.5" fill-rule="nonzero"/><path stroke="#cccccc" stroke-width="1.0" stroke-linecap="butt" d="M54.5 228.5L581.5 228.5" fill-rule="nonzero"/><path stroke="#cccccc" stroke-width="1.0" stroke-linecap="butt" d="M54.5 159.5L581.5 159.5" fill-rule="nonzero"/><path stroke="#cccccc" stroke-width="1.0" stroke-linecap="butt" d="M54.5 89.5L581.5 89.5" fill-rule="nonzero"/><clipPath id="id_0"><path d="M54.55 89.78333L581.45 89.78333L581.45 298.45L54.55 298.45L54.55 89.78333Z" clip-rule="nonzero"/></clipPath><path stroke="#000000" stroke-width="0.0" stroke-linecap="butt" stroke-opacity="0.0" clip-path="url(#id_0)" d="M86.0 298.0L77.0 298.0L77.0 250.0C77.0 248.89543 77.89543 248.0 79.0 248.0L84.0 248.0C85.10457 248.0 86.0 248.89543 86.0 250.0Z" fill-rule="nonzero"/><path fill="#4285f4" clip-path="url(#id_0)" d="M86.0 298.0L77.0 298.0L77.0 250.0C77.0 248.89543 77.89543 248.0 79.0 248.0L84.0 248.0C85.10457 248.0 86.0 248.89543 86.0 250.0Z" fill-rule="nonzero"/><path stroke="#000000" stroke-width="0.0" stroke-linecap="butt" stroke-opacity="0.0" clip-path="url(#id_0)" d="M149.0 298.0L140.0 298.0L140.0 247.0C140.0 245.89543 140.89543 245.0 142.0 245.0L147.0 245.0C148.10457 245.0 149.0 245.89543 149.0 247.0Z" fill-rule="nonzero"/><path fill="#4285f4" clip-path="url(#id_0)" d="M149.0 298.0L140.0 298.0L140.0 247.0C140.0 245.89543 140.89543 245.0 142.0 245.0L147.0 245.0C148.10457 245.0 149.0 245.89543 149.0 247.0Z" fill-rule="nonzero"/><path stroke="#000000" stroke-width="0.0" stroke-linecap="butt" stroke-opacity="0.0" clip-path="url(#id_0)" d="M212.0 298.0L203.0 298.0L203.0 238.0C203.0 236.89543 203.89543 236.0 205.0 236.0L210.0 236.0C211.10457 236.0 212.0 236.89543 212.0 238.0Z" fill-rule="nonzero"/><path fill="#4285f4" clip-path="url(#id_0)" d="M212.0 298.0L203.0 298.0L203.0 238.0C203.0 236.89543 203.89543 236.0 205.0 236.0L210.0 236.0C211.10457 236.0 212.0 236.89543 212.0 238.0Z" fill-rule="nonzero"/><path stroke="#000000" stroke-width="0.0" stroke-linecap="butt" stroke-opacity="0.0" clip-path="url(#id_0)" d="M275.0 298.0L266.0 298.0L266.0 245.0C266.0 243.89543 266.89542 243.0 268.0 243.0L273.0 243.0C274.10458 243.0 275.0 243.89543 275.0 245.0Z" fill-rule="nonzero"/><path fill="#4285f4" clip-path="url(#id_0)" d="M275.0 298.0L266.0 298.0L266.0 245.0C266.0 243.89543 266.89542 243.0 268.0 243.0L273.0 243.0C274.10458 243.0 275.0 243.89543 275.0 245.0Z" fill-rule="nonzero"/><path stroke="#000000" stroke-width="0.0" stroke-linecap="butt" stroke-opacity="0.0" clip-path="url(#id_0)" d="M339.0 298.0L330.0 298.0L330.0 236.0C330.0 234.89543 330.89542 234.0 332.0 234.0L337.0 234.0C338.10458 234.0 339.0 234.89543 339.0 236.0Z" fill-rule="nonzero"/><path fill="#4285f4" clip-path="url(#id_0)" d="M339.0 298.0L330.0 298.0L330.0 236.0C330.0 234.89543 330.89542 234.0 332.0 234.0L337.0 234.0C338.10458 234.0 339.0 234.89543 339.0 236.0Z" fill-rule="nonzero"/><path stroke="#000000" stroke-width="0.0" stroke-linecap="butt" stroke-opacity="0.0" clip-path="url(#id_0)" d="M402.0 298.0L393.0 298.0L393.0 239.0C393.0 237.89543 393.89542 237.0 395.0 237.0L400.0 237.0C401.10458 237.0 402.0 237.89543 402.0 239.0Z" fill-rule="nonzero"/><path fill="#4285f4" clip-path="url(#id_0)" d="M402.0 298.0L393.0 298.0L393.0 239.0C393.0 237.89543 393.89542 237.0 395.0 237.0L400.0 237.0C401.10458 237.0 402.0 237.89543 402.0 239.0Z" fill-rule="nonzero"/><path stroke="#000000" stroke-width="0.0" stroke-linecap="butt" stroke-opacity="0.0" clip-path="url(#id_0)" d="M465.0 298.0L456.0 298.0L456.0 234.0C456.0 232.89543 456.89542 232.0 458.0 232.0L463.0 232.0C464.10458 232.0 465.0 232.89543 465.0 234.0Z" fill-rule="nonzero"/><path fill="#4285f4" clip-path="url(#id_0)" d="M465.0 298.0L456.0 298.0L456.0 234.0C456.0 232.89543 456.89542 232.0 458.0 232.0L463.0 232.0C464.10458 232.0 465.0 232.89543 465.0 234.0Z" fill-rule="nonzero"/><path stroke="#000000" stroke-width="0.0" stroke-linecap="butt" stroke-opacity="0.0" clip-path="url(#id_0)" d="M528.0 298.0L519.0 298.0L519.0 239.0C519.0 237.89543 519.89545 237.0 521.0 237.0L526.0 237.0C527.10455 237.0 528.0 237.89543 528.0 239.0Z" fill-rule="nonzero"/><path fill="#4285f4" clip-path="url(#id_0)" d="M528.0 298.0L519.0 298.0L519.0 239.0C519.0 237.89543 519.89545 237.0 521.0 237.0L526.0 237.0C527.10455 237.0 528.0 237.89543 528.0 239.0Z" fill-rule="nonzero"/><path stroke="#000000" stroke-width="0.0" stroke-linecap="butt" stroke-opacity="0.0" clip-path="url(#id_0)" d="M96.0 298.0L87.0 298.0L87.0 244.0C87.0 242.89543 87.89543 242.0 89.0 242.0L94.0 242.0C95.10457 242.0 96.0 242.89543 96.0 244.0Z" fill-rule="nonzero"/><path fill="#db4437" clip-path="url(#id_0)" d="M96.0 298.0L87.0 298.0L87.0 244.0C87.0 242.89543 87.89543 242.0 89.0 242.0L94.0 242.0C95.10457 242.0 96.0 242.89543 96.0 244.0Z" fill-rule="nonzero"/><path stroke="#000000" stroke-width="0.0" stroke-linecap="butt" stroke-opacity="0.0" clip-path="url(#id_0)" d="M159.0 298.0L150.0 298.0L150.0 248.0C150.0 246.89543 150.89543 246.0 152.0 246.0L157.0 246.0C158.10457 246.0 159.0 246.89543 159.0 248.0Z" fill-rule="nonzero"/><path fill="#db4437" clip-path="url(#id_0)" d="M159.0 298.0L150.0 298.0L150.0 248.0C150.0 246.89543 150.89543 246.0 152.0 246.0L157.0 246.0C158.10457 246.0 159.0 246.89543 159.0 248.0Z" fill-rule="nonzero"/><path stroke="#000000" stroke-width="0.0" stroke-linecap="butt" stroke-opacity="0.0" clip-path="url(#id_0)" d="M222.0 298.0L213.0 298.0L213.0 238.0C213.0 236.89543 213.89543 236.0 215.0 236.0L220.0 236.0C221.10457 236.0 222.0 236.89543 222.0 238.0Z" fill-rule="nonzero"/><path fill="#db4437" clip-path="url(#id_0)" d="M222.0 298.0L213.0 298.0L213.0 238.0C213.0 236.89543 213.89543 236.0 215.0 236.0L220.0 236.0C221.10457 236.0 222.0 236.89543 222.0 238.0Z" fill-rule="nonzero"/><path stroke="#000000" stroke-width="0.0" stroke-linecap="butt" stroke-opacity="0.0" clip-path="url(#id_0)" d="M285.0 298.0L276.0 298.0L276.0 244.0C276.0 242.89543 276.89542 242.0 278.0 242.0L283.0 242.0C284.10458 242.0 285.0 242.89543 285.0 244.0Z" fill-rule="nonzero"/><path fill="#db4437" clip-path="url(#id_0)" d="M285.0 298.0L276.0 298.0L276.0 244.0C276.0 242.89543 276.89542 242.0 278.0 242.0L283.0 242.0C284.10458 242.0 285.0 242.89543 285.0 244.0Z" fill-rule="nonzero"/><path stroke="#000000" stroke-width="0.0" stroke-linecap="butt" stroke-opacity="0.0" clip-path="url(#id_0)" d="M349.0 298.0L340.0 298.0L340.0 235.0C340.0 233.89543 340.89542 233.0 342.0 233.0L347.0 233.0C348.10458 233.0 349.0 233.89543 349.0 235.0Z" fill-rule="nonzero"/><path fill="#db4437" clip-path="url(#id_0)" d="M349.0 298.0L340.0 298.0L340.0 235.0C340.0 233.89543 340.89542 233.0 342.0 233.0L347.0 233.0C348.10458 233.0 349.0 233.89543 349.0 235.0Z" fill-rule="nonzero"/><path stroke="#000000" stroke-width="0.0" stroke-linecap="butt" stroke-opacity="0.0" clip-path="url(#id_0)" d="M412.0 298.0L403.0 298.0L403.0 237.0C403.0 235.89543 403.89542 235.0 405.0 235.0L410.0 235.0C411.10458 235.0 412.0 235.89543 412.0 237.0Z" fill-rule="nonzero"/><path fill="#db4437" clip-path="url(#id_0)" d="M412.0 298.0L403.0 298.0L403.0 237.0C403.0 235.89543 403.89542 235.0 405.0 235.0L410.0 235.0C411.10458 235.0 412.0 235.89543 412.0 237.0Z" fill-rule="nonzero"/><path stroke="#000000" stroke-width="0.0" stroke-linecap="butt" stroke-opacity="0.0" clip-path="url(#id_0)" d="M475.0 298.0L466.0 298.0L466.0 232.0C466.0 230.89543 466.89542 230.0 468.0 230.0L473.0 230.0C474.10458 230.0 475.0 230.89543 475.0 232.0Z" fill-rule="nonzero"/><path fill="#db4437" clip-path="url(#id_0)" d="M475.0 298.0L466.0 298.0L466.0 232.0C466.0 230.89543 466.89542 230.0 468.0 230.0L473.0 230.0C474.10458 230.0 475.0 230.89543 475.0 232.0Z" fill-rule="nonzero"/><path stroke="#000000" stroke-width="0.0" stroke-linecap="butt" stroke-opacity="0.0" clip-path="url(#id_0)" d="M538.0 298.0L529.0 298.0L529.0 229.0C529.0 227.89543 529.89545 227.0 531.0 227.0L536.0 227.0C537.10455 227.0 538.0 227.89543 538.0 229.0Z" fill-rule="nonzero"/><path fill="#db4437" clip-path="url(#id_0)" d="M538.0 298.0L529.0 298.0L529.0 229.0C529.0 227.89543 529.89545 227.0 531.0 227.0L536.0 227.0C537.10455 227.0 538.0 227.89543 538.0 229.0Z" fill-rule="nonzero"/><path stroke="#000000" stroke-width="0.0" stroke-linecap="butt" stroke-opacity="0.0" clip-path="url(#id_0)" d="M106.0 298.0L97.0 298.0L97.0 282.0C97.0 280.89542 97.89543 280.0 99.0 280.0L104.0 280.0C105.10457 280.0 106.0 280.89542 106.0 282.0Z" fill-rule="nonzero"/><path fill="#f4b400" clip-path="url(#id_0)" d="M106.0 298.0L97.0 298.0L97.0 282.0C97.0 280.89542 97.89543 280.0 99.0 280.0L104.0 280.0C105.10457 280.0 106.0 280.89542 106.0 282.0Z" fill-rule="nonzero"/><path stroke="#000000" stroke-width="0.0" stroke-linecap="butt" stroke-opacity="0.0" clip-path="url(#id_0)" d="M169.0 298.0L160.0 298.0L160.0 280.0C160.0 278.89542 160.89543 278.0 162.0 278.0L167.0 278.0C168.10457 278.0 169.0 278.89542 169.0 280.0Z" fill-rule="nonzero"/><path fill="#f4b400" clip-path="url(#id_0)" d="M169.0 298.0L160.0 298.0L160.0 280.0C160.0 278.89542 160.89543 278.0 162.0 278.0L167.0 278.0C168.10457 278.0 169.0 278.89542 169.0 280.0Z" fill-rule="nonzero"/><path stroke="#000000" stroke-width="0.0" stroke-linecap="butt" stroke-opacity="0.0" clip-path="url(#id_0)" d="M232.0 298.0L223.0 298.0L223.0 280.0C223.0 278.89542 223.89543 278.0 225.0 278.0L230.0 278.0C231.10457 278.0 232.0 278.89542 232.0 280.0Z" fill-rule="nonzero"/><path fill="#f4b400" clip-path="url(#id_0)" d="M232.0 298.0L223.0 298.0L223.0 280.0C223.0 278.89542 223.89543 278.0 225.0 278.0L230.0 278.0C231.10457 278.0 232.0 278.89542 232.0 280.0Z" fill-rule="nonzero"/><path stroke="#000000" stroke-width="0.0" stroke-linecap="butt" stroke-opacity="0.0" clip-path="url(#id_0)" d="M295.0 298.0L286.0 298.0L286.0 281.0C286.0 279.89542 286.89542 279.0 288.0 279.0L293.0 279.0C294.10458 279.0 295.0 279.89542 295.0 281.0Z" fill-rule="nonzero"/><path fill="#f4b400" clip-path="url(#id_0)" d="M295.0 298.0L286.0 298.0L286.0 281.0C286.0 279.89542 286.89542 279.0 288.0 279.0L293.0 279.0C294.10458 279.0 295.0 279.89542 295.0 281.0Z" fill-rule="nonzero"/><path stroke="#000000" stroke-width="0.0" stroke-linecap="butt" stroke-opacity="0.0" clip-path="url(#id_0)" d="M359.0 298.0L350.0 298.0L350.0 167.0C350.0 165.89543 350.89542 165.0 352.0 165.0L357.0 165.0C358.10458 165.0 359.0 165.89543 359.0 167.0Z" fill-rule="nonzero"/><path fill="#f4b400" clip-path="url(#id_0)" d="M359.0 298.0L350.0 298.0L350.0 167.0C350.0 165.89543 350.89542 165.0 352.0 165.0L357.0 165.0C358.10458 165.0 359.0 165.89543 359.0 167.0Z" fill-rule="nonzero"/><path stroke="#000000" stroke-width="0.0" stroke-linecap="butt" stroke-opacity="0.0" clip-path="url(#id_0)" d="M422.0 298.0L413.0 298.0L413.0 158.0C413.0 156.89543 413.89542 156.0 415.0 156.0L420.0 156.0C421.10458 156.0 422.0 156.89543 422.0 158.0Z" fill-rule="nonzero"/><path fill="#f4b400" clip-path="url(#id_0)" d="M422.0 298.0L413.0 298.0L413.0 158.0C413.0 156.89543 413.89542 156.0 415.0 156.0L420.0 156.0C421.10458 156.0 422.0 156.89543 422.0 158.0Z" fill-rule="nonzero"/><path stroke="#000000" stroke-width="0.0" stroke-linecap="butt" stroke-opacity="0.0" clip-path="url(#id_0)" d="M485.0 298.0L476.0 298.0L476.0 110.0C476.0 108.89543 476.89542 108.0 478.0 108.0L483.0 108.0C484.10458 108.0 485.0 108.89543 485.0 110.0Z" fill-rule="nonzero"/><path fill="#f4b400" clip-path="url(#id_0)" d="M485.0 298.0L476.0 298.0L476.0 110.0C476.0 108.89543 476.89542 108.0 478.0 108.0L483.0 108.0C484.10458 108.0 485.0 108.89543 485.0 110.0Z" fill-rule="nonzero"/><path stroke="#000000" stroke-width="0.0" stroke-linecap="butt" stroke-opacity="0.0" clip-path="url(#id_0)" d="M548.0 298.0L539.0 298.0L539.0 92.0C539.0 90.89543 539.89545 90.0 541.0 90.0L546.0 90.0C547.10455 90.0 548.0 90.89543 548.0 92.0Z" fill-rule="nonzero"/><path fill="#f4b400" clip-path="url(#id_0)" d="M548.0 298.0L539.0 298.0L539.0 92.0C539.0 90.89543 539.89545 90.0 541.0 90.0L546.0 90.0C547.10455 90.0 548.0 90.89543 548.0 92.0Z" fill-rule="nonzero"/><path stroke="#000000" stroke-width="0.0" stroke-linecap="butt" stroke-opacity="0.0" clip-path="url(#id_0)" d="M116.0 298.0L107.0 298.0L107.0 286.0C107.0 284.89542 107.89543 284.0 109.0 284.0L114.0 284.0C115.10457 284.0 116.0 284.89542 116.0 286.0Z" fill-rule="nonzero"/><path fill="#0f9d58" clip-path="url(#id_0)" d="M116.0 298.0L107.0 298.0L107.0 286.0C107.0 284.89542 107.89543 284.0 109.0 284.0L114.0 284.0C115.10457 284.0 116.0 284.89542 116.0 286.0Z" fill-rule="nonzero"/><path stroke="#000000" stroke-width="0.0" stroke-linecap="butt" stroke-opacity="0.0" clip-path="url(#id_0)" d="M179.0 298.0L170.0 298.0L170.0 286.0C170.0 284.89542 170.89543 284.0 172.0 284.0L177.0 284.0C178.10457 284.0 179.0 284.89542 179.0 286.0Z" fill-rule="nonzero"/><path fill="#0f9d58" clip-path="url(#id_0)" d="M179.0 298.0L170.0 298.0L170.0 286.0C170.0 284.89542 170.89543 284.0 172.0 284.0L177.0 284.0C178.10457 284.0 179.0 284.89542 179.0 286.0Z" fill-rule="nonzero"/><path stroke="#000000" stroke-width="0.0" stroke-linecap="butt" stroke-opacity="0.0" clip-path="url(#id_0)" d="M242.0 298.0L233.0 298.0L233.0 269.0C233.0 267.89542 233.89543 267.0 235.0 267.0L240.0 267.0C241.10457 267.0 242.0 267.89542 242.0 269.0Z" fill-rule="nonzero"/><path fill="#0f9d58" clip-path="url(#id_0)" d="M242.0 298.0L233.0 298.0L233.0 269.0C233.0 267.89542 233.89543 267.0 235.0 267.0L240.0 267.0C241.10457 267.0 242.0 267.89542 242.0 269.0Z" fill-rule="nonzero"/><path stroke="#000000" stroke-width="0.0" stroke-linecap="butt" stroke-opacity="0.0" clip-path="url(#id_0)" d="M305.0 298.0L296.0 298.0L296.0 286.0C296.0 284.89542 296.89542 284.0 298.0 284.0L303.0 284.0C304.10458 284.0 305.0 284.89542 305.0 286.0Z" fill-rule="nonzero"/><path fill="#0f9d58" clip-path="url(#id_0)" d="M305.0 298.0L296.0 298.0L296.0 286.0C296.0 284.89542 296.89542 284.0 298.0 284.0L303.0 284.0C304.10458 284.0 305.0 284.89542 305.0 286.0Z" fill-rule="nonzero"/><path stroke="#000000" stroke-width="0.0" stroke-linecap="butt" stroke-opacity="0.0" clip-path="url(#id_0)" d="M369.0 298.0L360.0 298.0L360.0 260.0C360.0 258.89542 360.89542 258.0 362.0 258.0L367.0 258.0C368.10458 258.0 369.0 258.89542 369.0 260.0Z" fill-rule="nonzero"/><path fill="#0f9d58" clip-path="url(#id_0)" d="M369.0 298.0L360.0 298.0L360.0 260.0C360.0 258.89542 360.89542 258.0 362.0 258.0L367.0 258.0C368.10458 258.0 369.0 258.89542 369.0 260.0Z" fill-rule="nonzero"/><path stroke="#000000" stroke-width="0.0" stroke-linecap="butt" stroke-opacity="0.0" clip-path="url(#id_0)" d="M432.0 298.0L423.0 298.0L423.0 262.0C423.0 260.89542 423.89542 260.0 425.0 260.0L430.0 260.0C431.10458 260.0 432.0 260.89542 432.0 262.0Z" fill-rule="nonzero"/><path fill="#0f9d58" clip-path="url(#id_0)" d="M432.0 298.0L423.0 298.0L423.0 262.0C423.0 260.89542 423.89542 260.0 425.0 260.0L430.0 260.0C431.10458 260.0 432.0 260.89542 432.0 262.0Z" fill-rule="nonzero"/><path stroke="#000000" stroke-width="0.0" stroke-linecap="butt" stroke-opacity="0.0" clip-path="url(#id_0)" d="M495.0 298.0L486.0 298.0L486.0 249.0C486.0 247.89543 486.89542 247.0 488.0 247.0L493.0 247.0C494.10458 247.0 495.0 247.89543 495.0 249.0Z" fill-rule="nonzero"/><path fill="#0f9d58" clip-path="url(#id_0)" d="M495.0 298.0L486.0 298.0L486.0 249.0C486.0 247.89543 486.89542 247.0 488.0 247.0L493.0 247.0C494.10458 247.0 495.0 247.89543 495.0 249.0Z" fill-rule="nonzero"/><path stroke="#000000" stroke-width="0.0" stroke-linecap="butt" stroke-opacity="0.0" clip-path="url(#id_0)" d="M558.0 298.0L549.0 298.0L549.0 266.0C549.0 264.89542 549.89545 264.0 551.0 264.0L556.0 264.0C557.10455 264.0 558.0 264.89542 558.0 266.0Z" fill-rule="nonzero"/><path fill="#0f9d58" clip-path="url(#id_0)" d="M558.0 298.0L549.0 298.0L549.0 266.0C549.0 264.89542 549.89545 264.0 551.0 264.0L556.0 264.0C557.10455 264.0 558.0 264.89542 558.0 266.0Z" fill-rule="nonzero"/><path fill="#424242" d="M289.3125 345.5125L285.60938 345.5125L285.60938 348.52814L289.90625 348.52814L289.90625 349.45L284.48438 349.45L284.48438 340.91876L289.85938 340.91876L289.85938 341.84064L285.60938 341.84064L285.60938 344.59064L289.3125 344.59064L289.3125 345.5125ZM292.5 349.45L291.42188 349.45L291.42188 340.45L292.5 340.45L292.5 349.45ZM296.95312 349.575Q295.65625 349.575 294.84375 348.73126Q294.04688 347.8719 294.04688 346.45L294.04688 346.2625Q294.04688 345.3094 294.40625 344.575Q294.76562 343.825 295.40625 343.41876Q296.0625 342.9969 296.8125 342.9969Q298.04688 342.9969 298.73438 343.8094Q299.42188 344.6219 299.42188 346.1375L299.42188 346.59064L295.125 346.59064Q295.15625 347.52814 295.67188 348.10626Q296.20312 348.6844 297.01562 348.6844Q297.57812 348.6844 297.96875 348.45Q298.375 348.21564 298.6875 347.825L299.34375 348.34064Q298.54688 349.575 296.95312 349.575ZM296.8125 343.8875Q296.15625 343.8875 295.70312 344.3719Q295.26562 344.84064 295.17188 345.7L298.34375 345.7L298.34375 345.6219Q298.29688 344.79376 297.89062 344.34064Q297.5 343.8875 296.8125 343.8875ZM301.34375 343.10626L301.375 343.8094Q302.0625 342.9969 303.25 342.9969Q304.57812 342.9969 305.0625 344.0125Q305.375 343.5594 305.875 343.27814Q306.39062 342.9969 307.07812 342.9969Q309.17188 342.9969 309.20312 345.2L309.20312 349.45L308.125 349.45L308.125 345.2625Q308.125 344.59064 307.8125 344.2625Q307.5 343.91876 306.76562 343.91876Q306.15625 343.91876 305.75 344.27814Q305.35938 344.6375 305.29688 345.2469L305.29688 349.45L304.21875 349.45L304.21875 345.29376Q304.21875 343.91876 302.85938 343.91876Q301.79688 343.91876 301.40625 344.825L301.40625 349.45L300.3125 349.45L300.3125 343.10626L301.34375 343.10626ZM313.95312 349.575Q312.65625 349.575 311.84375 348.73126Q311.04688 347.8719 311.04688 346.45L311.04688 346.2625Q311.04688 345.3094 311.40625 344.575Q311.76562 343.825 312.40625 343.41876Q313.0625 342.9969 313.8125 342.9969Q315.04688 342.9969 315.73438 343.8094Q316.42188 344.6219 316.42188 346.1375L316.42188 346.59064L312.125 346.59064Q312.15625 347.52814 312.67188 348.10626Q313.20312 348.6844 314.01562 348.6844Q314.57812 348.6844 314.96875 348.45Q315.375 348.21564 315.6875 347.825L316.34375 348.34064Q315.54688 349.575 313.95312 349.575ZM313.8125 343.8875Q313.15625 343.8875 312.70312 344.3719Q312.26562 344.84064 312.17188 345.7L315.34375 345.7L315.34375 345.6219Q315.29688 344.79376 314.89062 344.34064Q314.5 343.8875 313.8125 343.8875ZM318.34375 343.10626L318.375 343.90314Q319.10938 342.9969 320.28125 342.9969Q322.29688 342.9969 322.3125 345.2625L322.3125 349.45L321.21875 349.45L321.21875 345.2469Q321.21875 344.575 320.90625 344.2469Q320.60938 343.91876 319.95312 343.91876Q319.42188 343.91876 319.01562 344.2Q318.625 344.48126 318.40625 344.9344L318.40625 349.45L317.32812 349.45L317.32812 343.10626L318.34375 343.10626ZM325.79688 341.575L325.79688 343.10626L326.96875 343.10626L326.96875 343.95L325.79688 343.95L325.79688 347.8719Q325.79688 348.2625 325.95312 348.45Q326.10938 348.6375 326.48438 348.6375Q326.67188 348.6375 327.0 348.575L327.0 349.45Q326.57812 349.575 326.17188 349.575Q325.45312 349.575 325.07812 349.1375Q324.70312 348.6844 324.70312 347.8719L324.70312 343.95L323.54688 343.95L323.54688 343.10626L324.70312 343.10626L324.70312 341.575L325.79688 341.575ZM334.0 345.65314Q332.5625 345.23126 331.89062 344.6219Q331.23438 344.0125 331.23438 343.1219Q331.23438 342.1219 332.03125 341.46564Q332.84375 340.79376 334.14062 340.79376Q335.01562 340.79376 335.70312 341.1375Q336.39062 341.48126 336.76562 342.075Q337.15625 342.66876 337.15625 343.3875L336.01562 343.3875Q336.01562 342.60626 335.51562 342.16876Q335.03125 341.73126 334.14062 341.73126Q333.3125 341.73126 332.84375 342.10626Q332.375 342.46564 332.375 343.10626Q332.375 343.6375 332.8125 343.9969Q333.26562 344.35626 334.32812 344.65314Q335.39062 344.95 335.98438 345.3094Q336.59375 345.66876 336.875 346.15314Q337.17188 346.6375 337.17188 347.27814Q337.17188 348.325 336.35938 348.95Q335.54688 349.575 334.20312 349.575Q333.3125 349.575 332.54688 349.23126Q331.79688 348.8875 331.375 348.3094Q330.96875 347.71564 330.96875 346.98126L332.09375 346.98126Q332.09375 347.7469 332.67188 348.2Q333.25 348.65314 334.20312 348.65314Q335.09375 348.65314 335.5625 348.29376Q336.03125 347.91876 336.03125 347.29376Q336.03125 346.66876 335.59375 346.325Q335.15625 345.98126 334.0 345.65314ZM339.5 349.45L338.42188 349.45L338.42188 343.10626L339.5 343.10626L339.5 349.45ZM338.32812 341.4344Q338.32812 341.16876 338.48438 340.98126Q338.65625 340.79376 338.96875 340.79376Q339.28125 340.79376 339.4375 340.98126Q339.60938 341.16876 339.60938 341.4344Q339.60938 341.6844 339.4375 341.8719Q339.28125 342.04376 338.96875 342.04376Q338.65625 342.04376 338.48438 341.8719Q338.32812 341.6844 338.32812 341.4344ZM342.34375 348.5594L346.04688 348.5594L346.04688 349.45L341.01562 349.45L341.01562 348.65314L344.51562 344.0125L341.0625 344.0125L341.0625 343.10626L345.875 343.10626L345.875 343.8719L342.34375 348.5594ZM349.95312 349.575Q348.65625 349.575 347.84375 348.73126Q347.04688 347.8719 347.04688 346.45L347.04688 346.2625Q347.04688 345.3094 347.40625 344.575Q347.76562 343.825 348.40625 343.41876Q349.0625 342.9969 349.8125 342.9969Q351.04688 342.9969 351.73438 343.8094Q352.42188 344.6219 352.42188 346.1375L352.42188 346.59064L348.125 346.59064Q348.15625 347.52814 348.67188 348.10626Q349.20312 348.6844 350.01562 348.6844Q350.57812 348.6844 350.96875 348.45Q351.375 348.21564 351.6875 347.825L352.34375 348.34064Q351.54688 349.575 349.95312 349.575ZM349.8125 343.8875Q349.15625 343.8875 348.70312 344.3719Q348.26562 344.84064 348.17188 345.7L351.34375 345.7L351.34375 345.6219Q351.29688 344.79376 350.89062 344.34064Q350.5 343.8875 349.8125 343.8875Z" fill-rule="nonzero"/><path fill="#757575" d="M31.6125 299.3094Q31.6125 301.21564 30.95625 302.15314Q30.315624 303.075 28.925 303.075Q27.565624 303.075 26.909374 302.16876Q26.253124 301.2625 26.221874 299.45L26.221874 298.0125Q26.221874 296.1219 26.8625 295.21564Q27.51875 294.29376 28.909374 294.29376Q30.284374 294.29376 30.940624 295.1844Q31.596874 296.0594 31.6125 297.90314L31.6125 299.3094ZM30.51875 297.825Q30.51875 296.45 30.128124 295.825Q29.753124 295.1844 28.909374 295.1844Q28.08125 295.1844 27.690624 295.825Q27.315624 296.45 27.315624 297.7469L27.315624 299.48126Q27.315624 300.85626 27.70625 301.52814Q28.1125 302.1844 28.925 302.1844Q29.721874 302.1844 30.1125 301.5594Q30.503124 300.9344 30.51875 299.60626L30.51875 297.825ZM37.39375 296.60626L37.425 297.40314Q38.159374 296.4969 39.33125 296.4969Q41.346874 296.4969 41.3625 298.7625L41.3625 302.95L40.26875 302.95L40.26875 298.7469Q40.26875 298.075 39.95625 297.7469Q39.659374 297.41876 39.003124 297.41876Q38.471874 297.41876 38.065624 297.7Q37.675 297.98126 37.45625 298.4344L37.45625 302.95L36.378124 302.95L36.378124 296.60626L37.39375 296.60626ZM47.065624 301.2625Q47.065624 300.825 46.721874 300.59064Q46.39375 300.34064 45.565624 300.16876Q44.753124 299.9969 44.26875 299.7469Q43.784374 299.4969 43.55 299.16876Q43.33125 298.825 43.33125 298.35626Q43.33125 297.575 43.9875 297.04376Q44.64375 296.4969 45.675 296.4969Q46.753124 296.4969 47.409374 297.0594Q48.08125 297.60626 48.08125 298.46564L47.003124 298.46564Q47.003124 298.02814 46.6125 297.71564Q46.2375 297.3875 45.675 297.3875Q45.08125 297.3875 44.7375 297.65314Q44.409374 297.90314 44.409374 298.3094Q44.409374 298.7 44.721874 298.90314Q45.034374 299.10626 45.846874 299.29376Q46.659374 299.46564 47.159374 299.71564Q47.659374 299.96564 47.89375 300.325Q48.14375 300.6844 48.14375 301.1844Q48.14375 302.04376 47.45625 302.5594Q46.784374 303.075 45.70625 303.075Q44.940624 303.075 44.346874 302.8094Q43.76875 302.52814 43.440624 302.04376Q43.1125 301.5594 43.1125 300.9969L44.190624 300.9969Q44.221874 301.54376 44.628124 301.8719Q45.034374 302.1844 45.70625 302.1844Q46.315624 302.1844 46.690624 301.9344Q47.065624 301.6844 47.065624 301.2625Z" fill-rule="nonzero"/><path fill="#757575" d="M26.753124 229.11319L27.190624 224.86319L31.565624 224.86319L31.565624 225.86319L28.1125 225.86319L27.846874 228.19131Q28.4875 227.81631 29.284374 227.81631Q30.440624 227.81631 31.128124 228.59756Q31.815624 229.36319 31.815624 230.67569Q31.815624 231.98819 31.096874 232.75381Q30.39375 233.51944 29.1125 233.51944Q27.9875 233.51944 27.26875 232.89444Q26.55 232.25381 26.45625 231.14444L27.471874 231.14444Q27.58125 231.87881 28.003124 232.25381Q28.425 232.62881 29.1125 232.62881Q29.8625 232.62881 30.3 232.11319Q30.7375 231.59756 30.7375 230.69131Q30.7375 229.83194 30.26875 229.31631Q29.8 228.80069 29.01875 228.80069Q28.315624 228.80069 27.909374 229.09756L27.628124 229.33194L26.753124 229.11319ZM37.39375 227.05069L37.425 227.84756Q38.159374 226.94131 39.33125 226.94131Q41.346874 226.94131 41.3625 229.20694L41.3625 233.39444L40.26875 233.39444L40.26875 229.19131Q40.26875 228.51944 39.95625 228.19131Q39.659374 227.86319 39.003124 227.86319Q38.471874 227.86319 38.065624 228.14444Q37.675 228.42569 37.45625 228.87881L37.45625 233.39444L36.378124 233.39444L36.378124 227.05069L37.39375 227.05069ZM47.065624 231.70694Q47.065624 231.26944 46.721874 231.03506Q46.39375 230.78506 45.565624 230.61319Q44.753124 230.44131 44.26875 230.19131Q43.784374 229.94131 43.55 229.61319Q43.33125 229.26944 43.33125 228.80069Q43.33125 228.01944 43.9875 227.48819Q44.64375 226.94131 45.675 226.94131Q46.753124 226.94131 47.409374 227.50381Q48.08125 228.05069 48.08125 228.91006L47.003124 228.91006Q47.003124 228.47256 46.6125 228.16006Q46.2375 227.83194 45.675 227.83194Q45.08125 227.83194 44.7375 228.09756Q44.409374 228.34756 44.409374 228.75381Q44.409374 229.14444 44.721874 229.34756Q45.034374 229.55069 45.846874 229.73819Q46.659374 229.91006 47.159374 230.16006Q47.659374 230.41006 47.89375 230.76944Q48.14375 231.12881 48.14375 231.62881Q48.14375 232.48819 47.45625 233.00381Q46.784374 233.51944 45.70625 233.51944Q44.940624 233.51944 44.346874 233.25381Q43.76875 232.97256 43.440624 232.48819Q43.1125 232.00381 43.1125 231.44131L44.190624 231.44131Q44.221874 231.98819 44.628124 232.31631Q45.034374 232.62881 45.70625 232.62881Q46.315624 232.62881 46.690624 232.37881Q47.065624 232.12881 47.065624 231.70694Z" fill-rule="nonzero"/><path fill="#757575" d="M22.815624 163.83888L21.7375 163.83888L21.7375 156.62013L19.55 157.417L19.55 156.43263L22.659374 155.26076L22.815624 155.26076L22.815624 163.83888ZM31.6125 160.19826Q31.6125 162.1045 30.95625 163.042Q30.315624 163.96388 28.925 163.96388Q27.565624 163.96388 26.909374 163.05763Q26.253124 162.15138 26.221874 160.33888L26.221874 158.90138Q26.221874 157.01076 26.8625 156.1045Q27.51875 155.18263 28.909374 155.18263Q30.284374 155.18263 30.940624 156.07326Q31.596874 156.94826 31.6125 158.792L31.6125 160.19826ZM30.51875 158.71388Q30.51875 157.33888 30.128124 156.71388Q29.753124 156.07326 28.909374 156.07326Q28.08125 156.07326 27.690624 156.71388Q27.315624 157.33888 27.315624 158.63576L27.315624 160.37013Q27.315624 161.74513 27.70625 162.417Q28.1125 163.07326 28.925 163.07326Q29.721874 163.07326 30.1125 162.44826Q30.503124 161.82326 30.51875 160.49513L30.51875 158.71388ZM37.39375 157.49513L37.425 158.292Q38.159374 157.38576 39.33125 157.38576Q41.346874 157.38576 41.3625 159.65138L41.3625 163.83888L40.26875 163.83888L40.26875 159.63576Q40.26875 158.96388 39.95625 158.63576Q39.659374 158.30763 39.003124 158.30763Q38.471874 158.30763 38.065624 158.58888Q37.675 158.87013 37.45625 159.32326L37.45625 163.83888L36.378124 163.83888L36.378124 157.49513L37.39375 157.49513ZM47.065624 162.15138Q47.065624 161.71388 46.721874 161.4795Q46.39375 161.2295 45.565624 161.05763Q44.753124 160.88576 44.26875 160.63576Q43.784374 160.38576 43.55 160.05763Q43.33125 159.71388 43.33125 159.24513Q43.33125 158.46388 43.9875 157.93263Q44.64375 157.38576 45.675 157.38576Q46.753124 157.38576 47.409374 157.94826Q48.08125 158.49513 48.08125 159.3545L47.003124 159.3545Q47.003124 158.917 46.6125 158.6045Q46.2375 158.27638 45.675 158.27638Q45.08125 158.27638 44.7375 158.542Q44.409374 158.792 44.409374 159.19826Q44.409374 159.58888 44.721874 159.792Q45.034374 159.99513 45.846874 160.18263Q46.659374 160.3545 47.159374 160.6045Q47.659374 160.8545 47.89375 161.21388Q48.14375 161.57326 48.14375 162.07326Q48.14375 162.93263 47.45625 163.44826Q46.784374 163.96388 45.70625 163.96388Q44.940624 163.96388 44.346874 163.69826Q43.76875 163.417 43.440624 162.93263Q43.1125 162.44826 43.1125 161.88576L44.190624 161.88576Q44.221874 162.43263 44.628124 162.76076Q45.034374 163.07326 45.70625 163.07326Q46.315624 163.07326 46.690624 162.82326Q47.065624 162.57326 47.065624 162.15138Z" fill-rule="nonzero"/><path fill="#757575" d="M22.815624 94.28333L21.7375 94.28333L21.7375 87.06458L19.55 87.86146L19.55 86.87708L22.659374 85.70521L22.815624 85.70521L22.815624 94.28333ZM26.753124 90.00208L27.190624 85.75208L31.565624 85.75208L31.565624 86.75208L28.1125 86.75208L27.846874 89.08021Q28.4875 88.70521 29.284374 88.70521Q30.440624 88.70521 31.128124 89.48646Q31.815624 90.25208 31.815624 91.56458Q31.815624 92.87708 31.096874 93.64271Q30.39375 94.40833 29.1125 94.40833Q27.9875 94.40833 27.26875 93.78333Q26.55 93.14271 26.45625 92.03333L27.471874 92.03333Q27.58125 92.76771 28.003124 93.14271Q28.425 93.51771 29.1125 93.51771Q29.8625 93.51771 30.3 93.00208Q30.7375 92.48646 30.7375 91.58021Q30.7375 90.72083 30.26875 90.20521Q29.8 89.68958 29.01875 89.68958Q28.315624 89.68958 27.909374 89.98646L27.628124 90.22083L26.753124 90.00208ZM37.39375 87.93958L37.425 88.73646Q38.159374 87.83021 39.33125 87.83021Q41.346874 87.83021 41.3625 90.09583L41.3625 94.28333L40.26875 94.28333L40.26875 90.08021Q40.26875 89.40833 39.95625 89.08021Q39.659374 88.75208 39.003124 88.75208Q38.471874 88.75208 38.065624 89.03333Q37.675 89.31458 37.45625 89.76771L37.45625 94.28333L36.378124 94.28333L36.378124 87.93958L37.39375 87.93958ZM47.065624 92.59583Q47.065624 92.15833 46.721874 91.92396Q46.39375 91.67396 45.565624 91.50208Q44.753124 91.33021 44.26875 91.08021Q43.784374 90.83021 43.55 90.50208Q43.33125 90.15833 43.33125 89.68958Q43.33125 88.90833 43.9875 88.37708Q44.64375 87.83021 45.675 87.83021Q46.753124 87.83021 47.409374 88.39271Q48.08125 88.93958 48.08125 89.79896L47.003124 89.79896Q47.003124 89.36146 46.6125 89.04896Q46.2375 88.72083 45.675 88.72083Q45.08125 88.72083 44.7375 88.98646Q44.409374 89.23646 44.409374 89.64271Q44.409374 90.03333 44.721874 90.23646Q45.034374 90.43958 45.846874 90.62708Q46.659374 90.79896 47.159374 91.04896Q47.659374 91.29896 47.89375 91.65833Q48.14375 92.01771 48.14375 92.51771Q48.14375 93.37708 47.45625 93.89271Q46.784374 94.40833 45.70625 94.40833Q44.940624 94.40833 44.346874 94.14271Q43.76875 93.86146 43.440624 93.37708Q43.1125 92.89271 43.1125 92.33021L44.190624 92.33021Q44.221874 92.87708 44.628124 93.20521Q45.034374 93.51771 45.70625 93.51771Q46.315624 93.51771 46.690624 93.26771Q47.065624 93.01771 47.065624 92.59583Z" fill-rule="nonzero"/><path fill="#757575" d="M99.53434 310.1375Q99.53434 310.77814 99.19059 311.27814Q98.84684 311.77814 98.28434 312.0594Q98.94059 312.34064 99.331215 312.90314Q99.72184 313.45 99.72184 314.15314Q99.72184 315.2469 98.97184 315.91876Q98.237465 316.575 97.018715 316.575Q95.78434 316.575 95.03434 315.91876Q94.299965 315.2469 94.299965 314.15314Q94.299965 313.45 94.674965 312.90314Q95.049965 312.34064 95.72184 312.0594Q95.15934 311.77814 94.831215 311.27814Q94.50309 310.77814 94.50309 310.1375Q94.50309 309.0594 95.19059 308.4344Q95.87809 307.79376 97.018715 307.79376Q98.143715 307.79376 98.831215 308.4344Q99.53434 309.0594 99.53434 310.1375ZM98.643715 314.1219Q98.643715 313.40314 98.19059 312.96564Q97.737465 312.5125 97.00309 312.5125Q96.268715 312.5125 95.81559 312.96564Q95.37809 313.40314 95.37809 314.1375Q95.37809 314.85626 95.81559 315.27814Q96.25309 315.6844 97.018715 315.6844Q97.768715 315.6844 98.206215 315.2625Q98.643715 314.84064 98.643715 314.1219ZM97.018715 308.6844Q96.37809 308.6844 95.97184 309.09064Q95.581215 309.48126 95.581215 310.16876Q95.581215 310.8094 95.97184 311.21564Q96.362465 311.6219 97.00309 311.6219Q97.65934 311.6219 98.049965 311.21564Q98.44059 310.8094 98.44059 310.16876Q98.44059 309.5125 98.03434 309.10626Q97.62809 308.6844 97.018715 308.6844Z" fill-rule="nonzero"/><path fill="#757575" d="M157.51114 316.45L156.43301 316.45L156.43301 309.23126L154.24551 310.02814L154.24551 309.04376L157.35489 307.8719L157.51114 307.8719L157.51114 316.45ZM165.21426 307.91876L165.21426 308.825L165.01114 308.825Q163.74551 308.85626 162.99551 309.59064Q162.24551 310.3094 162.12051 311.6219Q162.80801 310.85626 163.96426 310.85626Q165.07364 310.85626 165.74551 311.6375Q166.41739 312.41876 166.41739 313.66876Q166.41739 314.98126 165.69864 315.77814Q164.97989 316.575 163.76114 316.575Q162.54239 316.575 161.77676 315.6375Q161.02676 314.6844 161.02676 313.2L161.02676 312.79376Q161.02676 310.4344 162.02676 309.1844Q163.02676 307.9344 165.01114 307.91876L165.21426 307.91876ZM163.79239 311.7625Q163.22989 311.7625 162.76114 312.09064Q162.29239 312.41876 162.10489 312.9344L162.10489 313.325Q162.10489 314.3875 162.57364 315.02814Q163.05801 315.66876 163.76114 315.66876Q164.49551 315.66876 164.91739 315.1375Q165.33926 314.59064 165.33926 313.71564Q165.33926 312.84064 164.91739 312.3094Q164.49551 311.7625 163.79239 311.7625Z" fill-rule="nonzero"/><path fill="#757575" d="M222.64418 316.45L217.05043 316.45L217.05043 315.66876L220.00356 312.3875Q220.6598 311.6375 220.9098 311.1844Q221.1598 310.71564 221.1598 310.21564Q221.1598 309.54376 220.75356 309.1219Q220.36293 308.6844 219.67543 308.6844Q218.87856 308.6844 218.42543 309.15314Q217.9723 309.60626 217.9723 310.4344L216.89418 310.4344Q216.89418 309.2469 217.64418 308.52814Q218.4098 307.79376 219.67543 307.79376Q220.87856 307.79376 221.56606 308.41876Q222.25356 309.04376 222.25356 310.09064Q222.25356 311.34064 220.64418 313.09064L218.36293 315.5594L222.64418 315.5594L222.64418 316.45ZM228.62856 313.59064L229.81606 313.59064L229.81606 314.46564L228.62856 314.46564L228.62856 316.45L227.55043 316.45L227.55043 314.46564L223.6598 314.46564L223.6598 313.825L227.4723 307.91876L228.62856 307.91876L228.62856 313.59064ZM224.89418 313.59064L227.55043 313.59064L227.55043 309.40314L227.4098 309.6375L224.89418 313.59064Z" fill-rule="nonzero"/><path fill="#757575" d="M281.73035 311.65314L282.54285 311.65314Q283.3241 311.6375 283.7616 311.2469Q284.1991 310.85626 284.1991 310.1844Q284.1991 308.6844 282.6991 308.6844Q281.99597 308.6844 281.5741 309.09064Q281.16785 309.4969 281.16785 310.15314L280.0741 310.15314Q280.0741 309.1375 280.80847 308.46564Q281.55847 307.79376 282.6991 307.79376Q283.90222 307.79376 284.58972 308.4344Q285.27722 309.075 285.27722 310.21564Q285.27722 310.77814 284.91785 311.29376Q284.55847 311.8094 283.93347 312.075Q284.6366 312.29376 285.0116 312.8094Q285.40222 313.325 285.40222 314.075Q285.40222 315.21564 284.65222 315.90314Q283.90222 316.575 282.6991 316.575Q281.5116 316.575 280.74597 315.91876Q279.99597 315.2625 279.99597 314.2L281.08972 314.2Q281.08972 314.8719 281.52722 315.27814Q281.96472 315.6844 282.71472 315.6844Q283.49597 315.6844 283.90222 315.27814Q284.3241 314.85626 284.3241 314.09064Q284.3241 313.35626 283.87097 312.96564Q283.41785 312.5594 282.54285 312.54376L281.73035 312.54376L281.73035 311.65314ZM292.74597 316.45L287.15222 316.45L287.15222 315.66876L290.10535 312.3875Q290.7616 311.6375 291.0116 311.1844Q291.2616 310.71564 291.2616 310.21564Q291.2616 309.54376 290.85535 309.1219Q290.46472 308.6844 289.77722 308.6844Q288.98035 308.6844 288.52722 309.15314Q288.0741 309.60626 288.0741 310.4344L286.99597 310.4344Q286.99597 309.2469 287.74597 308.52814Q288.5116 307.79376 289.77722 307.79376Q290.98035 307.79376 291.66785 308.41876Q292.35535 309.04376 292.35535 310.09064Q292.35535 311.34064 290.74597 313.09064L288.46472 315.5594L292.74597 315.5594L292.74597 316.45Z" fill-rule="nonzero"/><path fill="#757575" d="M347.83215 313.59064L349.01965 313.59064L349.01965 314.46564L347.83215 314.46564L347.83215 316.45L346.75403 316.45L346.75403 314.46564L342.8634 314.46564L342.8634 313.825L346.6759 307.91876L347.83215 307.91876L347.83215 313.59064ZM344.09778 313.59064L346.75403 313.59064L346.75403 309.40314L346.6134 309.6375L344.09778 313.59064ZM355.6134 312.8094Q355.6134 314.71564 354.95715 315.65314Q354.31653 316.575 352.9259 316.575Q351.56653 316.575 350.91028 315.66876Q350.25403 314.7625 350.22278 312.95L350.22278 311.5125Q350.22278 309.6219 350.8634 308.71564Q351.51965 307.79376 352.91028 307.79376Q354.28528 307.79376 354.94153 308.6844Q355.59778 309.5594 355.6134 311.40314L355.6134 312.8094ZM354.51965 311.325Q354.51965 309.95 354.12903 309.325Q353.75403 308.6844 352.91028 308.6844Q352.08215 308.6844 351.69153 309.325Q351.31653 309.95 351.31653 311.2469L351.31653 312.98126Q351.31653 314.35626 351.70715 315.02814Q352.1134 315.6844 352.9259 315.6844Q353.72278 315.6844 354.1134 315.0594Q354.50403 314.4344 354.51965 313.10626L354.51965 311.325Z" fill-rule="nonzero"/><path fill="#757575" d="M410.93393 313.59064L412.12143 313.59064L412.12143 314.46564L410.93393 314.46564L410.93393 316.45L409.8558 316.45L409.8558 314.46564L405.96518 314.46564L405.96518 313.825L409.77768 307.91876L410.93393 307.91876L410.93393 313.59064ZM407.19955 313.59064L409.8558 313.59064L409.8558 309.40314L409.71518 309.6375L407.19955 313.59064ZM418.5433 310.1375Q418.5433 310.77814 418.19955 311.27814Q417.8558 311.77814 417.2933 312.0594Q417.94955 312.34064 418.34018 312.90314Q418.7308 313.45 418.7308 314.15314Q418.7308 315.2469 417.9808 315.91876Q417.24643 316.575 416.02768 316.575Q414.7933 316.575 414.0433 315.91876Q413.30893 315.2469 413.30893 314.15314Q413.30893 313.45 413.68393 312.90314Q414.05893 312.34064 414.7308 312.0594Q414.1683 311.77814 413.84018 311.27814Q413.51205 310.77814 413.51205 310.1375Q413.51205 309.0594 414.19955 308.4344Q414.88705 307.79376 416.02768 307.79376Q417.15268 307.79376 417.84018 308.4344Q418.5433 309.0594 418.5433 310.1375ZM417.65268 314.1219Q417.65268 313.40314 417.19955 312.96564Q416.74643 312.5125 416.01205 312.5125Q415.27768 312.5125 414.82455 312.96564Q414.38705 313.40314 414.38705 314.1375Q414.38705 314.85626 414.82455 315.27814Q415.26205 315.6844 416.02768 315.6844Q416.77768 315.6844 417.21518 315.2625Q417.65268 314.84064 417.65268 314.1219ZM416.02768 308.6844Q415.38705 308.6844 414.9808 309.09064Q414.59018 309.48126 414.59018 310.16876Q414.59018 310.8094 414.9808 311.21564Q415.37143 311.6219 416.01205 311.6219Q416.6683 311.6219 417.05893 311.21564Q417.44955 310.8094 417.44955 310.16876Q417.44955 309.5125 417.0433 309.10626Q416.63705 308.6844 416.02768 308.6844Z" fill-rule="nonzero"/><path fill="#757575" d="M469.9576 312.16876L470.3951 307.91876L474.7701 307.91876L474.7701 308.91876L471.317 308.91876L471.05136 311.2469Q471.692 310.8719 472.48886 310.8719Q473.6451 310.8719 474.3326 311.65314Q475.0201 312.41876 475.0201 313.73126Q475.0201 315.04376 474.30136 315.8094Q473.59824 316.575 472.317 316.575Q471.192 316.575 470.47324 315.95Q469.7545 315.3094 469.66074 314.2L470.67636 314.2Q470.78574 314.9344 471.2076 315.3094Q471.6295 315.6844 472.317 315.6844Q473.067 315.6844 473.5045 315.16876Q473.942 314.65314 473.942 313.7469Q473.942 312.8875 473.47324 312.3719Q473.0045 311.85626 472.22324 311.85626Q471.5201 311.85626 471.11386 312.15314L470.8326 312.3875L469.9576 312.16876ZM480.72324 307.91876L480.72324 308.825L480.5201 308.825Q479.2545 308.85626 478.5045 309.59064Q477.7545 310.3094 477.6295 311.6219Q478.317 310.85626 479.47324 310.85626Q480.5826 310.85626 481.2545 311.6375Q481.92636 312.41876 481.92636 313.66876Q481.92636 314.98126 481.2076 315.77814Q480.48886 316.575 479.2701 316.575Q478.05136 316.575 477.28574 315.6375Q476.53574 314.6844 476.53574 313.2L476.53574 312.79376Q476.53574 310.4344 477.53574 309.1844Q478.53574 307.9344 480.5201 307.91876L480.72324 307.91876ZM479.30136 311.7625Q478.73886 311.7625 478.2701 312.09064Q477.80136 312.41876 477.61386 312.9344L477.61386 313.325Q477.61386 314.3875 478.0826 315.02814Q478.567 315.66876 479.2701 315.66876Q480.0045 315.66876 480.42636 315.1375Q480.84824 314.59064 480.84824 313.71564Q480.84824 312.84064 480.42636 312.3094Q480.0045 311.7625 479.30136 311.7625Z" fill-rule="nonzero"/><path fill="#757575" d="M536.825 307.91876L536.825 308.825L536.6219 308.825Q535.35626 308.85626 534.60626 309.59064Q533.85626 310.3094 533.73126 311.6219Q534.41876 310.85626 535.575 310.85626Q536.6844 310.85626 537.35626 311.6375Q538.02814 312.41876 538.02814 313.66876Q538.02814 314.98126 537.3094 315.77814Q536.59064 316.575 535.3719 316.575Q534.15314 316.575 533.3875 315.6375Q532.6375 314.6844 532.6375 313.2L532.6375 312.79376Q532.6375 310.4344 533.6375 309.1844Q534.6375 307.9344 536.6219 307.91876L536.825 307.91876ZM535.40314 311.7625Q534.84064 311.7625 534.3719 312.09064Q533.90314 312.41876 533.71564 312.9344L533.71564 313.325Q533.71564 314.3875 534.1844 315.02814Q534.66876 315.66876 535.3719 315.66876Q536.10626 315.66876 536.52814 315.1375Q536.95 314.59064 536.95 313.71564Q536.95 312.84064 536.52814 312.3094Q536.10626 311.7625 535.40314 311.7625ZM544.1375 313.59064L545.325 313.59064L545.325 314.46564L544.1375 314.46564L544.1375 316.45L543.0594 316.45L543.0594 314.46564L539.16876 314.46564L539.16876 313.825L542.98126 307.91876L544.1375 307.91876L544.1375 313.59064ZM540.40314 313.59064L543.0594 313.59064L543.0594 309.40314L542.91876 309.6375L540.40314 313.59064Z" fill-rule="nonzero"/><path fill="#4285f4" d="M137.0 57.416668C137.0 56.864384 137.44771 56.416668 138.0 56.416668L148.0 56.416668C148.55229 56.416668 149.0 56.864384 149.0 57.416668L149.0 67.416664C149.0 67.96895 148.55229 68.416664 148.0 68.416664L138.0 68.416664C137.44771 68.416664 137.0 67.96895 137.0 67.416664Z" fill-rule="nonzero"/><path fill="#757575" d="M162.70312 63.15104L159.10938 63.15104L159.10938 66.916664L157.98438 66.916664L157.98438 58.385414L163.28125 58.385414L163.28125 59.30729L159.10938 59.30729L159.10938 62.229164L162.70312 62.229164L162.70312 63.15104ZM164.53125 63.68229Q164.53125 62.760414 164.89062 62.010414Q165.26562 61.260414 165.92188 60.86979Q166.57812 60.46354 167.40625 60.46354Q168.70312 60.46354 169.5 61.354164Q170.3125 62.24479 170.3125 63.74479L170.3125 63.822914Q170.3125 64.74479 169.95312 65.479164Q169.59375 66.21354 168.9375 66.635414Q168.28125 67.041664 167.42188 67.041664Q166.14062 67.041664 165.32812 66.15104Q164.53125 65.24479 164.53125 63.760414L164.53125 63.68229ZM165.625 63.822914Q165.625 64.86979 166.10938 65.510414Q166.60938 66.15104 167.42188 66.15104Q168.25 66.15104 168.73438 65.510414Q169.21875 64.854164 169.21875 63.68229Q169.21875 62.65104 168.71875 62.010414Q168.23438 61.354164 167.40625 61.354164Q166.60938 61.354164 166.10938 61.99479Q165.625 62.61979 165.625 63.822914ZM173.0 66.916664L171.92188 66.916664L171.92188 57.916664L173.0 57.916664L173.0 66.916664ZM176.0 66.916664L174.92188 66.916664L174.92188 57.916664L176.0 57.916664L176.0 66.916664ZM179.89062 65.322914L181.375 60.572914L182.53125 60.572914L179.98438 67.90104Q179.39062 69.479164 178.10938 69.479164L177.89062 69.46354L177.5 69.385414L177.5 68.510414L177.78125 68.52604Q178.34375 68.52604 178.64062 68.30729Q178.95312 68.08854 179.15625 67.49479L179.39062 66.83854L177.125 60.572914L178.3125 60.572914L179.89062 65.322914Z" fill-rule="nonzero"/><path fill="#db4437" d="M199.0 57.416668C199.0 56.864384 199.44771 56.416668 200.0 56.416668L210.0 56.416668C210.55229 56.416668 211.0 56.864384 211.0 57.416668L211.0 67.416664C211.0 67.96895 210.55229 68.416664 210.0 68.416664L200.0 68.416664C199.44771 68.416664 199.0 67.96895 199.0 67.416664Z" fill-rule="nonzero"/><path fill="#757575" d="M223.125 63.46354L221.10938 63.46354L221.10938 66.916664L219.98438 66.916664L219.98438 58.385414L222.8125 58.385414Q224.25 58.385414 225.01562 59.041664Q225.79688 59.697914 225.79688 60.947914Q225.79688 61.74479 225.35938 62.33854Q224.9375 62.93229 224.17188 63.229164L226.17188 66.83854L226.17188 66.916664L224.96875 66.916664L223.125 63.46354ZM221.10938 62.541664L222.84375 62.541664Q223.6875 62.541664 224.17188 62.11979Q224.67188 61.68229 224.67188 60.947914Q224.67188 60.166664 224.20312 59.74479Q223.73438 59.322914 222.84375 59.30729L221.10938 59.30729L221.10938 62.541664ZM228.0 66.916664L226.92188 66.916664L226.92188 60.572914L228.0 60.572914L228.0 66.916664ZM226.82812 58.90104Q226.82812 58.635414 226.98438 58.447914Q227.15625 58.260414 227.46875 58.260414Q227.78125 58.260414 227.9375 58.447914Q228.10938 58.635414 228.10938 58.90104Q228.10938 59.15104 227.9375 59.33854Q227.78125 59.510414 227.46875 59.510414Q227.15625 59.510414 226.98438 59.33854Q226.82812 59.15104 226.82812 58.90104ZM229.5625 63.697914Q229.5625 62.21354 230.25 61.33854Q230.9375 60.46354 232.0625 60.46354Q233.21875 60.46354 233.875 61.27604L233.92188 60.572914L234.92188 60.572914L234.92188 66.760414Q234.92188 67.99479 234.1875 68.697914Q233.45312 69.416664 232.23438 69.416664Q231.54688 69.416664 230.89062 69.11979Q230.23438 68.822914 229.89062 68.322914L230.45312 67.666664Q231.14062 68.52604 232.15625 68.52604Q232.9375 68.52604 233.375 68.072914Q233.82812 67.635414 233.82812 66.822914L233.82812 66.27604Q233.17188 67.041664 232.04688 67.041664Q230.9375 67.041664 230.25 66.15104Q229.5625 65.24479 229.5625 63.697914ZM230.65625 63.822914Q230.65625 64.885414 231.09375 65.510414Q231.53125 66.11979 232.32812 66.11979Q233.34375 66.11979 233.82812 65.18229L233.82812 62.291664Q233.32812 61.385414 232.32812 61.385414Q231.54688 61.385414 231.09375 61.99479Q230.65625 62.604164 230.65625 63.822914ZM238.29688 59.041664L238.29688 60.572914L239.46875 60.572914L239.46875 61.416664L238.29688 61.416664L238.29688 65.33854Q238.29688 65.729164 238.45312 65.916664Q238.60938 66.104164 238.98438 66.104164Q239.17188 66.104164 239.5 66.041664L239.5 66.916664Q239.07812 67.041664 238.67188 67.041664Q237.95312 67.041664 237.57812 66.604164Q237.20312 66.15104 237.20312 65.33854L237.20312 61.416664L236.04688 61.416664L236.04688 60.572914L237.20312 60.572914L237.20312 59.041664L238.29688 59.041664ZM240.53125 63.68229Q240.53125 62.760414 240.89062 62.010414Q241.26562 61.260414 241.92188 60.86979Q242.57812 60.46354 243.40625 60.46354Q244.70312 60.46354 245.5 61.354164Q246.3125 62.24479 246.3125 63.74479L246.3125 63.822914Q246.3125 64.74479 245.95312 65.479164Q245.59375 66.21354 244.9375 66.635414Q244.28125 67.041664 243.42188 67.041664Q242.14062 67.041664 241.32812 66.15104Q240.53125 65.24479 240.53125 63.760414L240.53125 63.68229ZM241.625 63.822914Q241.625 64.86979 242.10938 65.510414Q242.60938 66.15104 243.42188 66.15104Q244.25 66.15104 244.73438 65.510414Q245.21875 64.854164 245.21875 63.68229Q245.21875 62.65104 244.71875 62.010414Q244.23438 61.354164 243.40625 61.354164Q242.60938 61.354164 242.10938 61.99479Q241.625 62.61979 241.625 63.822914ZM250.89062 61.541664Q250.64062 61.510414 250.35938 61.510414Q249.28125 61.510414 248.90625 62.416664L248.90625 66.916664L247.82812 66.916664L247.82812 60.572914L248.875 60.572914L248.89062 61.30729Q249.42188 60.46354 250.40625 60.46354Q250.71875 60.46354 250.89062 60.541664L250.89062 61.541664ZM257.17188 63.822914Q257.17188 65.260414 256.51562 66.15104Q255.85938 67.041664 254.71875 67.041664Q253.5625 67.041664 252.90625 66.30729L252.90625 69.354164L251.82812 69.354164L251.82812 60.572914L252.8125 60.572914L252.85938 61.27604Q253.53125 60.46354 254.70312 60.46354Q255.84375 60.46354 256.5 61.322914Q257.17188 62.18229 257.17188 63.71354L257.17188 63.822914ZM256.09375 63.697914Q256.09375 62.61979 255.625 62.010414Q255.17188 61.385414 254.375 61.385414Q253.39062 61.385414 252.90625 62.24479L252.90625 65.27604Q253.39062 66.15104 254.39062 66.15104Q255.17188 66.15104 255.625 65.541664Q256.09375 64.916664 256.09375 63.697914Z" fill-rule="nonzero"/><path fill="#f4b400" d="M274.0 57.416668C274.0 56.864384 274.44772 56.416668 275.0 56.416668L285.0 56.416668C285.55228 56.416668 286.0 56.864384 286.0 57.416668L286.0 67.416664C286.0 67.96895 285.55228 68.416664 285.0 68.416664L275.0 68.416664C274.44772 68.416664 274.0 67.96895 274.0 67.416664Z" fill-rule="nonzero"/><path fill="#757575" d="M296.4375 58.385414L299.23438 65.33854L302.01562 58.385414L303.48438 58.385414L303.48438 66.916664L302.35938 66.916664L302.35938 63.58854L302.46875 60.010414L299.65625 66.916664L298.79688 66.916664L296.0 60.02604L296.10938 63.58854L296.10938 66.916664L294.98438 66.916664L294.98438 58.385414L296.4375 58.385414ZM304.53125 63.68229Q304.53125 62.760414 304.89062 62.010414Q305.26562 61.260414 305.92188 60.86979Q306.57812 60.46354 307.40625 60.46354Q308.70312 60.46354 309.5 61.354164Q310.3125 62.24479 310.3125 63.74479L310.3125 63.822914Q310.3125 64.74479 309.95312 65.479164Q309.59375 66.21354 308.9375 66.635414Q308.28125 67.041664 307.42188 67.041664Q306.14062 67.041664 305.32812 66.15104Q304.53125 65.24479 304.53125 63.760414L304.53125 63.68229ZM305.625 63.822914Q305.625 64.86979 306.10938 65.510414Q306.60938 66.15104 307.42188 66.15104Q308.25 66.15104 308.73438 65.510414Q309.21875 64.854164 309.21875 63.68229Q309.21875 62.65104 308.71875 62.010414Q308.23438 61.354164 307.40625 61.354164Q306.60938 61.354164 306.10938 61.99479Q305.625 62.61979 305.625 63.822914ZM311.53125 63.68229Q311.53125 62.760414 311.89062 62.010414Q312.26562 61.260414 312.92188 60.86979Q313.57812 60.46354 314.40625 60.46354Q315.70312 60.46354 316.5 61.354164Q317.3125 62.24479 317.3125 63.74479L317.3125 63.822914Q317.3125 64.74479 316.95312 65.479164Q316.59375 66.21354 315.9375 66.635414Q315.28125 67.041664 314.42188 67.041664Q313.14062 67.041664 312.32812 66.15104Q311.53125 65.24479 311.53125 63.760414L311.53125 63.68229ZM312.625 63.822914Q312.625 64.86979 313.10938 65.510414Q313.60938 66.15104 314.42188 66.15104Q315.25 66.15104 315.73438 65.510414Q316.21875 64.854164 316.21875 63.68229Q316.21875 62.65104 315.71875 62.010414Q315.23438 61.354164 314.40625 61.354164Q313.60938 61.354164 313.10938 61.99479Q312.625 62.61979 312.625 63.822914ZM318.5625 63.697914Q318.5625 62.229164 319.25 61.354164Q319.9375 60.46354 321.0625 60.46354Q322.17188 60.46354 322.82812 61.21354L322.82812 57.916664L323.90625 57.916664L323.90625 66.916664L322.90625 66.916664L322.85938 66.229164Q322.20312 67.041664 321.04688 67.041664Q319.95312 67.041664 319.25 66.135414Q318.5625 65.229164 318.5625 63.77604L318.5625 63.697914ZM319.64062 63.822914Q319.64062 64.90104 320.07812 65.510414Q320.53125 66.11979 321.3125 66.11979Q322.34375 66.11979 322.82812 65.18229L322.82812 62.27604Q322.34375 61.385414 321.32812 61.385414Q320.53125 61.385414 320.07812 61.99479Q319.64062 62.604164 319.64062 63.822914ZM327.89062 65.322914L329.375 60.572914L330.53125 60.572914L327.98438 67.90104Q327.39062 69.479164 326.10938 69.479164L325.89062 69.46354L325.5 69.385414L325.5 68.510414L325.78125 68.52604Q326.34375 68.52604 326.64062 68.30729Q326.95312 68.08854 327.15625 67.49479L327.39062 66.83854L325.125 60.572914L326.3125 60.572914L327.89062 65.322914ZM334.35938 66.15104Q334.9375 66.15104 335.375 65.80729Q335.8125 65.447914 335.85938 64.916664L336.89062 64.916664Q336.85938 65.46354 336.5 65.96354Q336.15625 66.447914 335.57812 66.74479Q335.01562 67.041664 334.35938 67.041664Q333.0625 67.041664 332.29688 66.18229Q331.54688 65.30729 331.54688 63.80729L331.54688 63.61979Q331.54688 62.697914 331.875 61.979164Q332.21875 61.260414 332.84375 60.86979Q333.48438 60.46354 334.35938 60.46354Q335.42188 60.46354 336.125 61.104164Q336.84375 61.729164 336.89062 62.760414L335.85938 62.760414Q335.8125 62.135414 335.39062 61.74479Q334.96875 61.354164 334.35938 61.354164Q333.53125 61.354164 333.07812 61.947914Q332.625 62.541664 332.625 63.666664L332.625 63.86979Q332.625 64.96354 333.07812 65.55729Q333.53125 66.15104 334.35938 66.15104ZM341.73438 66.916664Q341.64062 66.729164 341.57812 66.24479Q340.82812 67.041664 339.78125 67.041664Q338.84375 67.041664 338.23438 66.510414Q337.64062 65.979164 337.64062 65.15104Q337.64062 64.166664 338.39062 63.61979Q339.14062 63.072914 340.51562 63.072914L341.5625 63.072914L341.5625 62.572914Q341.5625 62.010414 341.21875 61.68229Q340.89062 61.33854 340.21875 61.33854Q339.64062 61.33854 339.25 61.635414Q338.85938 61.916664 338.85938 62.33854L337.76562 62.33854Q337.76562 61.854164 338.09375 61.416664Q338.4375 60.979164 339.01562 60.729164Q339.59375 60.46354 340.28125 60.46354Q341.39062 60.46354 342.0 61.010414Q342.625 61.55729 342.65625 62.510414L342.65625 65.43229Q342.65625 66.30729 342.875 66.822914L342.875 66.916664L341.73438 66.916664ZM339.9375 66.08854Q340.45312 66.08854 340.90625 65.822914Q341.35938 65.55729 341.5625 65.135414L341.5625 63.83854L340.71875 63.83854Q338.71875 63.83854 338.71875 65.010414Q338.71875 65.510414 339.0625 65.80729Q339.40625 66.08854 339.9375 66.08854ZM345.84375 60.572914L345.875 61.27604Q346.5625 60.46354 347.75 60.46354Q349.07812 60.46354 349.5625 61.479164Q349.875 61.02604 350.375 60.74479Q350.89062 60.46354 351.57812 60.46354Q353.67188 60.46354 353.70312 62.666664L353.70312 66.916664L352.625 66.916664L352.625 62.729164Q352.625 62.05729 352.3125 61.729164Q352.0 61.385414 351.26562 61.385414Q350.65625 61.385414 350.25 61.74479Q349.85938 62.104164 349.79688 62.71354L349.79688 66.916664L348.71875 66.916664L348.71875 62.760414Q348.71875 61.385414 347.35938 61.385414Q346.29688 61.385414 345.90625 62.291664L345.90625 66.916664L344.8125 66.916664L344.8125 60.572914L345.84375 60.572914ZM358.45312 67.041664Q357.15625 67.041664 356.34375 66.197914Q355.54688 65.33854 355.54688 63.916664L355.54688 63.729164Q355.54688 62.77604 355.90625 62.041664Q356.26562 61.291664 356.90625 60.885414Q357.5625 60.46354 358.3125 60.46354Q359.54688 60.46354 360.23438 61.27604Q360.92188 62.08854 360.92188 63.604164L360.92188 64.05729L356.625 64.05729Q356.65625 64.99479 357.17188 65.572914Q357.70312 66.15104 358.51562 66.15104Q359.07812 66.15104 359.46875 65.916664Q359.875 65.68229 360.1875 65.291664L360.84375 65.80729Q360.04688 67.041664 358.45312 67.041664ZM358.3125 61.354164Q357.65625 61.354164 357.20312 61.83854Q356.76562 62.30729 356.67188 63.166664L359.84375 63.166664L359.84375 63.08854Q359.79688 62.260414 359.39062 61.80729Q359.0 61.354164 358.3125 61.354164ZM363.0 66.916664L361.92188 66.916664L361.92188 57.916664L363.0 57.916664L363.0 66.916664Z" fill-rule="nonzero"/><path fill="#0f9d58" d="M380.0 57.416668C380.0 56.864384 380.44772 56.416668 381.0 56.416668L391.0 56.416668C391.55228 56.416668 392.0 56.864384 392.0 57.416668L392.0 67.416664C392.0 67.96895 391.55228 68.416664 391.0 68.416664L381.0 68.416664C380.44772 68.416664 380.0 67.96895 380.0 67.416664Z" fill-rule="nonzero"/><path fill="#757575" d="M404.51562 65.229164Q404.51562 64.791664 404.17188 64.55729Q403.84375 64.30729 403.01562 64.135414Q402.20312 63.96354 401.71875 63.71354Q401.23438 63.46354 401.0 63.135414Q400.78125 62.791664 400.78125 62.322914Q400.78125 61.541664 401.4375 61.010414Q402.09375 60.46354 403.125 60.46354Q404.20312 60.46354 404.85938 61.02604Q405.53125 61.572914 405.53125 62.43229L404.45312 62.43229Q404.45312 61.99479 404.0625 61.68229Q403.6875 61.354164 403.125 61.354164Q402.53125 61.354164 402.1875 61.61979Q401.85938 61.86979 401.85938 62.27604Q401.85938 62.666664 402.17188 62.86979Q402.48438 63.072914 403.29688 63.260414Q404.10938 63.43229 404.60938 63.68229Q405.10938 63.93229 405.34375 64.291664Q405.59375 64.65104 405.59375 65.15104Q405.59375 66.010414 404.90625 66.52604Q404.23438 67.041664 403.15625 67.041664Q402.39062 67.041664 401.79688 66.77604Q401.21875 66.49479 400.89062 66.010414Q400.5625 65.52604 400.5625 64.96354L401.64062 64.96354Q401.67188 65.510414 402.07812 65.83854Q402.48438 66.15104 403.15625 66.15104Q403.76562 66.15104 404.14062 65.90104Q404.51562 65.65104 404.51562 65.229164ZM412.17188 63.822914Q412.17188 65.260414 411.51562 66.15104Q410.85938 67.041664 409.71875 67.041664Q408.5625 67.041664 407.90625 66.30729L407.90625 69.354164L406.82812 69.354164L406.82812 60.572914L407.8125 60.572914L407.85938 61.27604Q408.53125 60.46354 409.70312 60.46354Q410.84375 60.46354 411.5 61.322914Q412.17188 62.18229 412.17188 63.71354L412.17188 63.822914ZM411.09375 63.697914Q411.09375 62.61979 410.625 62.010414Q410.17188 61.385414 409.375 61.385414Q408.39062 61.385414 407.90625 62.24479L407.90625 65.27604Q408.39062 66.15104 409.39062 66.15104Q410.17188 66.15104 410.625 65.541664Q411.09375 64.916664 411.09375 63.697914ZM417.51562 65.229164Q417.51562 64.791664 417.17188 64.55729Q416.84375 64.30729 416.01562 64.135414Q415.20312 63.96354 414.71875 63.71354Q414.23438 63.46354 414.0 63.135414Q413.78125 62.791664 413.78125 62.322914Q413.78125 61.541664 414.4375 61.010414Q415.09375 60.46354 416.125 60.46354Q417.20312 60.46354 417.85938 61.02604Q418.53125 61.572914 418.53125 62.43229L417.45312 62.43229Q417.45312 61.99479 417.0625 61.68229Q416.6875 61.354164 416.125 61.354164Q415.53125 61.354164 415.1875 61.61979Q414.85938 61.86979 414.85938 62.27604Q414.85938 62.666664 415.17188 62.86979Q415.48438 63.072914 416.29688 63.260414Q417.10938 63.43229 417.60938 63.68229Q418.10938 63.93229 418.34375 64.291664Q418.59375 64.65104 418.59375 65.15104Q418.59375 66.010414 417.90625 66.52604Q417.23438 67.041664 416.15625 67.041664Q415.39062 67.041664 414.79688 66.77604Q414.21875 66.49479 413.89062 66.010414Q413.5625 65.52604 413.5625 64.96354L414.64062 64.96354Q414.67188 65.510414 415.07812 65.83854Q415.48438 66.15104 416.15625 66.15104Q416.76562 66.15104 417.14062 65.90104Q417.51562 65.65104 417.51562 65.229164ZM422.35938 66.15104Q422.9375 66.15104 423.375 65.80729Q423.8125 65.447914 423.85938 64.916664L424.89062 64.916664Q424.85938 65.46354 424.5 65.96354Q424.15625 66.447914 423.57812 66.74479Q423.01562 67.041664 422.35938 67.041664Q421.0625 67.041664 420.29688 66.18229Q419.54688 65.30729 419.54688 63.80729L419.54688 63.61979Q419.54688 62.697914 419.875 61.979164Q420.21875 61.260414 420.84375 60.86979Q421.48438 60.46354 422.35938 60.46354Q423.42188 60.46354 424.125 61.104164Q424.84375 61.729164 424.89062 62.760414L423.85938 62.760414Q423.8125 62.135414 423.39062 61.74479Q422.96875 61.354164 422.35938 61.354164Q421.53125 61.354164 421.07812 61.947914Q420.625 62.541664 420.625 63.666664L420.625 63.86979Q420.625 64.96354 421.07812 65.55729Q421.53125 66.15104 422.35938 66.15104ZM430.39062 67.80729L425.03125 67.80729L425.03125 66.916664L430.39062 66.916664L430.39062 67.80729ZM430.5625 63.697914Q430.5625 62.197914 431.23438 61.33854Q431.92188 60.46354 433.07812 60.46354Q434.20312 60.46354 434.85938 61.21354L434.90625 60.572914L435.90625 60.572914L435.90625 69.354164L434.8125 69.354164L434.8125 66.322914Q434.15625 67.041664 433.07812 67.041664Q431.92188 67.041664 431.23438 66.15104Q430.5625 65.24479 430.5625 63.77604L430.5625 63.697914ZM431.64062 63.822914Q431.64062 64.90104 432.09375 65.52604Q432.5625 66.15104 433.34375 66.15104Q434.3125 66.15104 434.8125 65.291664L434.8125 62.18229Q434.29688 61.354164 433.35938 61.354164Q432.5625 61.354164 432.09375 61.979164Q431.64062 62.604164 431.64062 63.822914ZM441.73438 66.291664Q441.10938 67.041664 439.875 67.041664Q438.85938 67.041664 438.32812 66.447914Q437.79688 65.854164 437.79688 64.697914L437.79688 60.572914L438.875 60.572914L438.875 64.666664Q438.875 66.11979 440.04688 66.11979Q441.29688 66.11979 441.70312 65.18229L441.70312 60.572914L442.79688 60.572914L442.79688 66.916664L441.76562 66.916664L441.73438 66.291664ZM447.45312 67.041664Q446.15625 67.041664 445.34375 66.197914Q444.54688 65.33854 444.54688 63.916664L444.54688 63.729164Q444.54688 62.77604 444.90625 62.041664Q445.26562 61.291664 445.90625 60.885414Q446.5625 60.46354 447.3125 60.46354Q448.54688 60.46354 449.23438 61.27604Q449.92188 62.08854 449.92188 63.604164L449.92188 64.05729L445.625 64.05729Q445.65625 64.99479 446.17188 65.572914Q446.70312 66.15104 447.51562 66.15104Q448.07812 66.15104 448.46875 65.916664Q448.875 65.68229 449.1875 65.291664L449.84375 65.80729Q449.04688 67.041664 447.45312 67.041664ZM447.3125 61.354164Q446.65625 61.354164 446.20312 61.83854Q445.76562 62.30729 445.67188 63.166664L448.84375 63.166664L448.84375 63.08854Q448.79688 62.260414 448.39062 61.80729Q448.0 61.354164 447.3125 61.354164ZM454.73438 66.291664Q454.10938 67.041664 452.875 67.041664Q451.85938 67.041664 451.32812 66.447914Q450.79688 65.854164 450.79688 64.697914L450.79688 60.572914L451.875 60.572914L451.875 64.666664Q451.875 66.11979 453.04688 66.11979Q454.29688 66.11979 454.70312 65.18229L454.70312 60.572914L455.79688 60.572914L455.79688 66.916664L454.76562 66.916664L454.73438 66.291664ZM460.45312 67.041664Q459.15625 67.041664 458.34375 66.197914Q457.54688 65.33854 457.54688 63.916664L457.54688 63.729164Q457.54688 62.77604 457.90625 62.041664Q458.26562 61.291664 458.90625 60.885414Q459.5625 60.46354 460.3125 60.46354Q461.54688 60.46354 462.23438 61.27604Q462.92188 62.08854 462.92188 63.604164L462.92188 64.05729L458.625 64.05729Q458.65625 64.99479 459.17188 65.572914Q459.70312 66.15104 460.51562 66.15104Q461.07812 66.15104 461.46875 65.916664Q461.875 65.68229 462.1875 65.291664L462.84375 65.80729Q462.04688 67.041664 460.45312 67.041664ZM460.3125 61.354164Q459.65625 61.354164 459.20312 61.83854Q458.76562 62.30729 458.67188 63.166664L461.84375 63.166664L461.84375 63.08854Q461.79688 62.260414 461.39062 61.80729Q461.0 61.354164 460.3125 61.354164Z" fill-rule="nonzero"/><path fill="#757575" d="M20.20625 37.55L20.20625 23.33125L24.846874 23.33125Q27.159374 23.33125 28.33125 24.284374Q29.503124 25.2375 29.503124 27.1125Q29.503124 28.1125 28.925 28.878124Q28.3625 29.64375 27.39375 30.065624Q28.534374 30.39375 29.20625 31.3Q29.878124 32.190624 29.878124 33.440624Q29.878124 35.3625 28.628124 36.45625Q27.39375 37.55 25.128124 37.55L20.20625 37.55ZM22.08125 30.89375L22.08125 36.01875L25.175 36.01875Q26.4875 36.01875 27.2375 35.346874Q27.9875 34.659374 27.9875 33.471874Q27.9875 30.89375 25.20625 30.89375L22.08125 30.89375ZM22.08125 29.39375L24.909374 29.39375Q26.14375 29.39375 26.878124 28.784374Q27.6125 28.159374 27.6125 27.1125Q27.6125 25.940624 26.925 25.409374Q26.253124 24.878124 24.846874 24.878124L22.08125 24.878124L22.08125 29.39375ZM38.440624 36.503124Q37.39375 37.753124 35.346874 37.753124Q33.659374 37.753124 32.76875 36.76875Q31.89375 35.784374 31.878124 33.8625L31.878124 26.9875L33.690624 26.9875L33.690624 33.815624Q33.690624 36.20625 35.64375 36.20625Q37.70625 36.20625 38.39375 34.675L38.39375 26.9875L40.20625 26.9875L40.20625 37.55L38.4875 37.55L38.440624 36.503124ZM43.8 37.55L43.8 28.378124L42.14375 28.378124L42.14375 26.9875L43.8 26.9875L43.8 25.89375Q43.8 24.20625 44.70625 23.284374Q45.628124 22.346874 47.284374 22.346874Q47.909374 22.346874 48.51875 22.503124L48.425 23.971874Q47.971874 23.89375 47.45625 23.89375Q46.565624 23.89375 46.08125 24.409374Q45.6125 24.909374 45.6125 25.8625L45.6125 26.9875L47.8625 26.9875L47.8625 28.378124L45.6125 28.378124L45.6125 37.55L43.8 37.55ZM50.8 37.55L50.8 28.378124L49.14375 28.378124L49.14375 26.9875L50.8 26.9875L50.8 25.89375Q50.8 24.20625 51.70625 23.284374Q52.628124 22.346874 54.284374 22.346874Q54.909374 22.346874 55.51875 22.503124L55.425 23.971874Q54.971874 23.89375 54.45625 23.89375Q53.565624 23.89375 53.08125 24.409374Q52.6125 24.909374 52.6125 25.8625L52.6125 26.9875L54.8625 26.9875L54.8625 28.378124L52.6125 28.378124L52.6125 37.55L50.8 37.55ZM61.3 37.753124Q59.159374 37.753124 57.8 36.346874Q56.45625 34.925 56.45625 32.565624L56.45625 32.221874Q56.45625 30.659374 57.05 29.425Q57.659374 28.190624 58.7375 27.4875Q59.815624 26.784374 61.08125 26.784374Q63.14375 26.784374 64.28438 28.14375Q65.425 29.503124 65.425 32.034374L65.425 32.784374L58.26875 32.784374Q58.3 34.346874 59.175 35.315624Q60.05 36.26875 61.39375 36.26875Q62.3625 36.26875 63.01875 35.878124Q63.690624 35.4875 64.19063 34.846874L65.28438 35.70625Q63.95625 37.753124 61.3 37.753124ZM61.08125 28.26875Q59.9875 28.26875 59.2375 29.065624Q58.503124 29.8625 58.33125 31.3L63.6125 31.3L63.6125 31.159374Q63.534374 29.784374 62.8625 29.034374Q62.20625 28.26875 61.08125 28.26875ZM73.01875 28.596874Q72.6125 28.534374 72.14375 28.534374Q70.3625 28.534374 69.72188 30.05L69.72188 37.55L67.925 37.55L67.925 26.9875L69.675 26.9875L69.70625 28.20625Q70.59688 26.784374 72.22188 26.784374Q72.75313 26.784374 73.01875 26.925L73.01875 28.596874ZM84.39375 31.20625Q81.97188 30.51875 80.87813 29.51875Q79.78438 28.503124 79.78438 27.01875Q79.78438 25.33125 81.12813 24.2375Q82.47188 23.128124 84.6125 23.128124Q86.08125 23.128124 87.22188 23.70625Q88.37813 24.26875 89.00313 25.26875Q89.62813 26.253124 89.62813 27.440624L87.75313 27.440624Q87.75313 26.159374 86.925 25.425Q86.1125 24.675 84.6125 24.675Q83.22188 24.675 82.44063 25.284374Q81.675 25.89375 81.675 26.9875Q81.675 27.846874 82.40938 28.45625Q83.14375 29.05 84.90938 29.55Q86.69063 30.05 87.69063 30.659374Q88.69063 31.253124 89.175 32.05Q89.65938 32.846874 89.65938 33.940624Q89.65938 35.659374 88.31563 36.70625Q86.97188 37.753124 84.70625 37.753124Q83.25313 37.753124 81.97188 37.190624Q80.70625 36.628124 80.01875 35.659374Q79.33125 34.675 79.33125 33.425L81.22188 33.425Q81.22188 34.721874 82.175 35.471874Q83.12813 36.20625 84.70625 36.20625Q86.19063 36.20625 86.9875 35.6125Q87.78438 35.003124 87.78438 33.95625Q87.78438 32.909374 87.05 32.346874Q86.31563 31.76875 84.39375 31.20625ZM93.87813 37.55L92.08125 37.55L92.08125 26.9875L93.87813 26.9875L93.87813 37.55ZM91.925 24.175Q91.925 23.7375 92.19063 23.440624Q92.47188 23.128124 92.9875 23.128124Q93.51875 23.128124 93.78438 23.440624Q94.06563 23.7375 94.06563 24.175Q94.06563 24.6125 93.78438 24.909374Q93.51875 25.20625 92.9875 25.20625Q92.47188 25.20625 92.19063 24.909374Q91.925 24.6125 91.925 24.175ZM98.6125 36.08125L104.8 36.08125L104.8 37.55L96.40938 37.55L96.40938 36.221874L102.2375 28.471874L96.50313 28.471874L96.50313 26.9875L104.50313 26.9875L104.50313 28.26875L98.6125 36.08125ZM111.3 37.753124Q109.15938 37.753124 107.8 36.346874Q106.45625 34.925 106.45625 32.565624L106.45625 32.221874Q106.45625 30.659374 107.05 29.425Q107.65938 28.190624 108.7375 27.4875Q109.81563 26.784374 111.08125 26.784374Q113.14375 26.784374 114.28438 28.14375Q115.425 29.503124 115.425 32.034374L115.425 32.784374L108.26875 32.784374Q108.3 34.346874 109.175 35.315624Q110.05 36.26875 111.39375 36.26875Q112.3625 36.26875 113.01875 35.878124Q113.69063 35.4875 114.19063 34.846874L115.28438 35.70625Q113.95625 37.753124 111.3 37.753124ZM111.08125 28.26875Q109.9875 28.26875 109.2375 29.065624Q108.50313 29.8625 108.33125 31.3L113.6125 31.3L113.6125 31.159374Q113.53438 29.784374 112.8625 29.034374Q112.20625 28.26875 111.08125 28.26875ZM125.3625 29.565624L126.72188 29.565624Q128.00313 29.534374 128.72188 28.89375Q129.45625 28.2375 129.45625 27.1125Q129.45625 24.6125 126.97188 24.6125Q125.8 24.6125 125.09688 25.284374Q124.40938 25.95625 124.40938 27.065624L122.59688 27.065624Q122.59688 25.378124 123.83125 24.253124Q125.06563 23.128124 126.97188 23.128124Q128.9875 23.128124 130.12813 24.20625Q131.26875 25.26875 131.26875 27.159374Q131.26875 28.08125 130.65938 28.95625Q130.06563 29.83125 129.03438 30.253124Q130.20625 30.628124 130.84688 31.4875Q131.4875 32.346874 131.4875 33.58125Q131.4875 35.503124 130.2375 36.628124Q128.9875 37.753124 126.97188 37.753124Q124.97188 37.753124 123.72188 36.675Q122.47188 35.58125 122.47188 33.8L124.28438 33.8Q124.28438 34.925 125.01875 35.596874Q125.75313 36.26875 126.9875 36.26875Q128.28438 36.26875 128.97188 35.596874Q129.675 34.909374 129.675 33.628124Q129.675 32.378124 128.90938 31.721874Q128.15938 31.05 126.72188 31.034374L125.3625 31.034374L125.3625 29.565624ZM143.05 37.55L133.7375 37.55L133.7375 36.253124L138.65938 30.784374Q139.75313 29.534374 140.15938 28.76875Q140.58125 27.9875 140.58125 27.159374Q140.58125 26.05 139.90938 25.33125Q139.2375 24.6125 138.1125 24.6125Q136.75313 24.6125 136.00313 25.39375Q135.26875 26.159374 135.26875 27.51875L133.45625 27.51875Q133.45625 25.55 134.72188 24.346874Q135.9875 23.128124 138.1125 23.128124Q140.09688 23.128124 141.2375 24.175Q142.39375 25.221874 142.39375 26.940624Q142.39375 29.05 139.72188 31.940624L135.90938 36.08125L143.05 36.08125L143.05 37.55ZM148.81563 30.940624L147.08125 32.7375L147.08125 37.55L145.20625 37.55L145.20625 23.33125L147.08125 23.33125L147.08125 30.3625L153.39375 23.33125L155.65938 23.33125L150.06563 29.6125L156.09688 37.55L153.84688 37.55L148.81563 30.940624ZM159.87813 37.55L158.08125 37.55L158.08125 26.9875L159.87813 26.9875L159.87813 37.55ZM157.925 24.175Q157.925 23.7375 158.19063 23.440624Q158.47188 23.128124 158.9875 23.128124Q159.51875 23.128124 159.78438 23.440624Q160.06563 23.7375 160.06563 24.175Q160.06563 24.6125 159.78438 24.909374Q159.51875 25.20625 158.9875 25.20625Q158.47188 25.20625 158.19063 24.909374Q157.925 24.6125 157.925 24.175ZM163.20625 37.55L163.20625 23.33125L167.84688 23.33125Q170.15938 23.33125 171.33125 24.284374Q172.50313 25.2375 172.50313 27.1125Q172.50313 28.1125 171.925 28.878124Q171.3625 29.64375 170.39375 30.065624Q171.53438 30.39375 172.20625 31.3Q172.87813 32.190624 172.87813 33.440624Q172.87813 35.3625 171.62813 36.45625Q170.39375 37.55 168.12813 37.55L163.20625 37.55ZM165.08125 30.89375L165.08125 36.01875L168.175 36.01875Q169.4875 36.01875 170.2375 35.346874Q170.9875 34.659374 170.9875 33.471874Q170.9875 30.89375 168.20625 30.89375L165.08125 30.89375ZM165.08125 29.39375L167.90938 29.39375Q169.14375 29.39375 169.87813 28.784374Q170.6125 28.159374 170.6125 27.1125Q170.6125 25.940624 169.925 25.409374Q169.25313 24.878124 167.84688 24.878124L165.08125 24.878124L165.08125 29.39375Z" fill-rule="nonzero"/></svg>