<svg version="1.1" viewBox="0.0 0.0 600.0 371.0" fill="none" stroke="none" stroke-linecap="square" stroke-miterlimit="10" width="600" height="371" xmlns:xlink="http://www.w3.org/1999/xlink" xmlns="http://www.w3.org/2000/svg"><path fill="#ffffff" d="M0 0L600.0 0L600.0 371.0L0 371.0L0 0Z" fill-rule="nonzero"/><path stroke="#333333" stroke-width="1.0" stroke-linecap="butt" d="M54.5 331.5L581.5 331.5" fill-rule="nonzero"/><path stroke="#cccccc" stroke-width="1.0" stroke-linecap="butt" d="M54.5 250.5L581.5 250.5" fill-rule="nonzero"/><path stroke="#cccccc" stroke-width="1.0" stroke-linecap="butt" d="M54.5 170.5L581.5 170.5" fill-rule="nonzero"/><path stroke="#cccccc" stroke-width="1.0" stroke-linecap="butt" d="M54.5 89.5L581.5 89.5" fill-rule="nonzero"/><clipPath id="id_0"><path d="M54.55 89.78333L581.45 89.78333L581.45 331.45L54.55 331.45L54.55 89.78333Z" clip-rule="nonzero"/></clipPath><path stroke="#000000" stroke-width="0.0" stroke-linecap="butt" stroke-opacity="0.0" clip-path="url(#id_0)" d="M86.0 331.0L77.0 331.0L77.0 275.0C77.0 273.89542 77.89543 273.0 79.0 273.0L84.0 273.0C85.10457 273.0 86.0 273.89542 86.0 275.0Z" fill-rule="nonzero"/><path fill="#4285f4" clip-path="url(#id_0)" d="M86.0 331.0L77.0 331.0L77.0 275.0C77.0 273.89542 77.89543 273.0 79.0 273.0L84.0 273.0C85.10457 273.0 86.0 273.89542 86.0 275.0Z" fill-rule="nonzero"/><path stroke="#000000" stroke-width="0.0" stroke-linecap="butt" stroke-opacity="0.0" clip-path="url(#id_0)" d="M149.0 331.0L140.0 331.0L140.0 272.0C140.0 270.89542 140.89543 270.0 142.0 270.0L147.0 270.0C148.10457 270.0 149.0 270.89542 149.0 272.0Z" fill-rule="nonzero"/><path fill="#4285f4" clip-path="url(#id_0)" d="M149.0 331.0L140.0 331.0L140.0 272.0C140.0 270.89542 140.89543 270.0 142.0 270.0L147.0 270.0C148.10457 270.0 149.0 270.89542 149.0 272.0Z" fill-rule="nonzero"/><path stroke="#000000" stroke-width="0.0" stroke-linecap="butt" stroke-opacity="0.0" clip-path="url(#id_0)" d="M212.0 331.0L203.0 331.0L203.0 261.0C203.0 259.89542 203.89543 259.0 205.0 259.0L210.0 259.0C211.10457 259.0 212.0 259.89542 212.0 261.0Z" fill-rule="nonzero"/><path fill="#4285f4" clip-path="url(#id_0)" d="M212.0 331.0L203.0 331.0L203.0 261.0C203.0 259.89542 203.89543 259.0 205.0 259.0L210.0 259.0C211.10457 259.0 212.0 259.89542 212.0 261.0Z" fill-rule="nonzero"/><path stroke="#000000" stroke-width="0.0" stroke-linecap="butt" stroke-opacity="0.0" clip-path="url(#id_0)" d="M275.0 331.0L266.0 331.0L266.0 269.0C266.0 267.89542 266.89542 267.0 268.0 267.0L273.0 267.0C274.10458 267.0 275.0 267.89542 275.0 269.0Z" fill-rule="nonzero"/><path fill="#4285f4" clip-path="url(#id_0)" d="M275.0 331.0L266.0 331.0L266.0 269.0C266.0 267.89542 266.89542 267.0 268.0 267.0L273.0 267.0C274.10458 267.0 275.0 267.89542 275.0 269.0Z" fill-rule="nonzero"/><path stroke="#000000" stroke-width="0.0" stroke-linecap="butt" stroke-opacity="0.0" clip-path="url(#id_0)" d="M339.0 331.0L330.0 331.0L330.0 258.0C330.0 256.89542 330.89542 256.0 332.0 256.0L337.0 256.0C338.10458 256.0 339.0 256.89542 339.0 258.0Z" fill-rule="nonzero"/><path fill="#4285f4" clip-path="url(#id_0)" d="M339.0 331.0L330.0 331.0L330.0 258.0C330.0 256.89542 330.89542 256.0 332.0 256.0L337.0 256.0C338.10458 256.0 339.0 256.89542 339.0 258.0Z" fill-rule="nonzero"/><path stroke="#000000" stroke-width="0.0" stroke-linecap="butt" stroke-opacity="0.0" clip-path="url(#id_0)" d="M402.0 331.0L393.0 331.0L393.0 263.0C393.0 261.89542 393.89542 261.0 395.0 261.0L400.0 261.0C401.10458 261.0 402.0 261.89542 402.0 263.0Z" fill-rule="nonzero"/><path fill="#4285f4" clip-path="url(#id_0)" d="M402.0 331.0L393.0 331.0L393.0 263.0C393.0 261.89542 393.89542 261.0 395.0 261.0L400.0 261.0C401.10458 261.0 402.0 261.89542 402.0 263.0Z" fill-rule="nonzero"/><path stroke="#000000" stroke-width="0.0" stroke-linecap="butt" stroke-opacity="0.0" clip-path="url(#id_0)" d="M465.0 331.0L456.0 331.0L456.0 257.0C456.0 255.89543 456.89542 255.0 458.0 255.0L463.0 255.0C464.10458 255.0 465.0 255.89543 465.0 257.0Z" fill-rule="nonzero"/><path fill="#4285f4" clip-path="url(#id_0)" d="M465.0 331.0L456.0 331.0L456.0 257.0C456.0 255.89543 456.89542 255.0 458.0 255.0L463.0 255.0C464.10458 255.0 465.0 255.89543 465.0 257.0Z" fill-rule="nonzero"/><path stroke="#000000" stroke-width="0.0" stroke-linecap="butt" stroke-opacity="0.0" clip-path="url(#id_0)" d="M528.0 331.0L519.0 331.0L519.0 262.0C519.0 260.89542 519.89545 260.0 521.0 260.0L526.0 260.0C527.10455 260.0 528.0 260.89542 528.0 262.0Z" fill-rule="nonzero"/><path fill="#4285f4" clip-path="url(#id_0)" d="M528.0 331.0L519.0 331.0L519.0 262.0C519.0 260.89542 519.89545 260.0 521.0 260.0L526.0 260.0C527.10455 260.0 528.0 260.89542 528.0 262.0Z" fill-rule="nonzero"/><path stroke="#000000" stroke-width="0.0" stroke-linecap="butt" stroke-opacity="0.0" clip-path="url(#id_0)" d="M96.0 331.0L87.0 331.0L87.0 268.0C87.0 266.89542 87.89543 266.0 89.0 266.0L94.0 266.0C95.10457 266.0 96.0 266.89542 96.0 268.0Z" fill-rule="nonzero"/><path fill="#db4437" clip-path="url(#id_0)" d="M96.0 331.0L87.0 331.0L87.0 268.0C87.0 266.89542 87.89543 266.0 89.0 266.0L94.0 266.0C95.10457 266.0 96.0 266.89542 96.0 268.0Z" fill-rule="nonzero"/><path stroke="#000000" stroke-width="0.0" stroke-linecap="butt" stroke-opacity="0.0" clip-path="url(#id_0)" d="M159.0 331.0L150.0 331.0L150.0 273.0C150.0 271.89542 150.89543 271.0 152.0 271.0L157.0 271.0C158.10457 271.0 159.0 271.89542 159.0 273.0Z" fill-rule="nonzero"/><path fill="#db4437" clip-path="url(#id_0)" d="M159.0 331.0L150.0 331.0L150.0 273.0C150.0 271.89542 150.89543 271.0 152.0 271.0L157.0 271.0C158.10457 271.0 159.0 271.89542 159.0 273.0Z" fill-rule="nonzero"/><path stroke="#000000" stroke-width="0.0" stroke-linecap="butt" stroke-opacity="0.0" clip-path="url(#id_0)" d="M222.0 331.0L213.0 331.0L213.0 261.0C213.0 259.89542 213.89543 259.0 215.0 259.0L220.0 259.0C221.10457 259.0 222.0 259.89542 222.0 261.0Z" fill-rule="nonzero"/><path fill="#db4437" clip-path="url(#id_0)" d="M222.0 331.0L213.0 331.0L213.0 261.0C213.0 259.89542 213.89543 259.0 215.0 259.0L220.0 259.0C221.10457 259.0 222.0 259.89542 222.0 261.0Z" fill-rule="nonzero"/><path stroke="#000000" stroke-width="0.0" stroke-linecap="butt" stroke-opacity="0.0" clip-path="url(#id_0)" d="M285.0 331.0L276.0 331.0L276.0 269.0C276.0 267.89542 276.89542 267.0 278.0 267.0L283.0 267.0C284.10458 267.0 285.0 267.89542 285.0 269.0Z" fill-rule="nonzero"/><path fill="#db4437" clip-path="url(#id_0)" d="M285.0 331.0L276.0 331.0L276.0 269.0C276.0 267.89542 276.89542 267.0 278.0 267.0L283.0 267.0C284.10458 267.0 285.0 267.89542 285.0 269.0Z" fill-rule="nonzero"/><path stroke="#000000" stroke-width="0.0" stroke-linecap="butt" stroke-opacity="0.0" clip-path="url(#id_0)" d="M349.0 331.0L340.0 331.0L340.0 258.0C340.0 256.89542 340.89542 256.0 342.0 256.0L347.0 256.0C348.10458 256.0 349.0 256.89542 349.0 258.0Z" fill-rule="nonzero"/><path fill="#db4437" clip-path="url(#id_0)" d="M349.0 331.0L340.0 331.0L340.0 258.0C340.0 256.89542 340.89542 256.0 342.0 256.0L347.0 256.0C348.10458 256.0 349.0 256.89542 349.0 258.0Z" fill-rule="nonzero"/><path stroke="#000000" stroke-width="0.0" stroke-linecap="butt" stroke-opacity="0.0" clip-path="url(#id_0)" d="M412.0 331.0L403.0 331.0L403.0 260.0C403.0 258.89542 403.89542 258.0 405.0 258.0L410.0 258.0C411.10458 258.0 412.0 258.89542 412.0 260.0Z" fill-rule="nonzero"/><path fill="#db4437" clip-path="url(#id_0)" d="M412.0 331.0L403.0 331.0L403.0 260.0C403.0 258.89542 403.89542 258.0 405.0 258.0L410.0 258.0C411.10458 258.0 412.0 258.89542 412.0 260.0Z" fill-rule="nonzero"/><path stroke="#000000" stroke-width="0.0" stroke-linecap="butt" stroke-opacity="0.0" clip-path="url(#id_0)" d="M475.0 331.0L466.0 331.0L466.0 255.0C466.0 253.89543 466.89542 253.0 468.0 253.0L473.0 253.0C474.10458 253.0 475.0 253.89543 475.0 255.0Z" fill-rule="nonzero"/><path fill="#db4437" clip-path="url(#id_0)" d="M475.0 331.0L466.0 331.0L466.0 255.0C466.0 253.89543 466.89542 253.0 468.0 253.0L473.0 253.0C474.10458 253.0 475.0 253.89543 475.0 255.0Z" fill-rule="nonzero"/><path stroke="#000000" stroke-width="0.0" stroke-linecap="butt" stroke-opacity="0.0" clip-path="url(#id_0)" d="M538.0 331.0L529.0 331.0L529.0 251.0C529.0 249.89543 529.89545 249.0 531.0 249.0L536.0 249.0C537.10455 249.0 538.0 249.89543 538.0 251.0Z" fill-rule="nonzero"/><path fill="#db4437" clip-path="url(#id_0)" d="M538.0 331.0L529.0 331.0L529.0 251.0C529.0 249.89543 529.89545 249.0 531.0 249.0L536.0 249.0C537.10455 249.0 538.0 249.89543 538.0 251.0Z" fill-rule="nonzero"/><path stroke="#000000" stroke-width="0.0" stroke-linecap="butt" stroke-opacity="0.0" clip-path="url(#id_0)" d="M106.0 331.0L97.0 331.0L97.0 312.0C97.0 310.89542 97.89543 310.0 99.0 310.0L104.0 310.0C105.10457 310.0 106.0 310.89542 106.0 312.0Z" fill-rule="nonzero"/><path fill="#f4b400" clip-path="url(#id_0)" d="M106.0 331.0L97.0 331.0L97.0 312.0C97.0 310.89542 97.89543 310.0 99.0 310.0L104.0 310.0C105.10457 310.0 106.0 310.89542 106.0 312.0Z" fill-rule="nonzero"/><path stroke="#000000" stroke-width="0.0" stroke-linecap="butt" stroke-opacity="0.0" clip-path="url(#id_0)" d="M169.0 331.0L160.0 331.0L160.0 310.0C160.0 308.89542 160.89543 308.0 162.0 308.0L167.0 308.0C168.10457 308.0 169.0 308.89542 169.0 310.0Z" fill-rule="nonzero"/><path fill="#f4b400" clip-path="url(#id_0)" d="M169.0 331.0L160.0 331.0L160.0 310.0C160.0 308.89542 160.89543 308.0 162.0 308.0L167.0 308.0C168.10457 308.0 169.0 308.89542 169.0 310.0Z" fill-rule="nonzero"/><path stroke="#000000" stroke-width="0.0" stroke-linecap="butt" stroke-opacity="0.0" clip-path="url(#id_0)" d="M232.0 331.0L223.0 331.0L223.0 310.0C223.0 308.89542 223.89543 308.0 225.0 308.0L230.0 308.0C231.10457 308.0 232.0 308.89542 232.0 310.0Z" fill-rule="nonzero"/><path fill="#f4b400" clip-path="url(#id_0)" d="M232.0 331.0L223.0 331.0L223.0 310.0C223.0 308.89542 223.89543 308.0 225.0 308.0L230.0 308.0C231.10457 308.0 232.0 308.89542 232.0 310.0Z" fill-rule="nonzero"/><path stroke="#000000" stroke-width="0.0" stroke-linecap="butt" stroke-opacity="0.0" clip-path="url(#id_0)" d="M295.0 331.0L286.0 331.0L286.0 310.0C286.0 308.89542 286.89542 308.0 288.0 308.0L293.0 308.0C294.10458 308.0 295.0 308.89542 295.0 310.0Z" fill-rule="nonzero"/><path fill="#f4b400" clip-path="url(#id_0)" d="M295.0 331.0L286.0 331.0L286.0 310.0C286.0 308.89542 286.89542 308.0 288.0 308.0L293.0 308.0C294.10458 308.0 295.0 308.89542 295.0 310.0Z" fill-rule="nonzero"/><path stroke="#000000" stroke-width="0.0" stroke-linecap="butt" stroke-opacity="0.0" clip-path="url(#id_0)" d="M359.0 331.0L350.0 331.0L350.0 179.0C350.0 177.89543 350.89542 177.0 352.0 177.0L357.0 177.0C358.10458 177.0 359.0 177.89543 359.0 179.0Z" fill-rule="nonzero"/><path fill="#f4b400" clip-path="url(#id_0)" d="M359.0 331.0L350.0 331.0L350.0 179.0C350.0 177.89543 350.89542 177.0 352.0 177.0L357.0 177.0C358.10458 177.0 359.0 177.89543 359.0 179.0Z" fill-rule="nonzero"/><path stroke="#000000" stroke-width="0.0" stroke-linecap="butt" stroke-opacity="0.0" clip-path="url(#id_0)" d="M422.0 331.0L413.0 331.0L413.0 169.0C413.0 167.89543 413.89542 167.0 415.0 167.0L420.0 167.0C421.10458 167.0 422.0 167.89543 422.0 169.0Z" fill-rule="nonzero"/><path fill="#f4b400" clip-path="url(#id_0)" d="M422.0 331.0L413.0 331.0L413.0 169.0C413.0 167.89543 413.89542 167.0 415.0 167.0L420.0 167.0C421.10458 167.0 422.0 167.89543 422.0 169.0Z" fill-rule="nonzero"/><path stroke="#000000" stroke-width="0.0" stroke-linecap="butt" stroke-opacity="0.0" clip-path="url(#id_0)" d="M485.0 331.0L476.0 331.0L476.0 113.0C476.0 111.89543 476.89542 111.0 478.0 111.0L483.0 111.0C484.10458 111.0 485.0 111.89543 485.0 113.0Z" fill-rule="nonzero"/><path fill="#f4b400" clip-path="url(#id_0)" d="M485.0 331.0L476.0 331.0L476.0 113.0C476.0 111.89543 476.89542 111.0 478.0 111.0L483.0 111.0C484.10458 111.0 485.0 111.89543 485.0 113.0Z" fill-rule="nonzero"/><path stroke="#000000" stroke-width="0.0" stroke-linecap="butt" stroke-opacity="0.0" clip-path="url(#id_0)" d="M548.0 331.0L539.0 331.0L539.0 92.0C539.0 90.89543 539.89545 90.0 541.0 90.0L546.0 90.0C547.10455 90.0 548.0 90.89543 548.0 92.0Z" fill-rule="nonzero"/><path fill="#f4b400" clip-path="url(#id_0)" d="M548.0 331.0L539.0 331.0L539.0 92.0C539.0 90.89543 539.89545 90.0 541.0 90.0L546.0 90.0C547.10455 90.0 548.0 90.89543 548.0 92.0Z" fill-rule="nonzero"/><path stroke="#000000" stroke-width="0.0" stroke-linecap="butt" stroke-opacity="0.0" clip-path="url(#id_0)" d="M116.0 331.0L107.0 331.0L107.0 317.0C107.0 315.89542 107.89543 315.0 109.0 315.0L114.0 315.0C115.10457 315.0 116.0 315.89542 116.0 317.0Z" fill-rule="nonzero"/><path fill="#0f9d58" clip-path="url(#id_0)" d="M116.0 331.0L107.0 331.0L107.0 317.0C107.0 315.89542 107.89543 315.0 109.0 315.0L114.0 315.0C115.10457 315.0 116.0 315.89542 116.0 317.0Z" fill-rule="nonzero"/><path stroke="#000000" stroke-width="0.0" stroke-linecap="butt" stroke-opacity="0.0" clip-path="url(#id_0)" d="M179.0 331.0L170.0 331.0L170.0 317.0C170.0 315.89542 170.89543 315.0 172.0 315.0L177.0 315.0C178.10457 315.0 179.0 315.89542 179.0 317.0Z" fill-rule="nonzero"/><path fill="#0f9d58" clip-path="url(#id_0)" d="M179.0 331.0L170.0 331.0L170.0 317.0C170.0 315.89542 170.89543 315.0 172.0 315.0L177.0 315.0C178.10457 315.0 179.0 315.89542 179.0 317.0Z" fill-rule="nonzero"/><path stroke="#000000" stroke-width="0.0" stroke-linecap="butt" stroke-opacity="0.0" clip-path="url(#id_0)" d="M242.0 331.0L233.0 331.0L233.0 297.0C233.0 295.89542 233.89543 295.0 235.0 295.0L240.0 295.0C241.10457 295.0 242.0 295.89542 242.0 297.0Z" fill-rule="nonzero"/><path fill="#0f9d58" clip-path="url(#id_0)" d="M242.0 331.0L233.0 331.0L233.0 297.0C233.0 295.89542 233.89543 295.0 235.0 295.0L240.0 295.0C241.10457 295.0 242.0 295.89542 242.0 297.0Z" fill-rule="nonzero"/><path stroke="#000000" stroke-width="0.0" stroke-linecap="butt" stroke-opacity="0.0" clip-path="url(#id_0)" d="M305.0 331.0L296.0 331.0L296.0 317.0C296.0 315.89542 296.89542 315.0 298.0 315.0L303.0 315.0C304.10458 315.0 305.0 315.89542 305.0 317.0Z" fill-rule="nonzero"/><path fill="#0f9d58" clip-path="url(#id_0)" d="M305.0 331.0L296.0 331.0L296.0 317.0C296.0 315.89542 296.89542 315.0 298.0 315.0L303.0 315.0C304.10458 315.0 305.0 315.89542 305.0 317.0Z" fill-rule="nonzero"/><path stroke="#000000" stroke-width="0.0" stroke-linecap="butt" stroke-opacity="0.0" clip-path="url(#id_0)" d="M369.0 331.0L360.0 331.0L360.0 287.0C360.0 285.89542 360.89542 285.0 362.0 285.0L367.0 285.0C368.10458 285.0 369.0 285.89542 369.0 287.0Z" fill-rule="nonzero"/><path fill="#0f9d58" clip-path="url(#id_0)" d="M369.0 331.0L360.0 331.0L360.0 287.0C360.0 285.89542 360.89542 285.0 362.0 285.0L367.0 285.0C368.10458 285.0 369.0 285.89542 369.0 287.0Z" fill-rule="nonzero"/><path stroke="#000000" stroke-width="0.0" stroke-linecap="butt" stroke-opacity="0.0" clip-path="url(#id_0)" d="M432.0 331.0L423.0 331.0L423.0 289.0C423.0 287.89542 423.89542 287.0 425.0 287.0L430.0 287.0C431.10458 287.0 432.0 287.89542 432.0 289.0Z" fill-rule="nonzero"/><path fill="#0f9d58" clip-path="url(#id_0)" d="M432.0 331.0L423.0 331.0L423.0 289.0C423.0 287.89542 423.89542 287.0 425.0 287.0L430.0 287.0C431.10458 287.0 432.0 287.89542 432.0 289.0Z" fill-rule="nonzero"/><path stroke="#000000" stroke-width="0.0" stroke-linecap="butt" stroke-opacity="0.0" clip-path="url(#id_0)" d="M495.0 331.0L486.0 331.0L486.0 274.0C486.0 272.89542 486.89542 272.0 488.0 272.0L493.0 272.0C494.10458 272.0 495.0 272.89542 495.0 274.0Z" fill-rule="nonzero"/><path fill="#0f9d58" clip-path="url(#id_0)" d="M495.0 331.0L486.0 331.0L486.0 274.0C486.0 272.89542 486.89542 272.0 488.0 272.0L493.0 272.0C494.10458 272.0 495.0 272.89542 495.0 274.0Z" fill-rule="nonzero"/><path stroke="#000000" stroke-width="0.0" stroke-linecap="butt" stroke-opacity="0.0" clip-path="url(#id_0)" d="M558.0 331.0L549.0 331.0L549.0 293.0C549.0 291.89542 549.89545 291.0 551.0 291.0L556.0 291.0C557.10455 291.0 558.0 291.89542 558.0 293.0Z" fill-rule="nonzero"/><path fill="#0f9d58" clip-path="url(#id_0)" d="M558.0 331.0L549.0 331.0L549.0 293.0C549.0 291.89542 549.89545 291.0 551.0 291.0L556.0 291.0C557.10455 291.0 558.0 291.89542 558.0 293.0Z" fill-rule="nonzero"/><path fill="#757575" d="M31.6125 332.3094Q31.6125 334.21564 30.95625 335.15314Q30.315624 336.075 28.925 336.075Q27.565624 336.075 26.909374 335.16876Q26.253124 334.2625 26.221874 332.45L26.221874 331.0125Q26.221874 329.1219 26.8625 328.21564Q27.51875 327.29376 28.909374 327.29376Q30.284374 327.29376 30.940624 328.1844Q31.596874 329.0594 31.6125 330.90314L31.6125 332.3094ZM30.51875 330.825Q30.51875 329.45 30.128124 328.825Q29.753124 328.1844 28.909374 328.1844Q28.08125 328.1844 27.690624 328.825Q27.315624 329.45 27.315624 330.7469L27.315624 332.48126Q27.315624 333.85626 27.70625 334.52814Q28.1125 335.1844 28.925 335.1844Q29.721874 335.1844 30.1125 334.5594Q30.503124 333.9344 30.51875 332.60626L30.51875 330.825ZM37.39375 329.60626L37.425 330.40314Q38.159374 329.4969 39.33125 329.4969Q41.346874 329.4969 41.3625 331.7625L41.3625 335.95L40.26875 335.95L40.26875 331.7469Q40.26875 331.075 39.95625 330.7469Q39.659374 330.41876 39.003124 330.41876Q38.471874 330.41876 38.065624 330.7Q37.675 330.98126 37.45625 331.4344L37.45625 335.95L36.378124 335.95L36.378124 329.60626L37.39375 329.60626ZM47.065624 334.2625Q47.065624 333.825 46.721874 333.59064Q46.39375 333.34064 45.565624 333.16876Q44.753124 332.9969 44.26875 332.7469Q43.784374 332.4969 43.55 332.16876Q43.33125 331.825 43.33125 331.35626Q43.33125 330.575 43.9875 330.04376Q44.64375 329.4969 45.675 329.4969Q46.753124 329.4969 47.409374 330.0594Q48.08125 330.60626 48.08125 331.46564L47.003124 331.46564Q47.003124 331.02814 46.6125 330.71564Q46.2375 330.3875 45.675 330.3875Q45.08125 330.3875 44.7375 330.65314Q44.409374 330.90314 44.409374 331.3094Q44.409374 331.7 44.721874 331.90314Q45.034374 332.10626 45.846874 332.29376Q46.659374 332.46564 47.159374 332.71564Q47.659374 332.96564 47.89375 333.325Q48.14375 333.6844 48.14375 334.1844Q48.14375 335.04376 47.45625 335.5594Q46.784374 336.075 45.70625 336.075Q44.940624 336.075 44.346874 335.8094Q43.76875 335.52814 43.440624 335.04376Q43.1125 334.5594 43.1125 333.9969L44.190624 333.9969Q44.221874 334.54376 44.628124 334.8719Q45.034374 335.1844 45.70625 335.1844Q46.315624 335.1844 46.690624 334.9344Q47.065624 334.6844 47.065624 334.2625Z" fill-rule="nonzero"/><path fill="#757575" d="M26.753124 251.11319L27.190624 246.86319L31.565624 246.86319L31.565624 247.86319L28.1125 247.86319L27.846874 250.19131Q28.4875 249.81631 29.284374 249.81631Q30.440624 249.81631 31.128124 250.59756Q31.815624 251.36319 31.815624 252.67569Q31.815624 253.98819 31.096874 254.75381Q30.39375 255.51944 29.1125 255.51944Q27.9875 255.51944 27.26875 254.89444Q26.55 254.25381 26.45625 253.14444L27.471874 253.14444Q27.58125 253.87881 28.003124 254.25381Q28.425 254.62881 29.1125 254.62881Q29.8625 254.62881 30.3 254.11319Q30.7375 253.59756 30.7375 252.69131Q30.7375 251.83194 30.26875 251.31631Q29.8 250.80069 29.01875 250.80069Q28.315624 250.80069 27.909374 251.09756L27.628124 251.33194L26.753124 251.11319ZM37.39375 249.05069L37.425 249.84756Q38.159374 248.94131 39.33125 248.94131Q41.346874 248.94131 41.3625 251.20694L41.3625 255.39444L40.26875 255.39444L40.26875 251.19131Q40.26875 250.51944 39.95625 250.19131Q39.659374 249.86319 39.003124 249.86319Q38.471874 249.86319 38.065624 250.14444Q37.675 250.42569 37.45625 250.87881L37.45625 255.39444L36.378124 255.39444L36.378124 249.05069L37.39375 249.05069ZM47.065624 253.70694Q47.065624 253.26944 46.721874 253.03506Q46.39375 252.78506 45.565624 252.61319Q44.753124 252.44131 44.26875 252.19131Q43.784374 251.94131 43.55 251.61319Q43.33125 251.26944 43.33125 250.80069Q43.33125 250.01944 43.9875 249.48819Q44.64375 248.94131 45.675 248.94131Q46.753124 248.94131 47.409374 249.50381Q48.08125 250.05069 48.08125 250.91006L47.003124 250.91006Q47.003124 250.47256 46.6125 250.16006Q46.2375 249.83194 45.675 249.83194Q45.08125 249.83194 44.7375 250.09756Q44.409374 250.34756 44.409374 250.75381Q44.409374 251.14444 44.721874 251.34756Q45.034374 251.55069 45.846874 251.73819Q46.659374 251.91006 47.159374 252.16006Q47.659374 252.41006 47.89375 252.76944Q48.14375 253.12881 48.14375 253.62881Q48.14375 254.48819 47.45625 255.00381Q46.784374 255.51944 45.70625 255.51944Q44.940624 255.51944 44.346874 255.25381Q43.76875 254.97256 43.440624 254.48819Q43.1125 254.00381 43.1125 253.44131L44.190624 253.44131Q44.221874 253.98819 44.628124 254.31631Q45.034374 254.62881 45.70625 254.62881Q46.315624 254.62881 46.690624 254.37881Q47.065624 254.12881 47.065624 253.70694Z" fill-rule="nonzero"/><path fill="#757575" d="M22.815624 174.83888L21.7375 174.83888L21.7375 167.62013L19.55 168.417L19.55 167.43263L22.659374 166.26076L22.815624 166.26076L22.815624 174.83888ZM31.6125 171.19826Q31.6125 173.1045 30.95625 174.042Q30.315624 174.96388 28.925 174.96388Q27.565624 174.96388 26.909374 174.05763Q26.253124 173.15138 26.221874 171.33888L26.221874 169.90138Q26.221874 168.01076 26.8625 167.1045Q27.51875 166.18263 28.909374 166.18263Q30.284374 166.18263 30.940624 167.07326Q31.596874 167.94826 31.6125 169.792L31.6125 171.19826ZM30.51875 169.71388Q30.51875 168.33888 30.128124 167.71388Q29.753124 167.07326 28.909374 167.07326Q28.08125 167.07326 27.690624 167.71388Q27.315624 168.33888 27.315624 169.63576L27.315624 171.37013Q27.315624 172.74513 27.70625 173.417Q28.1125 174.07326 28.925 174.07326Q29.721874 174.07326 30.1125 173.44826Q30.503124 172.82326 30.51875 171.49513L30.51875 169.71388ZM37.39375 168.49513L37.425 169.292Q38.159374 168.38576 39.33125 168.38576Q41.346874 168.38576 41.3625 170.65138L41.3625 174.83888L40.26875 174.83888L40.26875 170.63576Q40.26875 169.96388 39.95625 169.63576Q39.659374 169.30763 39.003124 169.30763Q38.471874 169.30763 38.065624 169.58888Q37.675 169.87013 37.45625 170.32326L37.45625 174.83888L36.378124 174.83888L36.378124 168.49513L37.39375 168.49513ZM47.065624 173.15138Q47.065624 172.71388 46.721874 172.4795Q46.39375 172.2295 45.565624 172.05763Q44.753124 171.88576 44.26875 171.63576Q43.784374 171.38576 43.55 171.05763Q43.33125 170.71388 43.33125 170.24513Q43.33125 169.46388 43.9875 168.93263Q44.64375 168.38576 45.675 168.38576Q46.753124 168.38576 47.409374 168.94826Q48.08125 169.49513 48.08125 170.3545L47.003124 170.3545Q47.003124 169.917 46.6125 169.6045Q46.2375 169.27638 45.675 169.27638Q45.08125 169.27638 44.7375 169.542Q44.409374 169.792 44.409374 170.19826Q44.409374 170.58888 44.721874 170.792Q45.034374 170.99513 45.846874 171.18263Q46.659374 171.3545 47.159374 171.6045Q47.659374 171.8545 47.89375 172.21388Q48.14375 172.57326 48.14375 173.07326Q48.14375 173.93263 47.45625 174.44826Q46.784374 174.96388 45.70625 174.96388Q44.940624 174.96388 44.346874 174.69826Q43.76875 174.417 43.440624 173.93263Q43.1125 173.44826 43.1125 172.88576L44.190624 172.88576Q44.221874 173.43263 44.628124 173.76076Q45.034374 174.07326 45.70625 174.07326Q46.315624 174.07326 46.690624 173.82326Q47.065624 173.57326 47.065624 173.15138Z" fill-rule="nonzero"/><path fill="#757575" d="M22.815624 94.28333L21.7375 94.28333L21.7375 87.06458L19.55 87.86146L19.55 86.87708L22.659374 85.70521L22.815624 85.70521L22.815624 94.28333ZM26.753124 90.00208L27.190624 85.75208L31.565624 85.75208L31.565624 86.75208L28.1125 86.75208L27.846874 89.08021Q28.4875 88.70521 29.284374 88.70521Q30.440624 88.70521 31.128124 89.48646Q31.815624 90.25208 31.815624 91.56458Q31.815624 92.87708 31.096874 93.64271Q30.39375 94.40833 29.1125 94.40833Q27.9875 94.40833 27.26875 93.78333Q26.55 93.14271 26.45625 92.03333L27.471874 92.03333Q27.58125 92.76771 28.003124 93.14271Q28.425 93.51771 29.1125 93.51771Q29.8625 93.51771 30.3 93.00208Q30.7375 92.48646 30.7375 91.58021Q30.7375 90.72083 30.26875 90.20521Q29.8 89.68958 29.01875 89.68958Q28.315624 89.68958 27.909374 89.98646L27.628124 90.22083L26.753124 90.00208ZM37.39375 87.93958L37.425 88.73646Q38.159374 87.83021 39.33125 87.83021Q41.346874 87.83021 41.3625 90.09583L41.3625 94.28333L40.26875 94.28333L40.26875 90.08021Q40.26875 89.40833 39.95625 89.08021Q39.659374 88.75208 39.003124 88.75208Q38.471874 88.75208 38.065624 89.03333Q37.675 89.31458 37.45625 89.76771L37.45625 94.28333L36.378124 94.28333L36.378124 87.93958L37.39375 87.93958ZM47.065624 92.59583Q47.065624 92.15833 46.721874 91.92396Q46.39375 91.67396 45.565624 91.50208Q44.753124 91.33021 44.26875 91.08021Q43.784374 90.83021 43.55 90.50208Q43.33125 90.15833 43.33125 89.68958Q43.33125 88.90833 43.9875 88.37708Q44.64375 87.83021 45.675 87.83021Q46.753124 87.83021 47.409374 88.39271Q48.08125 88.93958 48.08125 89.79896L47.003124 89.79896Q47.003124 89.36146 46.6125 89.04896Q46.2375 88.72083 45.675 88.72083Q45.08125 88.72083 44.7375 88.98646Q44.409374 89.23646 44.409374 89.64271Q44.409374 90.03333 44.721874 90.23646Q45.034374 90.43958 45.846874 90.62708Q46.659374 90.79896 47.159374 91.04896Q47.659374 91.29896 47.89375 91.65833Q48.14375 92.01771 48.14375 92.51771Q48.14375 93.37708 47.45625 93.89271Q46.784374 94.40833 45.70625 94.40833Q44.940624 94.40833 44.346874 94.14271Q43.76875 93.86146 43.440624 93.37708Q43.1125 92.89271 43.1125 92.33021L44.190624 92.33021Q44.221874 92.87708 44.628124 93.20521Q45.034374 93.51771 45.70625 93.51771Q46.315624 93.51771 46.690624 93.26771Q47.065624 93.01771 47.065624 92.59583Z" fill-rule="nonzero"/><path fill="#757575" d="M99.53434 343.1375Q99.53434 343.77814 99.19059 344.27814Q98.84684 344.77814 98.28434 345.0594Q98.94059 345.34064 99.331215 345.90314Q99.72184 346.45 99.72184 347.15314Q99.72184 348.2469 98.97184 348.91876Q98.237465 349.575 97.018715 349.575Q95.78434 349.575 95.03434 348.91876Q94.299965 348.2469 94.299965 347.15314Q94.299965 346.45 94.674965 345.90314Q95.049965 345.34064 95.72184 345.0594Q95.15934 344.77814 94.831215 344.27814Q94.50309 343.77814 94.50309 343.1375Q94.50309 342.0594 95.19059 341.4344Q95.87809 340.79376 97.018715 340.79376Q98.143715 340.79376 98.831215 341.4344Q99.53434 342.0594 99.53434 343.1375ZM98.643715 347.1219Q98.643715 346.40314 98.19059 345.96564Q97.737465 345.5125 97.00309 345.5125Q96.268715 345.5125 95.81559 345.96564Q95.37809 346.40314 95.37809 347.1375Q95.37809 347.85626 95.81559 348.27814Q96.25309 348.6844 97.018715 348.6844Q97.768715 348.6844 98.206215 348.2625Q98.643715 347.84064 98.643715 347.1219ZM97.018715 341.6844Q96.37809 341.6844 95.97184 342.09064Q95.581215 342.48126 95.581215 343.16876Q95.581215 343.8094 95.97184 344.21564Q96.362465 344.6219 97.00309 344.6219Q97.65934 344.6219 98.049965 344.21564Q98.44059 343.8094 98.44059 343.16876Q98.44059 342.5125 98.03434 342.10626Q97.62809 341.6844 97.018715 341.6844Z" fill-rule="nonzero"/><path fill="#757575" d="M157.51114 349.45L156.43301 349.45L156.43301 342.23126L154.24551 343.02814L154.24551 342.04376L157.35489 340.8719L157.51114 340.8719L157.51114 349.45ZM165.21426 340.91876L165.21426 341.825L165.01114 341.825Q163.74551 341.85626 162.99551 342.59064Q162.24551 343.3094 162.12051 344.6219Q162.80801 343.85626 163.96426 343.85626Q165.07364 343.85626 165.74551 344.6375Q166.41739 345.41876 166.41739 346.66876Q166.41739 347.98126 165.69864 348.77814Q164.97989 349.575 163.76114 349.575Q162.54239 349.575 161.77676 348.6375Q161.02676 347.6844 161.02676 346.2L161.02676 345.79376Q161.02676 343.4344 162.02676 342.1844Q163.02676 340.9344 165.01114 340.91876L165.21426 340.91876ZM163.79239 344.7625Q163.22989 344.7625 162.76114 345.09064Q162.29239 345.41876 162.10489 345.9344L162.10489 346.325Q162.10489 347.3875 162.57364 348.02814Q163.05801 348.66876 163.76114 348.66876Q164.49551 348.66876 164.91739 348.1375Q165.33926 347.59064 165.33926 346.71564Q165.33926 345.84064 164.91739 345.3094Q164.49551 344.7625 163.79239 344.7625Z" fill-rule="nonzero"/><path fill="#757575" d="M222.64418 349.45L217.05043 349.45L217.05043 348.66876L220.00356 345.3875Q220.6598 344.6375 220.9098 344.1844Q221.1598 343.71564 221.1598 343.21564Q221.1598 342.54376 220.75356 342.1219Q220.36293 341.6844 219.67543 341.6844Q218.87856 341.6844 218.42543 342.15314Q217.9723 342.60626 217.9723 343.4344L216.89418 343.4344Q216.89418 342.2469 217.64418 341.52814Q218.4098 340.79376 219.67543 340.79376Q220.87856 340.79376 221.56606 341.41876Q222.25356 342.04376 222.25356 343.09064Q222.25356 344.34064 220.64418 346.09064L218.36293 348.5594L222.64418 348.5594L222.64418 349.45ZM228.62856 346.59064L229.81606 346.59064L229.81606 347.46564L228.62856 347.46564L228.62856 349.45L227.55043 349.45L227.55043 347.46564L223.6598 347.46564L223.6598 346.825L227.4723 340.91876L228.62856 340.91876L228.62856 346.59064ZM224.89418 346.59064L227.55043 346.59064L227.55043 342.40314L227.4098 342.6375L224.89418 346.59064Z" fill-rule="nonzero"/><path fill="#757575" d="M281.73035 344.65314L282.54285 344.65314Q283.3241 344.6375 283.7616 344.2469Q284.1991 343.85626 284.1991 343.1844Q284.1991 341.6844 282.6991 341.6844Q281.99597 341.6844 281.5741 342.09064Q281.16785 342.4969 281.16785 343.15314L280.0741 343.15314Q280.0741 342.1375 280.80847 341.46564Q281.55847 340.79376 282.6991 340.79376Q283.90222 340.79376 284.58972 341.4344Q285.27722 342.075 285.27722 343.21564Q285.27722 343.77814 284.91785 344.29376Q284.55847 344.8094 283.93347 345.075Q284.6366 345.29376 285.0116 345.8094Q285.40222 346.325 285.40222 347.075Q285.40222 348.21564 284.65222 348.90314Q283.90222 349.575 282.6991 349.575Q281.5116 349.575 280.74597 348.91876Q279.99597 348.2625 279.99597 347.2L281.08972 347.2Q281.08972 347.8719 281.52722 348.27814Q281.96472 348.6844 282.71472 348.6844Q283.49597 348.6844 283.90222 348.27814Q284.3241 347.85626 284.3241 347.09064Q284.3241 346.35626 283.87097 345.96564Q283.41785 345.5594 282.54285 345.54376L281.73035 345.54376L281.73035 344.65314ZM292.74597 349.45L287.15222 349.45L287.15222 348.66876L290.10535 345.3875Q290.7616 344.6375 291.0116 344.1844Q291.2616 343.71564 291.2616 343.21564Q291.2616 342.54376 290.85535 342.1219Q290.46472 341.6844 289.77722 341.6844Q288.98035 341.6844 288.52722 342.15314Q288.0741 342.60626 288.0741 343.4344L286.99597 343.4344Q286.99597 342.2469 287.74597 341.52814Q288.5116 340.79376 289.77722 340.79376Q290.98035 340.79376 291.66785 341.41876Q292.35535 342.04376 292.35535 343.09064Q292.35535 344.34064 290.74597 346.09064L288.46472 348.5594L292.74597 348.5594L292.74597 349.45Z" fill-rule="nonzero"/><path fill="#757575" d="M347.83215 346.59064L349.01965 346.59064L349.01965 347.46564L347.83215 347.46564L347.83215 349.45L346.75403 349.45L346.75403 347.46564L342.8634 347.46564L342.8634 346.825L346.6759 340.91876L347.83215 340.91876L347.83215 346.59064ZM344.09778 346.59064L346.75403 346.59064L346.75403 342.40314L346.6134 342.6375L344.09778 346.59064ZM355.6134 345.8094Q355.6134 347.71564 354.95715 348.65314Q354.31653 349.575 352.9259 349.575Q351.56653 349.575 350.91028 348.66876Q350.25403 347.7625 350.22278 345.95L350.22278 344.5125Q350.22278 342.6219 350.8634 341.71564Q351.51965 340.79376 352.91028 340.79376Q354.28528 340.79376 354.94153 341.6844Q355.59778 342.5594 355.6134 344.40314L355.6134 345.8094ZM354.51965 344.325Q354.51965 342.95 354.12903 342.325Q353.75403 341.6844 352.91028 341.6844Q352.08215 341.6844 351.69153 342.325Q351.31653 342.95 351.31653 344.2469L351.31653 345.98126Q351.31653 347.35626 351.70715 348.02814Q352.1134 348.6844 352.9259 348.6844Q353.72278 348.6844 354.1134 348.0594Q354.50403 347.4344 354.51965 346.10626L354.51965 344.325Z" fill-rule="nonzero"/><path fill="#757575" d="M410.93393 346.59064L412.12143 346.59064L412.12143 347.46564L410.93393 347.46564L410.93393 349.45L409.8558 349.45L409.8558 347.46564L405.96518 347.46564L405.96518 346.825L409.77768 340.91876L410.93393 340.91876L410.93393 346.59064ZM407.19955 346.59064L409.8558 346.59064L409.8558 342.40314L409.71518 342.6375L407.19955 346.59064ZM418.5433 343.1375Q418.5433 343.77814 418.19955 344.27814Q417.8558 344.77814 417.2933 345.0594Q417.94955 345.34064 418.34018 345.90314Q418.7308 346.45 418.7308 347.15314Q418.7308 348.2469 417.9808 348.91876Q417.24643 349.575 416.02768 349.575Q414.7933 349.575 414.0433 348.91876Q413.30893 348.2469 413.30893 347.15314Q413.30893 346.45 413.68393 345.90314Q414.05893 345.34064 414.7308 345.0594Q414.1683 344.77814 413.84018 344.27814Q413.51205 343.77814 413.51205 343.1375Q413.51205 342.0594 414.19955 341.4344Q414.88705 340.79376 416.02768 340.79376Q417.15268 340.79376 417.84018 341.4344Q418.5433 342.0594 418.5433 343.1375ZM417.65268 347.1219Q417.65268 346.40314 417.19955 345.96564Q416.74643 345.5125 416.01205 345.5125Q415.27768 345.5125 414.82455 345.96564Q414.38705 346.40314 414.38705 347.1375Q414.38705 347.85626 414.82455 348.27814Q415.26205 348.6844 416.02768 348.6844Q416.77768 348.6844 417.21518 348.2625Q417.65268 347.84064 417.65268 347.1219ZM416.02768 341.6844Q415.38705 341.6844 414.9808 342.09064Q414.59018 342.48126 414.59018 343.16876Q414.59018 343.8094 414.9808 344.21564Q415.37143 344.6219 416.01205 344.6219Q416.6683 344.6219 417.05893 344.21564Q417.44955 343.8094 417.44955 343.16876Q417.44955 342.5125 417.0433 342.10626Q416.63705 341.6844 416.02768 341.6844Z" fill-rule="nonzero"/><path fill="#757575" d="M469.9576 345.16876L470.3951 340.91876L474.7701 340.91876L474.7701 341.91876L471.317 341.91876L471.05136 344.2469Q471.692 343.8719 472.48886 343.8719Q473.6451 343.8719 474.3326 344.65314Q475.0201 345.41876 475.0201 346.73126Q475.0201 348.04376 474.30136 348.8094Q473.59824 349.575 472.317 349.575Q471.192 349.575 470.47324 348.95Q469.7545 348.3094 469.66074 347.2L470.67636 347.2Q470.78574 347.9344 471.2076 348.3094Q471.6295 348.6844 472.317 348.6844Q473.067 348.6844 473.5045 348.16876Q473.942 347.65314 473.942 346.7469Q473.942 345.8875 473.47324 345.3719Q473.0045 344.85626 472.22324 344.85626Q471.5201 344.85626 471.11386 345.15314L470.8326 345.3875L469.9576 345.16876ZM480.72324 340.91876L480.72324 341.825L480.5201 341.825Q479.2545 341.85626 478.5045 342.59064Q477.7545 343.3094 477.6295 344.6219Q478.317 343.85626 479.47324 343.85626Q480.5826 343.85626 481.2545 344.6375Q481.92636 345.41876 481.92636 346.66876Q481.92636 347.98126 481.2076 348.77814Q480.48886 349.575 479.2701 349.575Q478.05136 349.575 477.28574 348.6375Q476.53574 347.6844 476.53574 346.2L476.53574 345.79376Q476.53574 343.4344 477.53574 342.1844Q478.53574 340.9344 480.5201 340.91876L480.72324 340.91876ZM479.30136 344.7625Q478.73886 344.7625 478.2701 345.09064Q477.80136 345.41876 477.61386 345.9344L477.61386 346.325Q477.61386 347.3875 478.0826 348.02814Q478.567 348.66876 479.2701 348.66876Q480.0045 348.66876 480.42636 348.1375Q480.84824 347.59064 480.84824 346.71564Q480.84824 345.84064 480.42636 345.3094Q480.0045 344.7625 479.30136 344.7625Z" fill-rule="nonzero"/><path fill="#757575" d="M536.825 340.91876L536.825 341.825L536.6219 341.825Q535.35626 341.85626 534.60626 342.59064Q533.85626 343.3094 533.73126 344.6219Q534.41876 343.85626 535.575 343.85626Q536.6844 343.85626 537.35626 344.6375Q538.02814 345.41876 538.02814 346.66876Q538.02814 347.98126 537.3094 348.77814Q536.59064 349.575 535.3719 349.575Q534.15314 349.575 533.3875 348.6375Q532.6375 347.6844 532.6375 346.2L532.6375 345.79376Q532.6375 343.4344 533.6375 342.1844Q534.6375 340.9344 536.6219 340.91876L536.825 340.91876ZM535.40314 344.7625Q534.84064 344.7625 534.3719 345.09064Q533.90314 345.41876 533.71564 345.9344L533.71564 346.325Q533.71564 347.3875 534.1844 348.02814Q534.66876 348.66876 535.3719 348.66876Q536.10626 348.66876 536.52814 348.1375Q536.95 347.59064 536.95 346.71564Q536.95 345.84064 536.52814 345.3094Q536.10626 344.7625 535.40314 344.7625ZM544.1375 346.59064L545.325 346.59064L545.325 347.46564L544.1375 347.46564L544.1375 349.45L543.0594 349.45L543.0594 347.46564L539.16876 347.46564L539.16876 346.825L542.98126 340.91876L544.1375 340.91876L544.1375 346.59064ZM540.40314 346.59064L543.0594 346.59064L543.0594 342.40314L542.91876 342.6375L540.40314 346.59064Z" fill-rule="nonzero"/><path fill="#4285f4" d="M136.5 57.416668C136.5 56.864384 136.94771 56.416668 137.5 56.416668L147.5 56.416668C148.05229 56.416668 148.5 56.864384 148.5 57.416668L148.5 67.416664C148.5 67.96895 148.05229 68.416664 147.5 68.416664L137.5 68.416664C136.94771 68.416664 136.5 67.96895 136.5 67.416664Z" fill-rule="nonzero"/><path fill="#757575" d="M162.20312 63.15104L158.60938 63.15104L158.60938 66.916664L157.48438 66.916664L157.48438 58.385414L162.78125 58.385414L162.78125 59.30729L158.60938 59.30729L158.60938 62.229164L162.20312 62.229164L162.20312 63.15104ZM164.03125 63.68229Q164.03125 62.760414 164.39062 62.010414Q164.76562 61.260414 165.42188 60.86979Q166.07812 60.46354 166.90625 60.46354Q168.20312 60.46354 169.0 61.354164Q169.8125 62.24479 169.8125 63.74479L169.8125 63.822914Q169.8125 64.74479 169.45312 65.479164Q169.09375 66.21354 168.4375 66.635414Q167.78125 67.041664 166.92188 67.041664Q165.64062 67.041664 164.82812 66.15104Q164.03125 65.24479 164.03125 63.760414L164.03125 63.68229ZM165.125 63.822914Q165.125 64.86979 165.60938 65.510414Q166.10938 66.15104 166.92188 66.15104Q167.75 66.15104 168.23438 65.510414Q168.71875 64.854164 168.71875 63.68229Q168.71875 62.65104 168.21875 62.010414Q167.73438 61.354164 166.90625 61.354164Q166.10938 61.354164 165.60938 61.99479Q165.125 62.61979 165.125 63.822914ZM172.5 66.916664L171.42188 66.916664L171.42188 57.916664L172.5 57.916664L172.5 66.916664ZM175.5 66.916664L174.42188 66.916664L174.42188 57.916664L175.5 57.916664L175.5 66.916664ZM179.39062 65.322914L180.875 60.572914L182.03125 60.572914L179.48438 67.90104Q178.89062 69.479164 177.60938 69.479164L177.39062 69.46354L177.0 69.385414L177.0 68.510414L177.28125 68.52604Q177.84375 68.52604 178.14062 68.30729Q178.45312 68.08854 178.65625 67.49479L178.89062 66.83854L176.625 60.572914L177.8125 60.572914L179.39062 65.322914Z" fill-rule="nonzero"/><path fill="#db4437" d="M198.5 57.416668C198.5 56.864384 198.94771 56.416668 199.5 56.416668L209.5 56.416668C210.05229 56.416668 210.5 56.864384 210.5 57.416668L210.5 67.416664C210.5 67.96895 210.05229 68.416664 209.5 68.416664L199.5 68.416664C198.94771 68.416664 198.5 67.96895 198.5 67.416664Z" fill-rule="nonzero"/><path fill="#757575" d="M222.625 63.46354L220.60938 63.46354L220.60938 66.916664L219.48438 66.916664L219.48438 58.385414L222.3125 58.385414Q223.75 58.385414 224.51562 59.041664Q225.29688 59.697914 225.29688 60.947914Q225.29688 61.74479 224.85938 62.33854Q224.4375 62.93229 223.67188 63.229164L225.67188 66.83854L225.67188 66.916664L224.46875 66.916664L222.625 63.46354ZM220.60938 62.541664L222.34375 62.541664Q223.1875 62.541664 223.67188 62.11979Q224.17188 61.68229 224.17188 60.947914Q224.17188 60.166664 223.70312 59.74479Q223.23438 59.322914 222.34375 59.30729L220.60938 59.30729L220.60938 62.541664ZM227.5 66.916664L226.42188 66.916664L226.42188 60.572914L227.5 60.572914L227.5 66.916664ZM226.32812 58.90104Q226.32812 58.635414 226.48438 58.447914Q226.65625 58.260414 226.96875 58.260414Q227.28125 58.260414 227.4375 58.447914Q227.60938 58.635414 227.60938 58.90104Q227.60938 59.15104 227.4375 59.33854Q227.28125 59.510414 226.96875 59.510414Q226.65625 59.510414 226.48438 59.33854Q226.32812 59.15104 226.32812 58.90104ZM229.0625 63.697914Q229.0625 62.21354 229.75 61.33854Q230.4375 60.46354 231.5625 60.46354Q232.71875 60.46354 233.375 61.27604L233.42188 60.572914L234.42188 60.572914L234.42188 66.760414Q234.42188 67.99479 233.6875 68.697914Q232.95312 69.416664 231.73438 69.416664Q231.04688 69.416664 230.39062 69.11979Q229.73438 68.822914 229.39062 68.322914L229.95312 67.666664Q230.64062 68.52604 231.65625 68.52604Q232.4375 68.52604 232.875 68.072914Q233.32812 67.635414 233.32812 66.822914L233.32812 66.27604Q232.67188 67.041664 231.54688 67.041664Q230.4375 67.041664 229.75 66.15104Q229.0625 65.24479 229.0625 63.697914ZM230.15625 63.822914Q230.15625 64.885414 230.59375 65.510414Q231.03125 66.11979 231.82812 66.11979Q232.84375 66.11979 233.32812 65.18229L233.32812 62.291664Q232.82812 61.385414 231.82812 61.385414Q231.04688 61.385414 230.59375 61.99479Q230.15625 62.604164 230.15625 63.822914ZM237.79688 59.041664L237.79688 60.572914L238.96875 60.572914L238.96875 61.416664L237.79688 61.416664L237.79688 65.33854Q237.79688 65.729164 237.95312 65.916664Q238.10938 66.104164 238.48438 66.104164Q238.67188 66.104164 239.0 66.041664L239.0 66.916664Q238.57812 67.041664 238.17188 67.041664Q237.45312 67.041664 237.07812 66.604164Q236.70312 66.15104 236.70312 65.33854L236.70312 61.416664L235.54688 61.416664L235.54688 60.572914L236.70312 60.572914L236.70312 59.041664L237.79688 59.041664ZM240.03125 63.68229Q240.03125 62.760414 240.39062 62.010414Q240.76562 61.260414 241.42188 60.86979Q242.07812 60.46354 242.90625 60.46354Q244.20312 60.46354 245.0 61.354164Q245.8125 62.24479 245.8125 63.74479L245.8125 63.822914Q245.8125 64.74479 245.45312 65.479164Q245.09375 66.21354 244.4375 66.635414Q243.78125 67.041664 242.92188 67.041664Q241.64062 67.041664 240.82812 66.15104Q240.03125 65.24479 240.03125 63.760414L240.03125 63.68229ZM241.125 63.822914Q241.125 64.86979 241.60938 65.510414Q242.10938 66.15104 242.92188 66.15104Q243.75 66.15104 244.23438 65.510414Q244.71875 64.854164 244.71875 63.68229Q244.71875 62.65104 244.21875 62.010414Q243.73438 61.354164 242.90625 61.354164Q242.10938 61.354164 241.60938 61.99479Q241.125 62.61979 241.125 63.822914ZM250.39062 61.541664Q250.14062 61.510414 249.85938 61.510414Q248.78125 61.510414 248.40625 62.416664L248.40625 66.916664L247.32812 66.916664L247.32812 60.572914L248.375 60.572914L248.39062 61.30729Q248.92188 60.46354 249.90625 60.46354Q250.21875 60.46354 250.39062 60.541664L250.39062 61.541664ZM256.67188 63.822914Q256.67188 65.260414 256.01562 66.15104Q255.35938 67.041664 254.21875 67.041664Q253.0625 67.041664 252.40625 66.30729L252.40625 69.354164L251.32812 69.354164L251.32812 60.572914L252.3125 60.572914L252.35938 61.27604Q253.03125 60.46354 254.20312 60.46354Q255.34375 60.46354 256.0 61.322914Q256.67188 62.18229 256.67188 63.71354L256.67188 63.822914ZM255.59375 63.697914Q255.59375 62.61979 255.125 62.010414Q254.67188 61.385414 253.875 61.385414Q252.89062 61.385414 252.40625 62.24479L252.40625 65.27604Q252.89062 66.15104 253.89062 66.15104Q254.67188 66.15104 255.125 65.541664Q255.59375 64.916664 255.59375 63.697914Z" fill-rule="nonzero"/><path fill="#f4b400" d="M273.5 57.416668C273.5 56.864384 273.94772 56.416668 274.5 56.416668L284.5 56.416668C285.05228 56.416668 285.5 56.864384 285.5 57.416668L285.5 67.416664C285.5 67.96895 285.05228 68.416664 284.5 68.416664L274.5 68.416664C273.94772 68.416664 273.5 67.96895 273.5 67.416664Z" fill-rule="nonzero"/><path fill="#757575" d="M295.9375 58.385414L298.73438 65.33854L301.51562 58.385414L302.98438 58.385414L302.98438 66.916664L301.85938 66.916664L301.85938 63.58854L301.96875 60.010414L299.15625 66.916664L298.29688 66.916664L295.5 60.02604L295.60938 63.58854L295.60938 66.916664L294.48438 66.916664L294.48438 58.385414L295.9375 58.385414ZM304.03125 63.68229Q304.03125 62.760414 304.39062 62.010414Q304.76562 61.260414 305.42188 60.86979Q306.07812 60.46354 306.90625 60.46354Q308.20312 60.46354 309.0 61.354164Q309.8125 62.24479 309.8125 63.74479L309.8125 63.822914Q309.8125 64.74479 309.45312 65.479164Q309.09375 66.21354 308.4375 66.635414Q307.78125 67.041664 306.92188 67.041664Q305.64062 67.041664 304.82812 66.15104Q304.03125 65.24479 304.03125 63.760414L304.03125 63.68229ZM305.125 63.822914Q305.125 64.86979 305.60938 65.510414Q306.10938 66.15104 306.92188 66.15104Q307.75 66.15104 308.23438 65.510414Q308.71875 64.854164 308.71875 63.68229Q308.71875 62.65104 308.21875 62.010414Q307.73438 61.354164 306.90625 61.354164Q306.10938 61.354164 305.60938 61.99479Q305.125 62.61979 305.125 63.822914ZM311.03125 63.68229Q311.03125 62.760414 311.39062 62.010414Q311.76562 61.260414 312.42188 60.86979Q313.07812 60.46354 313.90625 60.46354Q315.20312 60.46354 316.0 61.354164Q316.8125 62.24479 316.8125 63.74479L316.8125 63.822914Q316.8125 64.74479 316.45312 65.479164Q316.09375 66.21354 315.4375 66.635414Q314.78125 67.041664 313.92188 67.041664Q312.64062 67.041664 311.82812 66.15104Q311.03125 65.24479 311.03125 63.760414L311.03125 63.68229ZM312.125 63.822914Q312.125 64.86979 312.60938 65.510414Q313.10938 66.15104 313.92188 66.15104Q314.75 66.15104 315.23438 65.510414Q315.71875 64.854164 315.71875 63.68229Q315.71875 62.65104 315.21875 62.010414Q314.73438 61.354164 313.90625 61.354164Q313.10938 61.354164 312.60938 61.99479Q312.125 62.61979 312.125 63.822914ZM318.0625 63.697914Q318.0625 62.229164 318.75 61.354164Q319.4375 60.46354 320.5625 60.46354Q321.67188 60.46354 322.32812 61.21354L322.32812 57.916664L323.40625 57.916664L323.40625 66.916664L322.40625 66.916664L322.35938 66.229164Q321.70312 67.041664 320.54688 67.041664Q319.45312 67.041664 318.75 66.135414Q318.0625 65.229164 318.0625 63.77604L318.0625 63.697914ZM319.14062 63.822914Q319.14062 64.90104 319.57812 65.510414Q320.03125 66.11979 320.8125 66.11979Q321.84375 66.11979 322.32812 65.18229L322.32812 62.27604Q321.84375 61.385414 320.82812 61.385414Q320.03125 61.385414 319.57812 61.99479Q319.14062 62.604164 319.14062 63.822914ZM327.39062 65.322914L328.875 60.572914L330.03125 60.572914L327.48438 67.90104Q326.89062 69.479164 325.60938 69.479164L325.39062 69.46354L325.0 69.385414L325.0 68.510414L325.28125 68.52604Q325.84375 68.52604 326.14062 68.30729Q326.45312 68.08854 326.65625 67.49479L326.89062 66.83854L324.625 60.572914L325.8125 60.572914L327.39062 65.322914ZM333.85938 66.15104Q334.4375 66.15104 334.875 65.80729Q335.3125 65.447914 335.35938 64.916664L336.39062 64.916664Q336.35938 65.46354 336.0 65.96354Q335.65625 66.447914 335.07812 66.74479Q334.51562 67.041664 333.85938 67.041664Q332.5625 67.041664 331.79688 66.18229Q331.04688 65.30729 331.04688 63.80729L331.04688 63.61979Q331.04688 62.697914 331.375 61.979164Q331.71875 61.260414 332.34375 60.86979Q332.98438 60.46354 333.85938 60.46354Q334.92188 60.46354 335.625 61.104164Q336.34375 61.729164 336.39062 62.760414L335.35938 62.760414Q335.3125 62.135414 334.89062 61.74479Q334.46875 61.354164 333.85938 61.354164Q333.03125 61.354164 332.57812 61.947914Q332.125 62.541664 332.125 63.666664L332.125 63.86979Q332.125 64.96354 332.57812 65.55729Q333.03125 66.15104 333.85938 66.15104ZM341.23438 66.916664Q341.14062 66.729164 341.07812 66.24479Q340.32812 67.041664 339.28125 67.041664Q338.34375 67.041664 337.73438 66.510414Q337.14062 65.979164 337.14062 65.15104Q337.14062 64.166664 337.89062 63.61979Q338.64062 63.072914 340.01562 63.072914L341.0625 63.072914L341.0625 62.572914Q341.0625 62.010414 340.71875 61.68229Q340.39062 61.33854 339.71875 61.33854Q339.14062 61.33854 338.75 61.635414Q338.35938 61.916664 338.35938 62.33854L337.26562 62.33854Q337.26562 61.854164 337.59375 61.416664Q337.9375 60.979164 338.51562 60.729164Q339.09375 60.46354 339.78125 60.46354Q340.89062 60.46354 341.5 61.010414Q342.125 61.55729 342.15625 62.510414L342.15625 65.43229Q342.15625 66.30729 342.375 66.822914L342.375 66.916664L341.23438 66.916664ZM339.4375 66.08854Q339.95312 66.08854 340.40625 65.822914Q340.85938 65.55729 341.0625 65.135414L341.0625 63.83854L340.21875 63.83854Q338.21875 63.83854 338.21875 65.010414Q338.21875 65.510414 338.5625 65.80729Q338.90625 66.08854 339.4375 66.08854ZM345.34375 60.572914L345.375 61.27604Q346.0625 60.46354 347.25 60.46354Q348.57812 60.46354 349.0625 61.479164Q349.375 61.02604 349.875 60.74479Q350.39062 60.46354 351.07812 60.46354Q353.17188 60.46354 353.20312 62.666664L353.20312 66.916664L352.125 66.916664L352.125 62.729164Q352.125 62.05729 351.8125 61.729164Q351.5 61.385414 350.76562 61.385414Q350.15625 61.385414 349.75 61.74479Q349.35938 62.104164 349.29688 62.71354L349.29688 66.916664L348.21875 66.916664L348.21875 62.760414Q348.21875 61.385414 346.85938 61.385414Q345.79688 61.385414 345.40625 62.291664L345.40625 66.916664L344.3125 66.916664L344.3125 60.572914L345.34375 60.572914ZM357.95312 67.041664Q356.65625 67.041664 355.84375 66.197914Q355.04688 65.33854 355.04688 63.916664L355.04688 63.729164Q355.04688 62.77604 355.40625 62.041664Q355.76562 61.291664 356.40625 60.885414Q357.0625 60.46354 357.8125 60.46354Q359.04688 60.46354 359.73438 61.27604Q360.42188 62.08854 360.42188 63.604164L360.42188 64.05729L356.125 64.05729Q356.15625 64.99479 356.67188 65.572914Q357.20312 66.15104 358.01562 66.15104Q358.57812 66.15104 358.96875 65.916664Q359.375 65.68229 359.6875 65.291664L360.34375 65.80729Q359.54688 67.041664 357.95312 67.041664ZM357.8125 61.354164Q357.15625 61.354164 356.70312 61.83854Q356.26562 62.30729 356.17188 63.166664L359.34375 63.166664L359.34375 63.08854Q359.29688 62.260414 358.89062 61.80729Q358.5 61.354164 357.8125 61.354164ZM362.5 66.916664L361.42188 66.916664L361.42188 57.916664L362.5 57.916664L362.5 66.916664Z" fill-rule="nonzero"/><path fill="#0f9d58" d="M379.5 57.416668C379.5 56.864384 379.94772 56.416668 380.5 56.416668L390.5 56.416668C391.05228 56.416668 391.5 56.864384 391.5 57.416668L391.5 67.416664C391.5 67.96895 391.05228 68.416664 390.5 68.416664L380.5 68.416664C379.94772 68.416664 379.5 67.96895 379.5 67.416664Z" fill-rule="nonzero"/><path fill="#757575" d="M403.0 63.11979Q401.5625 62.697914 400.89062 62.08854Q400.23438 61.479164 400.23438 60.58854Q400.23438 59.58854 401.03125 58.93229Q401.84375 58.260414 403.14062 58.260414Q404.01562 58.260414 404.70312 58.604164Q405.39062 58.947914 405.76562 59.541664Q406.15625 60.135414 406.15625 60.854164L405.01562 60.854164Q405.01562 60.072914 404.51562 59.635414Q404.03125 59.197914 403.14062 59.197914Q402.3125 59.197914 401.84375 59.572914Q401.375 59.93229 401.375 60.572914Q401.375 61.104164 401.8125 61.46354Q402.26562 61.822914 403.32812 62.11979Q404.39062 62.416664 404.98438 62.77604Q405.59375 63.135414 405.875 63.61979Q406.17188 64.104164 406.17188 64.74479Q406.17188 65.791664 405.35938 66.416664Q404.54688 67.041664 403.20312 67.041664Q402.3125 67.041664 401.54688 66.697914Q400.79688 66.354164 400.375 65.77604Q399.96875 65.18229 399.96875 64.447914L401.09375 64.447914Q401.09375 65.21354 401.67188 65.666664Q402.25 66.11979 403.20312 66.11979Q404.09375 66.11979 404.5625 65.760414Q405.03125 65.385414 405.03125 64.760414Q405.03125 64.135414 404.59375 63.791664Q404.15625 63.447914 403.0 63.11979ZM408.60938 63.572914L408.60938 66.916664L407.48438 66.916664L407.48438 58.385414L410.64062 58.385414Q412.03125 58.385414 412.82812 59.104164Q413.625 59.80729 413.625 60.99479Q413.625 62.229164 412.84375 62.90104Q412.07812 63.572914 410.625 63.572914L408.60938 63.572914ZM408.60938 62.65104L410.64062 62.65104Q411.54688 62.65104 412.01562 62.229164Q412.5 61.80729 412.5 61.010414Q412.5 60.24479 412.01562 59.791664Q411.54688 59.322914 410.70312 59.30729L408.60938 59.30729L408.60938 62.65104ZM418.0 63.11979Q416.5625 62.697914 415.89062 62.08854Q415.23438 61.479164 415.23438 60.58854Q415.23438 59.58854 416.03125 58.93229Q416.84375 58.260414 418.14062 58.260414Q419.01562 58.260414 419.70312 58.604164Q420.39062 58.947914 420.76562 59.541664Q421.15625 60.135414 421.15625 60.854164L420.01562 60.854164Q420.01562 60.072914 419.51562 59.635414Q419.03125 59.197914 418.14062 59.197914Q417.3125 59.197914 416.84375 59.572914Q416.375 59.93229 416.375 60.572914Q416.375 61.104164 416.8125 61.46354Q417.26562 61.822914 418.32812 62.11979Q419.39062 62.416664 419.98438 62.77604Q420.59375 63.135414 420.875 63.61979Q421.17188 64.104164 421.17188 64.74479Q421.17188 65.791664 420.35938 66.416664Q419.54688 67.041664 418.20312 67.041664Q417.3125 67.041664 416.54688 66.697914Q415.79688 66.354164 415.375 65.77604Q414.96875 65.18229 414.96875 64.447914L416.09375 64.447914Q416.09375 65.21354 416.67188 65.666664Q417.25 66.11979 418.20312 66.11979Q419.09375 66.11979 419.5625 65.760414Q420.03125 65.385414 420.03125 64.760414Q420.03125 64.135414 419.59375 63.791664Q419.15625 63.447914 418.0 63.11979ZM428.76562 64.21354Q428.60938 65.55729 427.76562 66.30729Q426.92188 67.041664 425.53125 67.041664Q424.01562 67.041664 423.10938 65.96354Q422.20312 64.86979 422.20312 63.041664L422.20312 62.229164Q422.20312 61.041664 422.625 60.135414Q423.04688 59.229164 423.82812 58.74479Q424.60938 58.260414 425.625 58.260414Q426.98438 58.260414 427.79688 59.02604Q428.625 59.791664 428.76562 61.11979L427.64062 61.11979Q427.48438 60.104164 427.0 59.65104Q426.51562 59.197914 425.625 59.197914Q424.54688 59.197914 423.9375 59.99479Q423.32812 60.791664 423.32812 62.260414L423.32812 63.08854Q423.32812 64.479164 423.90625 65.30729Q424.48438 66.11979 425.53125 66.11979Q426.46875 66.11979 426.96875 65.697914Q427.46875 65.260414 427.64062 64.21354L428.76562 64.21354ZM437.0 62.93229Q437.0 64.166664 436.60938 65.05729Q436.21875 65.947914 435.51562 66.447914L437.03125 67.65104L436.26562 68.354164L434.46875 66.93229Q434.04688 67.041664 433.57812 67.041664Q432.57812 67.041664 431.79688 66.541664Q431.01562 66.041664 430.57812 65.135414Q430.15625 64.21354 430.14062 62.99479L430.14062 62.385414Q430.14062 61.15104 430.5625 60.21354Q431.0 59.27604 431.78125 58.77604Q432.5625 58.260414 433.5625 58.260414Q434.59375 58.260414 435.375 58.760414Q436.15625 59.260414 436.57812 60.197914Q437.0 61.135414 437.0 62.385414L437.0 62.93229ZM435.875 62.36979Q435.875 60.86979 435.28125 60.05729Q434.6875 59.229164 433.5625 59.229164Q432.5 59.229164 431.89062 60.041664Q431.28125 60.854164 431.26562 62.291664L431.26562 62.93229Q431.26562 64.385414 431.875 65.229164Q432.48438 66.072914 433.57812 66.072914Q434.67188 66.072914 435.26562 65.291664Q435.85938 64.49479 435.875 63.010414L435.875 62.36979ZM442.23438 66.291664Q441.60938 67.041664 440.375 67.041664Q439.35938 67.041664 438.82812 66.447914Q438.29688 65.854164 438.29688 64.697914L438.29688 60.572914L439.375 60.572914L439.375 64.666664Q439.375 66.11979 440.54688 66.11979Q441.79688 66.11979 442.20312 65.18229L442.20312 60.572914L443.29688 60.572914L443.29688 66.916664L442.26562 66.916664L442.23438 66.291664ZM447.95312 67.041664Q446.65625 67.041664 445.84375 66.197914Q445.04688 65.33854 445.04688 63.916664L445.04688 63.729164Q445.04688 62.77604 445.40625 62.041664Q445.76562 61.291664 446.40625 60.885414Q447.0625 60.46354 447.8125 60.46354Q449.04688 60.46354 449.73438 61.27604Q450.42188 62.08854 450.42188 63.604164L450.42188 64.05729L446.125 64.05729Q446.15625 64.99479 446.67188 65.572914Q447.20312 66.15104 448.01562 66.15104Q448.57812 66.15104 448.96875 65.916664Q449.375 65.68229 449.6875 65.291664L450.34375 65.80729Q449.54688 67.041664 447.95312 67.041664ZM447.8125 61.354164Q447.15625 61.354164 446.70312 61.83854Q446.26562 62.30729 446.17188 63.166664L449.34375 63.166664L449.34375 63.08854Q449.29688 62.260414 448.89062 61.80729Q448.5 61.354164 447.8125 61.354164ZM455.23438 66.291664Q454.60938 67.041664 453.375 67.041664Q452.35938 67.041664 451.82812 66.447914Q451.29688 65.854164 451.29688 64.697914L451.29688 60.572914L452.375 60.572914L452.375 64.666664Q452.375 66.11979 453.54688 66.11979Q454.79688 66.11979 455.20312 65.18229L455.20312 60.572914L456.29688 60.572914L456.29688 66.916664L455.26562 66.916664L455.23438 66.291664ZM460.95312 67.041664Q459.65625 67.041664 458.84375 66.197914Q458.04688 65.33854 458.04688 63.916664L458.04688 63.729164Q458.04688 62.77604 458.40625 62.041664Q458.76562 61.291664 459.40625 60.885414Q460.0625 60.46354 460.8125 60.46354Q462.04688 60.46354 462.73438 61.27604Q463.42188 62.08854 463.42188 63.604164L463.42188 64.05729L459.125 64.05729Q459.15625 64.99479 459.67188 65.572914Q460.20312 66.15104 461.01562 66.15104Q461.57812 66.15104 461.96875 65.916664Q462.375 65.68229 462.6875 65.291664L463.34375 65.80729Q462.54688 67.041664 460.95312 67.041664ZM460.8125 61.354164Q460.15625 61.354164 459.70312 61.83854Q459.26562 62.30729 459.17188 63.166664L462.34375 63.166664L462.34375 63.08854Q462.29688 62.260414 461.89062 61.80729Q461.5 61.354164 460.8125 61.354164Z" fill-rule="nonzero"/><path fill="#757575" d="M20.20625 37.55L20.20625 23.33125L24.846874 23.33125Q27.159374 23.33125 28.33125 24.284374Q29.503124 25.2375 29.503124 27.1125Q29.503124 28.1125 28.925 28.878124Q28.3625 29.64375 27.39375 30.065624Q28.534374 30.39375 29.20625 31.3Q29.878124 32.190624 29.878124 33.440624Q29.878124 35.3625 28.628124 36.45625Q27.39375 37.55 25.128124 37.55L20.20625 37.55ZM22.08125 30.89375L22.08125 36.01875L25.175 36.01875Q26.4875 36.01875 27.2375 35.346874Q27.9875 34.659374 27.9875 33.471874Q27.9875 30.89375 25.20625 30.89375L22.08125 30.89375ZM22.08125 29.39375L24.909374 29.39375Q26.14375 29.39375 26.878124 28.784374Q27.6125 28.159374 27.6125 27.1125Q27.6125 25.940624 26.925 25.409374Q26.253124 24.878124 24.846874 24.878124L22.08125 24.878124L22.08125 29.39375ZM38.440624 36.503124Q37.39375 37.753124 35.346874 37.753124Q33.659374 37.753124 32.76875 36.76875Q31.89375 35.784374 31.878124 33.8625L31.878124 26.9875L33.690624 26.9875L33.690624 33.815624Q33.690624 36.20625 35.64375 36.20625Q37.70625 36.20625 38.39375 34.675L38.39375 26.9875L40.20625 26.9875L40.20625 37.55L38.4875 37.55L38.440624 36.503124ZM43.8 37.55L43.8 28.378124L42.14375 28.378124L42.14375 26.9875L43.8 26.9875L43.8 25.89375Q43.8 24.20625 44.70625 23.284374Q45.628124 22.346874 47.284374 22.346874Q47.909374 22.346874 48.51875 22.503124L48.425 23.971874Q47.971874 23.89375 47.45625 23.89375Q46.565624 23.89375 46.08125 24.409374Q45.6125 24.909374 45.6125 25.8625L45.6125 26.9875L47.8625 26.9875L47.8625 28.378124L45.6125 28.378124L45.6125 37.55L43.8 37.55ZM50.8 37.55L50.8 28.378124L49.14375 28.378124L49.14375 26.9875L50.8 26.9875L50.8 25.89375Q50.8 24.20625 51.70625 23.284374Q52.628124 22.346874 54.284374 22.346874Q54.909374 22.346874 55.51875 22.503124L55.425 23.971874Q54.971874 23.89375 54.45625 23.89375Q53.565624 23.89375 53.08125 24.409374Q52.6125 24.909374 52.6125 25.8625L52.6125 26.9875L54.8625 26.9875L54.8625 28.378124L52.6125 28.378124L52.6125 37.55L50.8 37.55ZM61.3 37.753124Q59.159374 37.753124 57.8 36.346874Q56.45625 34.925 56.45625 32.565624L56.45625 32.221874Q56.45625 30.659374 57.05 29.425Q57.659374 28.190624 58.7375 27.4875Q59.815624 26.784374 61.08125 26.784374Q63.14375 26.784374 64.28438 28.14375Q65.425 29.503124 65.425 32.034374L65.425 32.784374L58.26875 32.784374Q58.3 34.346874 59.175 35.315624Q60.05 36.26875 61.39375 36.26875Q62.3625 36.26875 63.01875 35.878124Q63.690624 35.4875 64.19063 34.846874L65.28438 35.70625Q63.95625 37.753124 61.3 37.753124ZM61.08125 28.26875Q59.9875 28.26875 59.2375 29.065624Q58.503124 29.8625 58.33125 31.3L63.6125 31.3L63.6125 31.159374Q63.534374 29.784374 62.8625 29.034374Q62.20625 28.26875 61.08125 28.26875ZM73.01875 28.596874Q72.6125 28.534374 72.14375 28.534374Q70.3625 28.534374 69.72188 30.05L69.72188 37.55L67.925 37.55L67.925 26.9875L69.675 26.9875L69.70625 28.20625Q70.59688 26.784374 72.22188 26.784374Q72.75313 26.784374 73.01875 26.925L73.01875 28.596874ZM84.39375 31.20625Q81.97188 30.51875 80.87813 29.51875Q79.78438 28.503124 79.78438 27.01875Q79.78438 25.33125 81.12813 24.2375Q82.47188 23.128124 84.6125 23.128124Q86.08125 23.128124 87.22188 23.70625Q88.37813 24.26875 89.00313 25.26875Q89.62813 26.253124 89.62813 27.440624L87.75313 27.440624Q87.75313 26.159374 86.925 25.425Q86.1125 24.675 84.6125 24.675Q83.22188 24.675 82.44063 25.284374Q81.675 25.89375 81.675 26.9875Q81.675 27.846874 82.40938 28.45625Q83.14375 29.05 84.90938 29.55Q86.69063 30.05 87.69063 30.659374Q88.69063 31.253124 89.175 32.05Q89.65938 32.846874 89.65938 33.940624Q89.65938 35.659374 88.31563 36.70625Q86.97188 37.753124 84.70625 37.753124Q83.25313 37.753124 81.97188 37.190624Q80.70625 36.628124 80.01875 35.659374Q79.33125 34.675 79.33125 33.425L81.22188 33.425Q81.22188 34.721874 82.175 35.471874Q83.12813 36.20625 84.70625 36.20625Q86.19063 36.20625 86.9875 35.6125Q87.78438 35.003124 87.78438 33.95625Q87.78438 32.909374 87.05 32.346874Q86.31563 31.76875 84.39375 31.20625ZM93.87813 37.55L92.08125 37.55L92.08125 26.9875L93.87813 26.9875L93.87813 37.55ZM91.925 24.175Q91.925 23.7375 92.19063 23.440624Q92.47188 23.128124 92.9875 23.128124Q93.51875 23.128124 93.78438 23.440624Q94.06563 23.7375 94.06563 24.175Q94.06563 24.6125 93.78438 24.909374Q93.51875 25.20625 92.9875 25.20625Q92.47188 25.20625 92.19063 24.909374Q91.925 24.6125 91.925 24.175ZM98.6125 36.08125L104.8 36.08125L104.8 37.55L96.40938 37.55L96.40938 36.221874L102.2375 28.471874L96.50313 28.471874L96.50313 26.9875L104.50313 26.9875L104.50313 28.26875L98.6125 36.08125ZM111.3 37.753124Q109.15938 37.753124 107.8 36.346874Q106.45625 34.925 106.45625 32.565624L106.45625 32.221874Q106.45625 30.659374 107.05 29.425Q107.65938 28.190624 108.7375 27.4875Q109.81563 26.784374 111.08125 26.784374Q113.14375 26.784374 114.28438 28.14375Q115.425 29.503124 115.425 32.034374L115.425 32.784374L108.26875 32.784374Q108.3 34.346874 109.175 35.315624Q110.05 36.26875 111.39375 36.26875Q112.3625 36.26875 113.01875 35.878124Q113.69063 35.4875 114.19063 34.846874L115.28438 35.70625Q113.95625 37.753124 111.3 37.753124ZM111.08125 28.26875Q109.9875 28.26875 109.2375 29.065624Q108.50313 29.8625 108.33125 31.3L113.6125 31.3L113.6125 31.159374Q113.53438 29.784374 112.8625 29.034374Q112.20625 28.26875 111.08125 28.26875ZM125.3625 29.565624L126.72188 29.565624Q128.00313 29.534374 128.72188 28.89375Q129.45625 28.2375 129.45625 27.1125Q129.45625 24.6125 126.97188 24.6125Q125.8 24.6125 125.09688 25.284374Q124.40938 25.95625 124.40938 27.065624L122.59688 27.065624Q122.59688 25.378124 123.83125 24.253124Q125.06563 23.128124 126.97188 23.128124Q128.9875 23.128124 130.12813 24.20625Q131.26875 25.26875 131.26875 27.159374Q131.26875 28.08125 130.65938 28.95625Q130.06563 29.83125 129.03438 30.253124Q130.20625 30.628124 130.84688 31.4875Q131.4875 32.346874 131.4875 33.58125Q131.4875 35.503124 130.2375 36.628124Q128.9875 37.753124 126.97188 37.753124Q124.97188 37.753124 123.72188 36.675Q122.47188 35.58125 122.47188 33.8L124.28438 33.8Q124.28438 34.925 125.01875 35.596874Q125.75313 36.26875 126.9875 36.26875Q128.28438 36.26875 128.97188 35.596874Q129.675 34.909374 129.675 33.628124Q129.675 32.378124 128.90938 31.721874Q128.15938 31.05 126.72188 31.034374L125.3625 31.034374L125.3625 29.565624ZM143.05 37.55L133.7375 37.55L133.7375 36.253124L138.65938 30.784374Q139.75313 29.534374 140.15938 28.76875Q140.58125 27.9875 140.58125 27.159374Q140.58125 26.05 139.90938 25.33125Q139.2375 24.6125 138.1125 24.6125Q136.75313 24.6125 136.00313 25.39375Q135.26875 26.159374 135.26875 27.51875L133.45625 27.51875Q133.45625 25.55 134.72188 24.346874Q135.9875 23.128124 138.1125 23.128124Q140.09688 23.128124 141.2375 24.175Q142.39375 25.221874 142.39375 26.940624Q142.39375 29.05 139.72188 31.940624L135.90938 36.08125L143.05 36.08125L143.05 37.55ZM148.81563 30.940624L147.08125 32.7375L147.08125 37.55L145.20625 37.55L145.20625 23.33125L147.08125 23.33125L147.08125 30.3625L153.39375 23.33125L155.65938 23.33125L150.06563 29.6125L156.09688 37.55L153.84688 37.55L148.81563 30.940624ZM159.87813 37.55L158.08125 37.55L158.08125 26.9875L159.87813 26.9875L159.87813 37.55ZM157.925 24.175Q157.925 23.7375 158.19063 23.440624Q158.47188 23.128124 158.9875 23.128124Q159.51875 23.128124 159.78438 23.440624Q160.06563 23.7375 160.06563 24.175Q160.06563 24.6125 159.78438 24.909374Q159.51875 25.20625 158.9875 25.20625Q158.47188 25.20625 158.19063 24.909374Q157.925 24.6125 157.925 24.175ZM163.20625 37.55L163.20625 23.33125L167.84688 23.33125Q170.15938 23.33125 171.33125 24.284374Q172.50313 25.2375 172.50313 27.1125Q172.50313 28.1125 171.925 28.878124Q171.3625 29.64375 170.39375 30.065624Q171.53438 30.39375 172.20625 31.3Q172.87813 32.190624 172.87813 33.440624Q172.87813 35.3625 171.62813 36.45625Q170.39375 37.55 168.12813 37.55L163.20625 37.55ZM165.08125 30.89375L165.08125 36.01875L168.175 36.01875Q169.4875 36.01875 170.2375 35.346874Q170.9875 34.659374 170.9875 33.471874Q170.9875 30.89375 168.20625 30.89375L165.08125 30.89375ZM165.08125 29.39375L167.90938 29.39375Q169.14375 29.39375 169.87813 28.784374Q170.6125 28.159374 170.6125 27.1125Q170.6125 25.940624 169.925 25.409374Q169.25313 24.878124 167.84688 24.878124L165.08125 24.878124L165.08125 29.39375Z" fill-rule="nonzero"/></svg>