<svg version="1.1" viewBox="0.0 0.0 600.0 371.0" fill="none" stroke="none" stroke-linecap="square" stroke-miterlimit="10" width="600" height="371" xmlns:xlink="http://www.w3.org/1999/xlink" xmlns="http://www.w3.org/2000/svg"><path fill="#ffffff" d="M0 0L600.0 0L600.0 371.0L0 371.0L0 0Z" fill-rule="nonzero"/><path stroke="#cccccc" stroke-width="1.0" stroke-linecap="butt" d="M47.5 89.5L47.5 298.5" fill-rule="nonzero"/><path stroke="#cccccc" stroke-width="1.0" stroke-linecap="butt" d="M225.5 89.5L225.5 298.5" fill-rule="nonzero"/><path stroke="#cccccc" stroke-width="1.0" stroke-linecap="butt" d="M403.5 89.5L403.5 298.5" fill-rule="nonzero"/><path stroke="#cccccc" stroke-width="1.0" stroke-linecap="butt" d="M581.5 89.5L581.5 298.5" fill-rule="nonzero"/><path stroke="#333333" stroke-width="1.0" stroke-linecap="butt" d="M47.5 298.5L581.5 298.5" fill-rule="nonzero"/><path stroke="#cccccc" stroke-width="1.0" stroke-linecap="butt" d="M47.5 228.5L581.5 228.5" fill-rule="nonzero"/><path stroke="#cccccc" stroke-width="1.0" stroke-linecap="butt" d="M47.5 159.5L581.5 159.5" fill-rule="nonzero"/><path stroke="#cccccc" stroke-width="1.0" stroke-linecap="butt" d="M47.5 89.5L581.5 89.5" fill-rule="nonzero"/><clipPath id="id_0"><path d="M47.55 89.78333L581.45 89.78333L581.45 298.45L47.55 298.45L47.55 89.78333Z" clip-rule="nonzero"/></clipPath><path stroke="#4285f4" stroke-width="2.0" stroke-linecap="butt" clip-path="url(#id_0)" d="M47.55 159.58408L83.14333 151.50137L118.736664 150.83328L154.33 150.40065L189.92334 150.45108L225.51666 148.44336L261.11 150.1054L296.70334 148.33034L332.29666 147.83405L367.89 146.7549L403.48334 158.16966L439.07666 154.5333L474.67 136.10107L510.26334 118.83078L545.8567 114.71726L581.45 117.00947" fill-rule="nonzero"/><path stroke="#db4437" stroke-width="2.0" stroke-linecap="butt" clip-path="url(#id_0)" d="M47.55 264.61435L83.14333 264.67892L118.736664 264.643L154.33 264.71173L189.92334 264.65646L225.51666 264.40305L261.11 264.06204L296.70334 264.37112L332.29666 264.3634L367.89 264.31552L403.48334 264.22687L439.07666 263.9051L474.67 264.06998L510.26334 264.03223L545.8567 263.63745L581.45 263.66006" fill-rule="nonzero"/><path stroke="#f4b400" stroke-width="2.0" stroke-linecap="butt" clip-path="url(#id_0)" d="M47.55 163.38737L83.14333 152.61948L118.736664 149.24498L154.33 150.11513L189.92334 150.89798L225.51666 153.36024L261.11 151.90826L296.70334 152.0766L332.29666 153.25348L367.89 152.09816L403.48334 152.0366L439.07666 152.21292L474.67 134.51347L510.26334 118.93963L545.8567 112.73806L581.45 113.29624" fill-rule="nonzero"/><path stroke="#0f9d58" stroke-width="2.0" stroke-linecap="butt" clip-path="url(#id_0)" d="M47.55 252.19452L83.14333 253.48546L118.736664 253.88853L154.33 253.70804L189.92334 253.77551L225.51666 253.55016L261.11 253.36339L296.70334 253.67883L332.29666 253.00832L367.89 253.31436L403.48334 253.14116L439.07666 254.53401L474.67 255.40555L510.26334 256.59113L545.8567 256.5894L581.45 256.61093" fill-rule="nonzero"/><path fill="#000000" fill-opacity="0.0" clip-path="url(#id_0)" d="M50.55 159.58408C50.55 161.24092 49.206856 162.58408 47.55 162.58408C45.893147 162.58408 44.55 161.24092 44.55 159.58408C44.55 157.92722 45.893147 156.58408 47.55 156.58408C49.206856 156.58408 50.55 157.92722 50.55 159.58408Z" fill-rule="nonzero"/><path fill="#000000" fill-opacity="0.0" clip-path="url(#id_0)" d="M86.14333 151.50137C86.14333 153.15822 84.800186 154.50137 83.14333 154.50137C81.48648 154.50137 80.14333 153.15822 80.14333 151.50137C80.14333 149.84451 81.48648 148.50137 83.14333 148.50137C84.800186 148.50137 86.14333 149.84451 86.14333 151.50137Z" fill-rule="nonzero"/><path fill="#000000" fill-opacity="0.0" clip-path="url(#id_0)" d="M121.736664 150.83328C121.736664 152.49014 120.393524 153.83328 118.736664 153.83328C117.07981 153.83328 115.736664 152.49014 115.736664 150.83328C115.736664 149.17644 117.07981 147.83328 118.736664 147.83328C120.393524 147.83328 121.736664 149.17644 121.736664 150.83328Z" fill-rule="nonzero"/><path fill="#000000" fill-opacity="0.0" clip-path="url(#id_0)" d="M157.33 150.40065C157.33 152.05751 155.98685 153.40065 154.33 153.40065C152.67314 153.40065 151.33 152.05751 151.33 150.40065C151.33 148.7438 152.67314 147.40065 154.33 147.40065C155.98685 147.40065 157.33 148.7438 157.33 150.40065Z" fill-rule="nonzero"/><path fill="#000000" fill-opacity="0.0" clip-path="url(#id_0)" d="M192.92334 150.45108C192.92334 152.10794 191.58018 153.45108 189.92334 153.45108C188.26648 153.45108 186.92334 152.10794 186.92334 150.45108C186.92334 148.79422 188.26648 147.45108 189.92334 147.45108C191.58018 147.45108 192.92334 148.79422 192.92334 150.45108Z" fill-rule="nonzero"/><path fill="#000000" fill-opacity="0.0" clip-path="url(#id_0)" d="M228.51666 148.44336C228.51666 150.10022 227.17352 151.44336 225.51666 151.44336C223.85982 151.44336 222.51666 150.10022 222.51666 148.44336C222.51666 146.7865 223.85982 145.44336 225.51666 145.44336C227.17352 145.44336 228.51666 146.7865 228.51666 148.44336Z" fill-rule="nonzero"/><path fill="#000000" fill-opacity="0.0" clip-path="url(#id_0)" d="M264.11 150.1054C264.11 151.76224 262.76685 153.1054 261.11 153.1054C259.45316 153.1054 258.11 151.76224 258.11 150.1054C258.11 148.44853 259.45316 147.1054 261.11 147.1054C262.76685 147.1054 264.11 148.44853 264.11 150.1054Z" fill-rule="nonzero"/><path fill="#000000" fill-opacity="0.0" clip-path="url(#id_0)" d="M299.70334 148.33034C299.70334 149.98718 298.3602 151.33034 296.70334 151.33034C295.04648 151.33034 293.70334 149.98718 293.70334 148.33034C293.70334 146.67348 295.04648 145.33034 296.70334 145.33034C298.3602 145.33034 299.70334 146.67348 299.70334 148.33034Z" fill-rule="nonzero"/><path fill="#000000" fill-opacity="0.0" clip-path="url(#id_0)" d="M335.29666 147.83405C335.29666 149.4909 333.95352 150.83405 332.29666 150.83405C330.6398 150.83405 329.29666 149.4909 329.29666 147.83405C329.29666 146.1772 330.6398 144.83405 332.29666 144.83405C333.95352 144.83405 335.29666 146.1772 335.29666 147.83405Z" fill-rule="nonzero"/><path fill="#000000" fill-opacity="0.0" clip-path="url(#id_0)" d="M370.89 146.7549C370.89 148.41176 369.54684 149.7549 367.89 149.7549C366.23315 149.7549 364.89 148.41176 364.89 146.7549C364.89 145.09804 366.23315 143.7549 367.89 143.7549C369.54684 143.7549 370.89 145.09804 370.89 146.7549Z" fill-rule="nonzero"/><path fill="#000000" fill-opacity="0.0" clip-path="url(#id_0)" d="M406.48334 158.16966C406.48334 159.8265 405.1402 161.16966 403.48334 161.16966C401.82648 161.16966 400.48334 159.8265 400.48334 158.16966C400.48334 156.5128 401.82648 155.16966 403.48334 155.16966C405.1402 155.16966 406.48334 156.5128 406.48334 158.16966Z" fill-rule="nonzero"/><path fill="#000000" fill-opacity="0.0" clip-path="url(#id_0)" d="M442.07666 154.5333C442.07666 156.19016 440.73352 157.5333 439.07666 157.5333C437.4198 157.5333 436.07666 156.19016 436.07666 154.5333C436.07666 152.87643 437.4198 151.5333 439.07666 151.5333C440.73352 151.5333 442.07666 152.87643 442.07666 154.5333Z" fill-rule="nonzero"/><path fill="#000000" fill-opacity="0.0" clip-path="url(#id_0)" d="M477.67 136.10107C477.67 137.75793 476.32684 139.10107 474.67 139.10107C473.01315 139.10107 471.67 137.75793 471.67 136.10107C471.67 134.44421 473.01315 133.10107 474.67 133.10107C476.32684 133.10107 477.67 134.44421 477.67 136.10107Z" fill-rule="nonzero"/><path fill="#000000" fill-opacity="0.0" clip-path="url(#id_0)" d="M513.2633 118.83078C513.2633 120.48763 511.9202 121.83078 510.26334 121.83078C508.60648 121.83078 507.26334 120.48763 507.26334 118.83078C507.26334 117.17392 508.60648 115.83078 510.26334 115.83078C511.9202 115.83078 513.2633 117.17392 513.2633 118.83078Z" fill-rule="nonzero"/><path fill="#000000" fill-opacity="0.0" clip-path="url(#id_0)" d="M548.8567 114.71726C548.8567 116.374115 547.51355 117.71726 545.8567 117.71726C544.1998 117.71726 542.8567 116.374115 542.8567 114.71726C542.8567 113.06041 544.1998 111.71726 545.8567 111.71726C547.51355 111.71726 548.8567 113.06041 548.8567 114.71726Z" fill-rule="nonzero"/><path fill="#000000" fill-opacity="0.0" clip-path="url(#id_0)" d="M584.45 117.00947C584.45 118.66632 583.1069 120.00947 581.45 120.00947C579.79315 120.00947 578.45 118.66632 578.45 117.00947C578.45 115.35261 579.79315 114.00947 581.45 114.00947C583.1069 114.00947 584.45 115.35261 584.45 117.00947Z" fill-rule="nonzero"/><path fill="#000000" fill-opacity="0.0" clip-path="url(#id_0)" d="M50.55 264.61435C50.55 266.2712 49.206856 267.61435 47.55 267.61435C45.893147 267.61435 44.55 266.2712 44.55 264.61435C44.55 262.9575 45.893147 261.61435 47.55 261.61435C49.206856 261.61435 50.55 262.9575 50.55 264.61435Z" fill-rule="nonzero"/><path fill="#000000" fill-opacity="0.0" clip-path="url(#id_0)" d="M86.14333 264.67892C86.14333 266.3358 84.800186 267.67892 83.14333 267.67892C81.48648 267.67892 80.14333 266.3358 80.14333 264.67892C80.14333 263.0221 81.48648 261.67892 83.14333 261.67892C84.800186 261.67892 86.14333 263.0221 86.14333 264.67892Z" fill-rule="nonzero"/><path fill="#000000" fill-opacity="0.0" clip-path="url(#id_0)" d="M121.736664 264.643C121.736664 266.29987 120.393524 267.643 118.736664 267.643C117.07981 267.643 115.736664 266.29987 115.736664 264.643C115.736664 262.98615 117.07981 261.643 118.736664 261.643C120.393524 261.643 121.736664 262.98615 121.736664 264.643Z" fill-rule="nonzero"/><path fill="#000000" fill-opacity="0.0" clip-path="url(#id_0)" d="M157.33 264.71173C157.33 266.3686 155.98685 267.71173 154.33 267.71173C152.67314 267.71173 151.33 266.3686 151.33 264.71173C151.33 263.05487 152.67314 261.71173 154.33 261.71173C155.98685 261.71173 157.33 263.05487 157.33 264.71173Z" fill-rule="nonzero"/><path fill="#000000" fill-opacity="0.0" clip-path="url(#id_0)" d="M192.92334 264.65646C192.92334 266.31332 191.58018 267.65646 189.92334 267.65646C188.26648 267.65646 186.92334 266.31332 186.92334 264.65646C186.92334 262.9996 188.26648 261.65646 189.92334 261.65646C191.58018 261.65646 192.92334 262.9996 192.92334 264.65646Z" fill-rule="nonzero"/><path fill="#000000" fill-opacity="0.0" clip-path="url(#id_0)" d="M228.51666 264.40305C228.51666 266.0599 227.17352 267.40305 225.51666 267.40305C223.85982 267.40305 222.51666 266.0599 222.51666 264.40305C222.51666 262.7462 223.85982 261.40305 225.51666 261.40305C227.17352 261.40305 228.51666 262.7462 228.51666 264.40305Z" fill-rule="nonzero"/><path fill="#000000" fill-opacity="0.0" clip-path="url(#id_0)" d="M264.11 264.06204C264.11 265.7189 262.76685 267.06204 261.11 267.06204C259.45316 267.06204 258.11 265.7189 258.11 264.06204C258.11 262.40518 259.45316 261.06204 261.11 261.06204C262.76685 261.06204 264.11 262.40518 264.11 264.06204Z" fill-rule="nonzero"/><path fill="#000000" fill-opacity="0.0" clip-path="url(#id_0)" d="M299.70334 264.37112C299.70334 266.02798 298.3602 267.37112 296.70334 267.37112C295.04648 267.37112 293.70334 266.02798 293.70334 264.37112C293.70334 262.71426 295.04648 261.37112 296.70334 261.37112C298.3602 261.37112 299.70334 262.71426 299.70334 264.37112Z" fill-rule="nonzero"/><path fill="#000000" fill-opacity="0.0" clip-path="url(#id_0)" d="M335.29666 264.3634C335.29666 266.02026 333.95352 267.3634 332.29666 267.3634C330.6398 267.3634 329.29666 266.02026 329.29666 264.3634C329.29666 262.70654 330.6398 261.3634 332.29666 261.3634C333.95352 261.3634 335.29666 262.70654 335.29666 264.3634Z" fill-rule="nonzero"/><path fill="#000000" fill-opacity="0.0" clip-path="url(#id_0)" d="M370.89 264.31552C370.89 265.97235 369.54684 267.31552 367.89 267.31552C366.23315 267.31552 364.89 265.97235 364.89 264.31552C364.89 262.65866 366.23315 261.31552 367.89 261.31552C369.54684 261.31552 370.89 262.65866 370.89 264.31552Z" fill-rule="nonzero"/><path fill="#000000" fill-opacity="0.0" clip-path="url(#id_0)" d="M406.48334 264.22687C406.48334 265.8837 405.1402 267.22687 403.48334 267.22687C401.82648 267.22687 400.48334 265.8837 400.48334 264.22687C400.48334 262.57 401.82648 261.22687 403.48334 261.22687C405.1402 261.22687 406.48334 262.57 406.48334 264.22687Z" fill-rule="nonzero"/><path fill="#000000" fill-opacity="0.0" clip-path="url(#id_0)" d="M442.07666 263.9051C442.07666 265.56195 440.73352 266.9051 439.07666 266.9051C437.4198 266.9051 436.07666 265.56195 436.07666 263.9051C436.07666 262.24823 437.4198 260.9051 439.07666 260.9051C440.73352 260.9051 442.07666 262.24823 442.07666 263.9051Z" fill-rule="nonzero"/><path fill="#000000" fill-opacity="0.0" clip-path="url(#id_0)" d="M477.67 264.06998C477.67 265.72684 476.32684 267.06998 474.67 267.06998C473.01315 267.06998 471.67 265.72684 471.67 264.06998C471.67 262.41312 473.01315 261.06998 474.67 261.06998C476.32684 261.06998 477.67 262.41312 477.67 264.06998Z" fill-rule="nonzero"/><path fill="#000000" fill-opacity="0.0" clip-path="url(#id_0)" d="M513.2633 264.03223C513.2633 265.6891 511.9202 267.03223 510.26334 267.03223C508.60648 267.03223 507.26334 265.6891 507.26334 264.03223C507.26334 262.3754 508.60648 261.03223 510.26334 261.03223C511.9202 261.03223 513.2633 262.3754 513.2633 264.03223Z" fill-rule="nonzero"/><path fill="#000000" fill-opacity="0.0" clip-path="url(#id_0)" d="M548.8567 263.63745C548.8567 265.2943 547.51355 266.63745 545.8567 266.63745C544.1998 266.63745 542.8567 265.2943 542.8567 263.63745C542.8567 261.9806 544.1998 260.63745 545.8567 260.63745C547.51355 260.63745 548.8567 261.9806 548.8567 263.63745Z" fill-rule="nonzero"/><path fill="#000000" fill-opacity="0.0" clip-path="url(#id_0)" d="M584.45 263.66006C584.45 265.3169 583.1069 266.66006 581.45 266.66006C579.79315 266.66006 578.45 265.3169 578.45 263.66006C578.45 262.0032 579.79315 260.66006 581.45 260.66006C583.1069 260.66006 584.45 262.0032 584.45 263.66006Z" fill-rule="nonzero"/><path fill="#000000" fill-opacity="0.0" clip-path="url(#id_0)" d="M50.55 163.38737C50.55 165.04422 49.206856 166.38737 47.55 166.38737C45.893147 166.38737 44.55 165.04422 44.55 163.38737C44.55 161.73051 45.893147 160.38737 47.55 160.38737C49.206856 160.38737 50.55 161.73051 50.55 163.38737Z" fill-rule="nonzero"/><path fill="#000000" fill-opacity="0.0" clip-path="url(#id_0)" d="M86.14333 152.61948C86.14333 154.27632 84.800186 155.61948 83.14333 155.61948C81.48648 155.61948 80.14333 154.27632 80.14333 152.61948C80.14333 150.96262 81.48648 149.61948 83.14333 149.61948C84.800186 149.61948 86.14333 150.96262 86.14333 152.61948Z" fill-rule="nonzero"/><path fill="#000000" fill-opacity="0.0" clip-path="url(#id_0)" d="M121.736664 149.24498C121.736664 150.90184 120.393524 152.24498 118.736664 152.24498C117.07981 152.24498 115.736664 150.90184 115.736664 149.24498C115.736664 147.58813 117.07981 146.24498 118.736664 146.24498C120.393524 146.24498 121.736664 147.58813 121.736664 149.24498Z" fill-rule="nonzero"/><path fill="#000000" fill-opacity="0.0" clip-path="url(#id_0)" d="M157.33 150.11513C157.33 151.77199 155.98685 153.11513 154.33 153.11513C152.67314 153.11513 151.33 151.77199 151.33 150.11513C151.33 148.45827 152.67314 147.11513 154.33 147.11513C155.98685 147.11513 157.33 148.45827 157.33 150.11513Z" fill-rule="nonzero"/><path fill="#000000" fill-opacity="0.0" clip-path="url(#id_0)" d="M192.92334 150.89798C192.92334 152.55482 191.58018 153.89798 189.92334 153.89798C188.26648 153.89798 186.92334 152.55482 186.92334 150.89798C186.92334 149.24112 188.26648 147.89798 189.92334 147.89798C191.58018 147.89798 192.92334 149.24112 192.92334 150.89798Z" fill-rule="nonzero"/><path fill="#000000" fill-opacity="0.0" clip-path="url(#id_0)" d="M228.51666 153.36024C228.51666 155.01709 227.17352 156.36024 225.51666 156.36024C223.85982 156.36024 222.51666 155.01709 222.51666 153.36024C222.51666 151.70338 223.85982 150.36024 225.51666 150.36024C227.17352 150.36024 228.51666 151.70338 228.51666 153.36024Z" fill-rule="nonzero"/><path fill="#000000" fill-opacity="0.0" clip-path="url(#id_0)" d="M264.11 151.90826C264.11 153.56512 262.76685 154.90826 261.11 154.90826C259.45316 154.90826 258.11 153.56512 258.11 151.90826C258.11 150.25142 259.45316 148.90826 261.11 148.90826C262.76685 148.90826 264.11 150.25142 264.11 151.90826Z" fill-rule="nonzero"/><path fill="#000000" fill-opacity="0.0" clip-path="url(#id_0)" d="M299.70334 152.0766C299.70334 153.73344 298.3602 155.0766 296.70334 155.0766C295.04648 155.0766 293.70334 153.73344 293.70334 152.0766C293.70334 150.41974 295.04648 149.0766 296.70334 149.0766C298.3602 149.0766 299.70334 150.41974 299.70334 152.0766Z" fill-rule="nonzero"/><path fill="#000000" fill-opacity="0.0" clip-path="url(#id_0)" d="M335.29666 153.25348C335.29666 154.91032 333.95352 156.25348 332.29666 156.25348C330.6398 156.25348 329.29666 154.91032 329.29666 153.25348C329.29666 151.59662 330.6398 150.25348 332.29666 150.25348C333.95352 150.25348 335.29666 151.59662 335.29666 153.25348Z" fill-rule="nonzero"/><path fill="#000000" fill-opacity="0.0" clip-path="url(#id_0)" d="M370.89 152.09816C370.89 153.755 369.54684 155.09816 367.89 155.09816C366.23315 155.09816 364.89 153.755 364.89 152.09816C364.89 150.4413 366.23315 149.09816 367.89 149.09816C369.54684 149.09816 370.89 150.4413 370.89 152.09816Z" fill-rule="nonzero"/><path fill="#000000" fill-opacity="0.0" clip-path="url(#id_0)" d="M406.48334 152.0366C406.48334 153.69345 405.1402 155.0366 403.48334 155.0366C401.82648 155.0366 400.48334 153.69345 400.48334 152.0366C400.48334 150.37975 401.82648 149.0366 403.48334 149.0366C405.1402 149.0366 406.48334 150.37975 406.48334 152.0366Z" fill-rule="nonzero"/><path fill="#000000" fill-opacity="0.0" clip-path="url(#id_0)" d="M442.07666 152.21292C442.07666 153.86978 440.73352 155.21292 439.07666 155.21292C437.4198 155.21292 436.07666 153.86978 436.07666 152.21292C436.07666 150.55606 437.4198 149.21292 439.07666 149.21292C440.73352 149.21292 442.07666 150.55606 442.07666 152.21292Z" fill-rule="nonzero"/><path fill="#000000" fill-opacity="0.0" clip-path="url(#id_0)" d="M477.67 134.51347C477.67 136.17032 476.32684 137.51347 474.67 137.51347C473.01315 137.51347 471.67 136.17032 471.67 134.51347C471.67 132.85661 473.01315 131.51347 474.67 131.51347C476.32684 131.51347 477.67 132.85661 477.67 134.51347Z" fill-rule="nonzero"/><path fill="#000000" fill-opacity="0.0" clip-path="url(#id_0)" d="M513.2633 118.93963C513.2633 120.59649 511.9202 121.93963 510.26334 121.93963C508.60648 121.93963 507.26334 120.59649 507.26334 118.93963C507.26334 117.282776 508.60648 115.93963 510.26334 115.93963C511.9202 115.93963 513.2633 117.282776 513.2633 118.93963Z" fill-rule="nonzero"/><path fill="#000000" fill-opacity="0.0" clip-path="url(#id_0)" d="M548.8567 112.73806C548.8567 114.39491 547.51355 115.73806 545.8567 115.73806C544.1998 115.73806 542.8567 114.39491 542.8567 112.73806C542.8567 111.08121 544.1998 109.73806 545.8567 109.73806C547.51355 109.73806 548.8567 111.08121 548.8567 112.73806Z" fill-rule="nonzero"/><path fill="#000000" fill-opacity="0.0" clip-path="url(#id_0)" d="M584.45 113.29624C584.45 114.953094 583.1069 116.29624 581.45 116.29624C579.79315 116.29624 578.45 114.953094 578.45 113.29624C578.45 111.63939 579.79315 110.29624 581.45 110.29624C583.1069 110.29624 584.45 111.63939 584.45 113.29624Z" fill-rule="nonzero"/><path fill="#000000" fill-opacity="0.0" clip-path="url(#id_0)" d="M50.55 252.19452C50.55 253.85136 49.206856 255.19452 47.55 255.19452C45.893147 255.19452 44.55 253.85136 44.55 252.19452C44.55 250.53766 45.893147 249.19452 47.55 249.19452C49.206856 249.19452 50.55 250.53766 50.55 252.19452Z" fill-rule="nonzero"/><path fill="#000000" fill-opacity="0.0" clip-path="url(#id_0)" d="M86.14333 253.48546C86.14333 255.14232 84.800186 256.48547 83.14333 256.48547C81.48648 256.48547 80.14333 255.14232 80.14333 253.48546C80.14333 251.82861 81.48648 250.48546 83.14333 250.48546C84.800186 250.48546 86.14333 251.82861 86.14333 253.48546Z" fill-rule="nonzero"/><path fill="#000000" fill-opacity="0.0" clip-path="url(#id_0)" d="M121.736664 253.88853C121.736664 255.5454 120.393524 256.88855 118.736664 256.88855C117.07981 256.88855 115.736664 255.5454 115.736664 253.88853C115.736664 252.23169 117.07981 250.88853 118.736664 250.88853C120.393524 250.88853 121.736664 252.23169 121.736664 253.88853Z" fill-rule="nonzero"/><path fill="#000000" fill-opacity="0.0" clip-path="url(#id_0)" d="M157.33 253.70804C157.33 255.3649 155.98685 256.70804 154.33 256.70804C152.67314 256.70804 151.33 255.3649 151.33 253.70804C151.33 252.0512 152.67314 250.70804 154.33 250.70804C155.98685 250.70804 157.33 252.0512 157.33 253.70804Z" fill-rule="nonzero"/><path fill="#000000" fill-opacity="0.0" clip-path="url(#id_0)" d="M192.92334 253.77551C192.92334 255.43236 191.58018 256.7755 189.92334 256.7755C188.26648 256.7755 186.92334 255.43236 186.92334 253.77551C186.92334 252.11865 188.26648 250.77551 189.92334 250.77551C191.58018 250.77551 192.92334 252.11865 192.92334 253.77551Z" fill-rule="nonzero"/><path fill="#000000" fill-opacity="0.0" clip-path="url(#id_0)" d="M228.51666 253.55016C228.51666 255.207 227.17352 256.55014 225.51666 256.55014C223.85982 256.55014 222.51666 255.207 222.51666 253.55016C222.51666 251.8933 223.85982 250.55016 225.51666 250.55016C227.17352 250.55016 228.51666 251.8933 228.51666 253.55016Z" fill-rule="nonzero"/><path fill="#000000" fill-opacity="0.0" clip-path="url(#id_0)" d="M264.11 253.36339C264.11 255.02025 262.76685 256.3634 261.11 256.3634C259.45316 256.3634 258.11 255.02025 258.11 253.36339C258.11 251.70654 259.45316 250.36339 261.11 250.36339C262.76685 250.36339 264.11 251.70654 264.11 253.36339Z" fill-rule="nonzero"/><path fill="#000000" fill-opacity="0.0" clip-path="url(#id_0)" d="M299.70334 253.67883C299.70334 255.33568 298.3602 256.67883 296.70334 256.67883C295.04648 256.67883 293.70334 255.33568 293.70334 253.67883C293.70334 252.02197 295.04648 250.67883 296.70334 250.67883C298.3602 250.67883 299.70334 252.02197 299.70334 253.67883Z" fill-rule="nonzero"/><path fill="#000000" fill-opacity="0.0" clip-path="url(#id_0)" d="M335.29666 253.00832C335.29666 254.66516 333.95352 256.0083 332.29666 256.0083C330.6398 256.0083 329.29666 254.66516 329.29666 253.00832C329.29666 251.35146 330.6398 250.00832 332.29666 250.00832C333.95352 250.00832 335.29666 251.35146 335.29666 253.00832Z" fill-rule="nonzero"/><path fill="#000000" fill-opacity="0.0" clip-path="url(#id_0)" d="M370.89 253.31436C370.89 254.9712 369.54684 256.31436 367.89 256.31436C366.23315 256.31436 364.89 254.9712 364.89 253.31436C364.89 251.6575 366.23315 250.31436 367.89 250.31436C369.54684 250.31436 370.89 251.6575 370.89 253.31436Z" fill-rule="nonzero"/><path fill="#000000" fill-opacity="0.0" clip-path="url(#id_0)" d="M406.48334 253.14116C406.48334 254.79802 405.1402 256.14117 403.48334 256.14117C401.82648 256.14117 400.48334 254.79802 400.48334 253.14116C400.48334 251.48431 401.82648 250.14116 403.48334 250.14116C405.1402 250.14116 406.48334 251.48431 406.48334 253.14116Z" fill-rule="nonzero"/><path fill="#000000" fill-opacity="0.0" clip-path="url(#id_0)" d="M442.07666 254.53401C442.07666 256.19086 440.73352 257.53403 439.07666 257.53403C437.4198 257.53403 436.07666 256.19086 436.07666 254.53401C436.07666 252.87715 437.4198 251.53401 439.07666 251.53401C440.73352 251.53401 442.07666 252.87715 442.07666 254.53401Z" fill-rule="nonzero"/><path fill="#000000" fill-opacity="0.0" clip-path="url(#id_0)" d="M477.67 255.40555C477.67 257.0624 476.32684 258.40555 474.67 258.40555C473.01315 258.40555 471.67 257.0624 471.67 255.40555C471.67 253.74869 473.01315 252.40555 474.67 252.40555C476.32684 252.40555 477.67 253.74869 477.67 255.40555Z" fill-rule="nonzero"/><path fill="#000000" fill-opacity="0.0" clip-path="url(#id_0)" d="M513.2633 256.59113C513.2633 258.248 511.9202 259.59113 510.26334 259.59113C508.60648 259.59113 507.26334 258.248 507.26334 256.59113C507.26334 254.93427 508.60648 253.59113 510.26334 253.59113C511.9202 253.59113 513.2633 254.93427 513.2633 256.59113Z" fill-rule="nonzero"/><path fill="#000000" fill-opacity="0.0" clip-path="url(#id_0)" d="M548.8567 256.5894C548.8567 258.24625 547.51355 259.5894 545.8567 259.5894C544.1998 259.5894 542.8567 258.24625 542.8567 256.5894C542.8567 254.93253 544.1998 253.58939 545.8567 253.58939C547.51355 253.58939 548.8567 254.93253 548.8567 256.5894Z" fill-rule="nonzero"/><path fill="#000000" fill-opacity="0.0" clip-path="url(#id_0)" d="M584.45 256.61093C584.45 258.2678 583.1069 259.61093 581.45 259.61093C579.79315 259.61093 578.45 258.2678 578.45 256.61093C578.45 254.95409 579.79315 253.61095 581.45 253.61095C583.1069 253.61095 584.45 254.95409 584.45 256.61093Z" fill-rule="nonzero"/><path fill="#424242" d="M269.48438 349.45L269.48438 340.91876L272.28125 340.91876Q273.67188 340.91876 274.35938 341.4969Q275.0625 342.0594 275.0625 343.1844Q275.0625 343.79376 274.71875 344.2625Q274.39062 344.71564 273.79688 344.96564Q274.5 345.15314 274.89062 345.7Q275.29688 346.23126 275.29688 346.98126Q275.29688 348.1375 274.54688 348.79376Q273.8125 349.45 272.45312 349.45L269.48438 349.45ZM270.60938 345.46564L270.60938 348.52814L272.46875 348.52814Q273.26562 348.52814 273.71875 348.1219Q274.17188 347.71564 274.17188 346.9969Q274.17188 345.46564 272.48438 345.46564L270.60938 345.46564ZM270.60938 344.5594L272.3125 344.5594Q273.04688 344.5594 273.48438 344.2Q273.9375 343.825 273.9375 343.1844Q273.9375 342.48126 273.53125 342.16876Q273.125 341.84064 272.28125 341.84064L270.60938 341.84064L270.60938 344.5594ZM280.23438 348.825Q279.60938 349.575 278.375 349.575Q277.35938 349.575 276.82812 348.98126Q276.29688 348.3875 276.29688 347.23126L276.29688 343.10626L277.375 343.10626L277.375 347.2Q277.375 348.65314 278.54688 348.65314Q279.79688 348.65314 280.20312 347.71564L280.20312 343.10626L281.29688 343.10626L281.29688 349.45L280.26562 349.45L280.23438 348.825ZM283.85938 349.45L283.85938 343.95L282.85938 343.95L282.85938 343.10626L283.85938 343.10626L283.85938 342.46564Q283.85938 341.4344 284.39062 340.8875Q284.9375 340.325 285.9375 340.325Q286.3125 340.325 286.6875 340.41876L286.625 341.3094Q286.34375 341.2469 286.04688 341.2469Q285.51562 341.2469 285.21875 341.5594Q284.9375 341.8719 284.9375 342.4344L284.9375 343.10626L286.29688 343.10626L286.29688 343.95L284.9375 343.95L284.9375 349.45L283.85938 349.45ZM287.85938 349.45L287.85938 343.95L286.85938 343.95L286.85938 343.10626L287.85938 343.10626L287.85938 342.46564Q287.85938 341.4344 288.39062 340.8875Q288.9375 340.325 289.9375 340.325Q290.3125 340.325 290.6875 340.41876L290.625 341.3094Q290.34375 341.2469 290.04688 341.2469Q289.51562 341.2469 289.21875 341.5594Q288.9375 341.8719 288.9375 342.4344L288.9375 343.10626L290.29688 343.10626L290.29688 343.95L288.9375 343.95L288.9375 349.45L287.85938 349.45ZM293.95312 349.575Q292.65625 349.575 291.84375 348.73126Q291.04688 347.8719 291.04688 346.45L291.04688 346.2625Q291.04688 345.3094 291.40625 344.575Q291.76562 343.825 292.40625 343.41876Q293.0625 342.9969 293.8125 342.9969Q295.04688 342.9969 295.73438 343.8094Q296.42188 344.6219 296.42188 346.1375L296.42188 346.59064L292.125 346.59064Q292.15625 347.52814 292.67188 348.10626Q293.20312 348.6844 294.01562 348.6844Q294.57812 348.6844 294.96875 348.45Q295.375 348.21564 295.6875 347.825L296.34375 348.34064Q295.54688 349.575 293.95312 349.575ZM293.8125 343.8875Q293.15625 343.8875 292.70312 344.3719Q292.26562 344.84064 292.17188 345.7L295.34375 345.7L295.34375 345.6219Q295.29688 344.79376 294.89062 344.34064Q294.5 343.8875 293.8125 343.8875ZM300.39062 344.075Q300.14062 344.04376 299.85938 344.04376Q298.78125 344.04376 298.40625 344.95L298.40625 349.45L297.32812 349.45L297.32812 343.10626L298.375 343.10626L298.39062 343.84064Q298.92188 342.9969 299.90625 342.9969Q300.21875 342.9969 300.39062 343.075L300.39062 344.075ZM307.0 345.65314Q305.5625 345.23126 304.89062 344.6219Q304.23438 344.0125 304.23438 343.1219Q304.23438 342.1219 305.03125 341.46564Q305.84375 340.79376 307.14062 340.79376Q308.01562 340.79376 308.70312 341.1375Q309.39062 341.48126 309.76562 342.075Q310.15625 342.66876 310.15625 343.3875L309.01562 343.3875Q309.01562 342.60626 308.51562 342.16876Q308.03125 341.73126 307.14062 341.73126Q306.3125 341.73126 305.84375 342.10626Q305.375 342.46564 305.375 343.10626Q305.375 343.6375 305.8125 343.9969Q306.26562 344.35626 307.32812 344.65314Q308.39062 344.95 308.98438 345.3094Q309.59375 345.66876 309.875 346.15314Q310.17188 346.6375 310.17188 347.27814Q310.17188 348.325 309.35938 348.95Q308.54688 349.575 307.20312 349.575Q306.3125 349.575 305.54688 349.23126Q304.79688 348.8875 304.375 348.3094Q303.96875 347.71564 303.96875 346.98126L305.09375 346.98126Q305.09375 347.7469 305.67188 348.2Q306.25 348.65314 307.20312 348.65314Q308.09375 348.65314 308.5625 348.29376Q309.03125 347.91876 309.03125 347.29376Q309.03125 346.66876 308.59375 346.325Q308.15625 345.98126 307.0 345.65314ZM312.5 349.45L311.42188 349.45L311.42188 343.10626L312.5 343.10626L312.5 349.45ZM311.32812 341.4344Q311.32812 341.16876 311.48438 340.98126Q311.65625 340.79376 311.96875 340.79376Q312.28125 340.79376 312.4375 340.98126Q312.60938 341.16876 312.60938 341.4344Q312.60938 341.6844 312.4375 341.8719Q312.28125 342.04376 311.96875 342.04376Q311.65625 342.04376 311.48438 341.8719Q311.32812 341.6844 311.32812 341.4344ZM315.34375 348.5594L319.04688 348.5594L319.04688 349.45L314.01562 349.45L314.01562 348.65314L317.51562 344.0125L314.0625 344.0125L314.0625 343.10626L318.875 343.10626L318.875 343.8719L315.34375 348.5594ZM322.95312 349.575Q321.65625 349.575 320.84375 348.73126Q320.04688 347.8719 320.04688 346.45L320.04688 346.2625Q320.04688 345.3094 320.40625 344.575Q320.76562 343.825 321.40625 343.41876Q322.0625 342.9969 322.8125 342.9969Q324.04688 342.9969 324.73438 343.8094Q325.42188 344.6219 325.42188 346.1375L325.42188 346.59064L321.125 346.59064Q321.15625 347.52814 321.67188 348.10626Q322.20312 348.6844 323.01562 348.6844Q323.57812 348.6844 323.96875 348.45Q324.375 348.21564 324.6875 347.825L325.34375 348.34064Q324.54688 349.575 322.95312 349.575ZM322.8125 343.8875Q322.15625 343.8875 321.70312 344.3719Q321.26562 344.84064 321.17188 345.7L324.34375 345.7L324.34375 345.6219Q324.29688 344.79376 323.89062 344.34064Q323.5 343.8875 322.8125 343.8875ZM329.28125 345.98126Q329.28125 344.66876 329.625 343.45Q329.98438 342.23126 330.6875 341.23126Q331.39062 340.23126 332.15625 339.825L332.375 340.54376Q331.51562 341.2 330.96875 342.54376Q330.42188 343.8875 330.375 345.5594L330.35938 346.0594Q330.35938 348.325 331.1875 349.98126Q331.6875 350.98126 332.375 351.54376L332.15625 352.2Q331.375 351.77814 330.65625 350.7469Q329.28125 348.7625 329.28125 345.98126ZM334.5 349.45L333.42188 349.45L333.42188 340.45L334.5 340.45L334.5 349.45ZM336.03125 346.21564Q336.03125 345.29376 336.39062 344.54376Q336.76562 343.79376 337.42188 343.40314Q338.07812 342.9969 338.90625 342.9969Q340.20312 342.9969 341.0 343.8875Q341.8125 344.77814 341.8125 346.27814L341.8125 346.35626Q341.8125 347.27814 341.45312 348.0125Q341.09375 348.7469 340.4375 349.16876Q339.78125 349.575 338.92188 349.575Q337.64062 349.575 336.82812 348.6844Q336.03125 347.77814 336.03125 346.29376L336.03125 346.21564ZM337.125 346.35626Q337.125 347.40314 337.60938 348.04376Q338.10938 348.6844 338.92188 348.6844Q339.75 348.6844 340.23438 348.04376Q340.71875 347.3875 340.71875 346.21564Q340.71875 345.1844 340.21875 344.54376Q339.73438 343.8875 338.90625 343.8875Q338.10938 343.8875 337.60938 344.52814Q337.125 345.15314 337.125 346.35626ZM343.0625 346.23126Q343.0625 344.7469 343.75 343.8719Q344.4375 342.9969 345.5625 342.9969Q346.71875 342.9969 347.375 343.8094L347.42188 343.10626L348.42188 343.10626L348.42188 349.29376Q348.42188 350.52814 347.6875 351.23126Q346.95312 351.95 345.73438 351.95Q345.04688 351.95 344.39062 351.65314Q343.73438 351.35626 343.39062 350.85626L343.95312 350.2Q344.64062 351.0594 345.65625 351.0594Q346.4375 351.0594 346.875 350.60626Q347.32812 350.16876 347.32812 349.35626L347.32812 348.8094Q346.67188 349.575 345.54688 349.575Q344.4375 349.575 343.75 348.6844Q343.0625 347.77814 343.0625 346.23126ZM344.15625 346.35626Q344.15625 347.41876 344.59375 348.04376Q345.03125 348.65314 345.82812 348.65314Q346.84375 348.65314 347.32812 347.71564L347.32812 344.825Q346.82812 343.91876 345.82812 343.91876Q345.04688 343.91876 344.59375 344.52814Q344.15625 345.1375 344.15625 346.35626ZM355.79688 349.45L350.20312 349.45L350.20312 348.66876L353.15625 345.3875Q353.8125 344.6375 354.0625 344.1844Q354.3125 343.71564 354.3125 343.21564Q354.3125 342.54376 353.90625 342.1219Q353.51562 341.6844 352.82812 341.6844Q352.03125 341.6844 351.57812 342.15314Q351.125 342.60626 351.125 343.4344L350.04688 343.4344Q350.04688 342.2469 350.79688 341.52814Q351.5625 340.79376 352.82812 340.79376Q354.03125 340.79376 354.71875 341.41876Q355.40625 342.04376 355.40625 343.09064Q355.40625 344.34064 353.79688 346.09064L351.51562 348.5594L355.79688 348.5594L355.79688 349.45ZM359.82812 346.04376Q359.82812 347.35626 359.48438 348.5594Q359.14062 349.7469 358.42188 350.7625Q357.71875 351.77814 356.95312 352.2L356.71875 351.54376Q357.625 350.85626 358.17188 349.40314Q358.71875 347.9344 358.73438 346.16876L358.73438 345.98126Q358.73438 344.7469 358.46875 343.6844Q358.21875 342.6219 357.75 341.79376Q357.29688 340.95 356.71875 340.48126L356.95312 339.825Q357.71875 340.2469 358.42188 341.2469Q359.125 342.2469 359.46875 343.46564Q359.82812 344.66876 359.82812 346.04376Z" fill-rule="nonzero"/><path fill="#757575" d="M24.6125 299.3094Q24.6125 301.21564 23.95625 302.15314Q23.315624 303.075 21.925 303.075Q20.565624 303.075 19.909374 302.16876Q19.253124 301.2625 19.221874 299.45L19.221874 298.0125Q19.221874 296.1219 19.8625 295.21564Q20.51875 294.29376 21.909374 294.29376Q23.284374 294.29376 23.940624 295.1844Q24.596874 296.0594 24.6125 297.90314L24.6125 299.3094ZM23.51875 297.825Q23.51875 296.45 23.128124 295.825Q22.753124 295.1844 21.909374 295.1844Q21.08125 295.1844 20.690624 295.825Q20.315624 296.45 20.315624 297.7469L20.315624 299.48126Q20.315624 300.85626 20.70625 301.52814Q21.1125 302.1844 21.925 302.1844Q22.721874 302.1844 23.1125 301.5594Q23.503124 300.9344 23.51875 299.60626L23.51875 297.825ZM30.39375 296.60626L30.425 297.40314Q31.159374 296.4969 32.33125 296.4969Q34.346874 296.4969 34.3625 298.7625L34.3625 302.95L33.26875 302.95L33.26875 298.7469Q33.26875 298.075 32.95625 297.7469Q32.659374 297.41876 32.003124 297.41876Q31.471874 297.41876 31.065624 297.7Q30.675 297.98126 30.45625 298.4344L30.45625 302.95L29.378124 302.95L29.378124 296.60626L30.39375 296.60626ZM40.065624 301.2625Q40.065624 300.825 39.721874 300.59064Q39.39375 300.34064 38.565624 300.16876Q37.753124 299.9969 37.26875 299.7469Q36.784374 299.4969 36.55 299.16876Q36.33125 298.825 36.33125 298.35626Q36.33125 297.575 36.9875 297.04376Q37.64375 296.4969 38.675 296.4969Q39.753124 296.4969 40.409374 297.0594Q41.08125 297.60626 41.08125 298.46564L40.003124 298.46564Q40.003124 298.02814 39.6125 297.71564Q39.2375 297.3875 38.675 297.3875Q38.08125 297.3875 37.7375 297.65314Q37.409374 297.90314 37.409374 298.3094Q37.409374 298.7 37.721874 298.90314Q38.034374 299.10626 38.846874 299.29376Q39.659374 299.46564 40.159374 299.71564Q40.659374 299.96564 40.89375 300.325Q41.14375 300.6844 41.14375 301.1844Q41.14375 302.04376 40.45625 302.5594Q39.784374 303.075 38.70625 303.075Q37.940624 303.075 37.346874 302.8094Q36.76875 302.52814 36.440624 302.04376Q36.1125 301.5594 36.1125 300.9969L37.190624 300.9969Q37.221874 301.54376 37.628124 301.8719Q38.034374 302.1844 38.70625 302.1844Q39.315624 302.1844 39.690624 301.9344Q40.065624 301.6844 40.065624 301.2625Z" fill-rule="nonzero"/><path fill="#757575" d="M24.846874 233.39444L19.253124 233.39444L19.253124 232.61319L22.20625 229.33194Q22.8625 228.58194 23.1125 228.12881Q23.3625 227.66006 23.3625 227.16006Q23.3625 226.48819 22.95625 226.06631Q22.565624 225.62881 21.878124 225.62881Q21.08125 225.62881 20.628124 226.09756Q20.175 226.55069 20.175 227.37881L19.096874 227.37881Q19.096874 226.19131 19.846874 225.47256Q20.6125 224.73819 21.878124 224.73819Q23.08125 224.73819 23.76875 225.36319Q24.45625 225.98819 24.45625 227.03506Q24.45625 228.28506 22.846874 230.03506L20.565624 232.50381L24.846874 232.50381L24.846874 233.39444ZM30.39375 227.05069L30.425 227.84756Q31.159374 226.94131 32.33125 226.94131Q34.346874 226.94131 34.3625 229.20694L34.3625 233.39444L33.26875 233.39444L33.26875 229.19131Q33.26875 228.51944 32.95625 228.19131Q32.659374 227.86319 32.003124 227.86319Q31.471874 227.86319 31.065624 228.14444Q30.675 228.42569 30.45625 228.87881L30.45625 233.39444L29.378124 233.39444L29.378124 227.05069L30.39375 227.05069ZM40.065624 231.70694Q40.065624 231.26944 39.721874 231.03506Q39.39375 230.78506 38.565624 230.61319Q37.753124 230.44131 37.26875 230.19131Q36.784374 229.94131 36.55 229.61319Q36.33125 229.26944 36.33125 228.80069Q36.33125 228.01944 36.9875 227.48819Q37.64375 226.94131 38.675 226.94131Q39.753124 226.94131 40.409374 227.50381Q41.08125 228.05069 41.08125 228.91006L40.003124 228.91006Q40.003124 228.47256 39.6125 228.16006Q39.2375 227.83194 38.675 227.83194Q38.08125 227.83194 37.7375 228.09756Q37.409374 228.34756 37.409374 228.75381Q37.409374 229.14444 37.721874 229.34756Q38.034374 229.55069 38.846874 229.73819Q39.659374 229.91006 40.159374 230.16006Q40.659374 230.41006 40.89375 230.76944Q41.14375 231.12881 41.14375 231.62881Q41.14375 232.48819 40.45625 233.00381Q39.784374 233.51944 38.70625 233.51944Q37.940624 233.51944 37.346874 233.25381Q36.76875 232.97256 36.440624 232.48819Q36.1125 232.00381 36.1125 231.44131L37.190624 231.44131Q37.221874 231.98819 37.628124 232.31631Q38.034374 232.62881 38.70625 232.62881Q39.315624 232.62881 39.690624 232.37881Q40.065624 232.12881 40.065624 231.70694Z" fill-rule="nonzero"/><path fill="#757575" d="M23.83125 160.9795L25.01875 160.9795L25.01875 161.8545L23.83125 161.8545L23.83125 163.83888L22.753124 163.83888L22.753124 161.8545L18.8625 161.8545L18.8625 161.21388L22.675 155.30763L23.83125 155.30763L23.83125 160.9795ZM20.096874 160.9795L22.753124 160.9795L22.753124 156.792L22.6125 157.02638L20.096874 160.9795ZM30.39375 157.49513L30.425 158.292Q31.159374 157.38576 32.33125 157.38576Q34.346874 157.38576 34.3625 159.65138L34.3625 163.83888L33.26875 163.83888L33.26875 159.63576Q33.26875 158.96388 32.95625 158.63576Q32.659374 158.30763 32.003124 158.30763Q31.471874 158.30763 31.065624 158.58888Q30.675 158.87013 30.45625 159.32326L30.45625 163.83888L29.378124 163.83888L29.378124 157.49513L30.39375 157.49513ZM40.065624 162.15138Q40.065624 161.71388 39.721874 161.4795Q39.39375 161.2295 38.565624 161.05763Q37.753124 160.88576 37.26875 160.63576Q36.784374 160.38576 36.55 160.05763Q36.33125 159.71388 36.33125 159.24513Q36.33125 158.46388 36.9875 157.93263Q37.64375 157.38576 38.675 157.38576Q39.753124 157.38576 40.409374 157.94826Q41.08125 158.49513 41.08125 159.3545L40.003124 159.3545Q40.003124 158.917 39.6125 158.6045Q39.2375 158.27638 38.675 158.27638Q38.08125 158.27638 37.7375 158.542Q37.409374 158.792 37.409374 159.19826Q37.409374 159.58888 37.721874 159.792Q38.034374 159.99513 38.846874 160.18263Q39.659374 160.3545 40.159374 160.6045Q40.659374 160.8545 40.89375 161.21388Q41.14375 161.57326 41.14375 162.07326Q41.14375 162.93263 40.45625 163.44826Q39.784374 163.96388 38.70625 163.96388Q37.940624 163.96388 37.346874 163.69826Q36.76875 163.417 36.440624 162.93263Q36.1125 162.44826 36.1125 161.88576L37.190624 161.88576Q37.221874 162.43263 37.628124 162.76076Q38.034374 163.07326 38.70625 163.07326Q39.315624 163.07326 39.690624 162.82326Q40.065624 162.57326 40.065624 162.15138Z" fill-rule="nonzero"/><path fill="#757575" d="M23.51875 85.75208L23.51875 86.65833L23.315624 86.65833Q22.05 86.68958 21.3 87.42396Q20.55 88.14271 20.425 89.45521Q21.1125 88.68958 22.26875 88.68958Q23.378124 88.68958 24.05 89.47083Q24.721874 90.25208 24.721874 91.50208Q24.721874 92.81458 24.003124 93.61146Q23.284374 94.40833 22.065624 94.40833Q20.846874 94.40833 20.08125 93.47083Q19.33125 92.51771 19.33125 91.03333L19.33125 90.62708Q19.33125 88.26771 20.33125 87.01771Q21.33125 85.76771 23.315624 85.75208L23.51875 85.75208ZM22.096874 89.59583Q21.534374 89.59583 21.065624 89.92396Q20.596874 90.25208 20.409374 90.76771L20.409374 91.15833Q20.409374 92.22083 20.878124 92.86146Q21.3625 93.50208 22.065624 93.50208Q22.8 93.50208 23.221874 92.97083Q23.64375 92.42396 23.64375 91.54896Q23.64375 90.67396 23.221874 90.14271Q22.8 89.59583 22.096874 89.59583ZM30.39375 87.93958L30.425 88.73646Q31.159374 87.83021 32.33125 87.83021Q34.346874 87.83021 34.3625 90.09583L34.3625 94.28333L33.26875 94.28333L33.26875 90.08021Q33.26875 89.40833 32.95625 89.08021Q32.659374 88.75208 32.003124 88.75208Q31.471874 88.75208 31.065624 89.03333Q30.675 89.31458 30.45625 89.76771L30.45625 94.28333L29.378124 94.28333L29.378124 87.93958L30.39375 87.93958ZM40.065624 92.59583Q40.065624 92.15833 39.721874 91.92396Q39.39375 91.67396 38.565624 91.50208Q37.753124 91.33021 37.26875 91.08021Q36.784374 90.83021 36.55 90.50208Q36.33125 90.15833 36.33125 89.68958Q36.33125 88.90833 36.9875 88.37708Q37.64375 87.83021 38.675 87.83021Q39.753124 87.83021 40.409374 88.39271Q41.08125 88.93958 41.08125 89.79896L40.003124 89.79896Q40.003124 89.36146 39.6125 89.04896Q39.2375 88.72083 38.675 88.72083Q38.08125 88.72083 37.7375 88.98646Q37.409374 89.23646 37.409374 89.64271Q37.409374 90.03333 37.721874 90.23646Q38.034374 90.43958 38.846874 90.62708Q39.659374 90.79896 40.159374 91.04896Q40.659374 91.29896 40.89375 91.65833Q41.14375 92.01771 41.14375 92.51771Q41.14375 93.37708 40.45625 93.89271Q39.784374 94.40833 38.70625 94.40833Q37.940624 94.40833 37.346874 94.14271Q36.76875 93.86146 36.440624 93.37708Q36.1125 92.89271 36.1125 92.33021L37.190624 92.33021Q37.221874 92.87708 37.628124 93.20521Q38.034374 93.51771 38.70625 93.51771Q39.315624 93.51771 39.690624 93.26771Q40.065624 93.01771 40.065624 92.59583Z" fill-rule="nonzero"/><path fill="#757575" d="M44.815624 316.45L43.7375 316.45L43.7375 309.23126L41.55 310.02814L41.55 309.04376L44.659374 307.8719L44.815624 307.8719L44.815624 316.45ZM48.753124 312.16876L49.190624 307.91876L53.565624 307.91876L53.565624 308.91876L50.1125 308.91876L49.846874 311.2469Q50.4875 310.8719 51.284374 310.8719Q52.440624 310.8719 53.128124 311.65314Q53.815624 312.41876 53.815624 313.73126Q53.815624 315.04376 53.096874 315.8094Q52.39375 316.575 51.1125 316.575Q49.9875 316.575 49.26875 315.95Q48.55 315.3094 48.45625 314.2L49.471874 314.2Q49.58125 314.9344 50.003124 315.3094Q50.425 315.6844 51.1125 315.6844Q51.8625 315.6844 52.3 315.16876Q52.7375 314.65314 52.7375 313.7469Q52.7375 312.8875 52.26875 312.3719Q51.8 311.85626 51.01875 311.85626Q50.315624 311.85626 49.909374 312.15314L49.628124 312.3875L48.753124 312.16876Z" fill-rule="nonzero"/><path fill="#757575" d="M224.81354 316.45L219.21979 316.45L219.21979 315.66876L222.17291 312.3875Q222.82916 311.6375 223.07916 311.1844Q223.32916 310.71564 223.32916 310.21564Q223.32916 309.54376 222.92291 309.1219Q222.53229 308.6844 221.84479 308.6844Q221.04791 308.6844 220.59479 309.15314Q220.14166 309.60626 220.14166 310.4344L219.06354 310.4344Q219.06354 309.2469 219.81354 308.52814Q220.57916 307.79376 221.84479 307.79376Q223.04791 307.79376 223.73541 308.41876Q224.42291 309.04376 224.42291 310.09064Q224.42291 311.34064 222.81354 313.09064L220.53229 315.5594L224.81354 315.5594L224.81354 316.45ZM231.57916 312.8094Q231.57916 314.71564 230.92291 315.65314Q230.28229 316.575 228.89166 316.575Q227.53229 316.575 226.87604 315.66876Q226.21979 314.7625 226.18854 312.95L226.18854 311.5125Q226.18854 309.6219 226.82916 308.71564Q227.48541 307.79376 228.87604 307.79376Q230.25104 307.79376 230.90729 308.6844Q231.56354 309.5594 231.57916 311.40314L231.57916 312.8094ZM230.48541 311.325Q230.48541 309.95 230.09479 309.325Q229.71979 308.6844 228.87604 308.6844Q228.04791 308.6844 227.65729 309.325Q227.28229 309.95 227.28229 311.2469L227.28229 312.98126Q227.28229 314.35626 227.67291 315.02814Q228.07916 315.6844 228.89166 315.6844Q229.68854 315.6844 230.07916 315.0594Q230.46979 314.4344 230.48541 313.10626L230.48541 311.325Z" fill-rule="nonzero"/><path fill="#757575" d="M402.7802 316.45L397.18646 316.45L397.18646 315.66876L400.1396 312.3875Q400.79584 311.6375 401.04584 311.1844Q401.29584 310.71564 401.29584 310.21564Q401.29584 309.54376 400.8896 309.1219Q400.49896 308.6844 399.81146 308.6844Q399.0146 308.6844 398.56146 309.15314Q398.10834 309.60626 398.10834 310.4344L397.0302 310.4344Q397.0302 309.2469 397.7802 308.52814Q398.54584 307.79376 399.81146 307.79376Q401.0146 307.79376 401.7021 308.41876Q402.3896 309.04376 402.3896 310.09064Q402.3896 311.34064 400.7802 313.09064L398.49896 315.5594L402.7802 315.5594L402.7802 316.45ZM404.68646 312.16876L405.12396 307.91876L409.49896 307.91876L409.49896 308.91876L406.04584 308.91876L405.7802 311.2469Q406.42084 310.8719 407.2177 310.8719Q408.37396 310.8719 409.06146 311.65314Q409.74896 312.41876 409.74896 313.73126Q409.74896 315.04376 409.0302 315.8094Q408.3271 316.575 407.04584 316.575Q405.92084 316.575 405.2021 315.95Q404.48334 315.3094 404.3896 314.2L405.4052 314.2Q405.5146 314.9344 405.93646 315.3094Q406.35834 315.6844 407.04584 315.6844Q407.79584 315.6844 408.23334 315.16876Q408.67084 314.65314 408.67084 313.7469Q408.67084 312.8875 408.2021 312.3719Q407.73334 311.85626 406.9521 311.85626Q406.24896 311.85626 405.8427 312.15314L405.56146 312.3875L404.68646 312.16876Z" fill-rule="nonzero"/><path fill="#757575" d="M576.73126 311.65314L577.54376 311.65314Q578.325 311.6375 578.7625 311.2469Q579.2 310.85626 579.2 310.1844Q579.2 308.6844 577.7 308.6844Q576.9969 308.6844 576.575 309.09064Q576.16876 309.4969 576.16876 310.15314L575.075 310.15314Q575.075 309.1375 575.8094 308.46564Q576.5594 307.79376 577.7 307.79376Q578.90314 307.79376 579.59064 308.4344Q580.27814 309.075 580.27814 310.21564Q580.27814 310.77814 579.91876 311.29376Q579.5594 311.8094 578.9344 312.075Q579.6375 312.29376 580.0125 312.8094Q580.40314 313.325 580.40314 314.075Q580.40314 315.21564 579.65314 315.90314Q578.90314 316.575 577.7 316.575Q576.5125 316.575 575.7469 315.91876Q574.9969 315.2625 574.9969 314.2L576.09064 314.2Q576.09064 314.8719 576.52814 315.27814Q576.96564 315.6844 577.71564 315.6844Q578.4969 315.6844 578.90314 315.27814Q579.325 314.85626 579.325 314.09064Q579.325 313.35626 578.8719 312.96564Q578.41876 312.5594 577.54376 312.54376L576.73126 312.54376L576.73126 311.65314ZM587.5125 312.8094Q587.5125 314.71564 586.85626 315.65314Q586.21564 316.575 584.825 316.575Q583.46564 316.575 582.8094 315.66876Q582.15314 314.7625 582.1219 312.95L582.1219 311.5125Q582.1219 309.6219 582.7625 308.71564Q583.41876 307.79376 584.8094 307.79376Q586.1844 307.79376 586.84064 308.6844Q587.4969 309.5594 587.5125 311.40314L587.5125 312.8094ZM586.41876 311.325Q586.41876 309.95 586.02814 309.325Q585.65314 308.6844 584.8094 308.6844Q583.98126 308.6844 583.59064 309.325Q583.21564 309.95 583.21564 311.2469L583.21564 312.98126Q583.21564 314.35626 583.60626 315.02814Q584.0125 315.6844 584.825 315.6844Q585.6219 315.6844 586.0125 315.0594Q586.40314 314.4344 586.41876 313.10626L586.41876 311.325Z" fill-rule="nonzero"/><path stroke="#4285f4" stroke-width="4.0" stroke-linecap="butt" d="M148.0 62.416668L160.0 62.416668" fill-rule="nonzero"/><path fill="#757575" d="M173.70312 63.15104L170.10938 63.15104L170.10938 66.916664L168.98438 66.916664L168.98438 58.385414L174.28125 58.385414L174.28125 59.30729L170.10938 59.30729L170.10938 62.229164L173.70312 62.229164L173.70312 63.15104ZM175.53125 63.68229Q175.53125 62.760414 175.89062 62.010414Q176.26562 61.260414 176.92188 60.86979Q177.57812 60.46354 178.40625 60.46354Q179.70312 60.46354 180.5 61.354164Q181.3125 62.24479 181.3125 63.74479L181.3125 63.822914Q181.3125 64.74479 180.95312 65.479164Q180.59375 66.21354 179.9375 66.635414Q179.28125 67.041664 178.42188 67.041664Q177.14062 67.041664 176.32812 66.15104Q175.53125 65.24479 175.53125 63.760414L175.53125 63.68229ZM176.625 63.822914Q176.625 64.86979 177.10938 65.510414Q177.60938 66.15104 178.42188 66.15104Q179.25 66.15104 179.73438 65.510414Q180.21875 64.854164 180.21875 63.68229Q180.21875 62.65104 179.71875 62.010414Q179.23438 61.354164 178.40625 61.354164Q177.60938 61.354164 177.10938 61.99479Q176.625 62.61979 176.625 63.822914ZM184.0 66.916664L182.92188 66.916664L182.92188 57.916664L184.0 57.916664L184.0 66.916664ZM187.0 66.916664L185.92188 66.916664L185.92188 57.916664L187.0 57.916664L187.0 66.916664ZM190.89062 65.322914L192.375 60.572914L193.53125 60.572914L190.98438 67.90104Q190.39062 69.479164 189.10938 69.479164L188.89062 69.46354L188.5 69.385414L188.5 68.510414L188.78125 68.52604Q189.34375 68.52604 189.64062 68.30729Q189.95312 68.08854 190.15625 67.49479L190.39062 66.83854L188.125 60.572914L189.3125 60.572914L190.89062 65.322914Z" fill-rule="nonzero"/><path stroke="#db4437" stroke-width="4.0" stroke-linecap="butt" d="M210.0 62.416668L222.0 62.416668" fill-rule="nonzero"/><path fill="#757575" d="M237.26562 64.21354Q237.10938 65.55729 236.26562 66.30729Q235.42188 67.041664 234.03125 67.041664Q232.51562 67.041664 231.60938 65.96354Q230.70312 64.86979 230.70312 63.041664L230.70312 62.229164Q230.70312 61.041664 231.125 60.135414Q231.54688 59.229164 232.32812 58.74479Q233.10938 58.260414 234.125 58.260414Q235.48438 58.260414 236.29688 59.02604Q237.125 59.791664 237.26562 61.11979L236.14062 61.11979Q235.98438 60.104164 235.5 59.65104Q235.01562 59.197914 234.125 59.197914Q233.04688 59.197914 232.4375 59.99479Q231.82812 60.791664 231.82812 62.260414L231.82812 63.08854Q231.82812 64.479164 232.40625 65.30729Q232.98438 66.11979 234.03125 66.11979Q234.96875 66.11979 235.46875 65.697914Q235.96875 65.260414 236.14062 64.21354L237.26562 64.21354ZM242.73438 66.916664Q242.64062 66.729164 242.57812 66.24479Q241.82812 67.041664 240.78125 67.041664Q239.84375 67.041664 239.23438 66.510414Q238.64062 65.979164 238.64062 65.15104Q238.64062 64.166664 239.39062 63.61979Q240.14062 63.072914 241.51562 63.072914L242.5625 63.072914L242.5625 62.572914Q242.5625 62.010414 242.21875 61.68229Q241.89062 61.33854 241.21875 61.33854Q240.64062 61.33854 240.25 61.635414Q239.85938 61.916664 239.85938 62.33854L238.76562 62.33854Q238.76562 61.854164 239.09375 61.416664Q239.4375 60.979164 240.01562 60.729164Q240.59375 60.46354 241.28125 60.46354Q242.39062 60.46354 243.0 61.010414Q243.625 61.55729 243.65625 62.510414L243.65625 65.43229Q243.65625 66.30729 243.875 66.822914L243.875 66.916664L242.73438 66.916664ZM240.9375 66.08854Q241.45312 66.08854 241.90625 65.822914Q242.35938 65.55729 242.5625 65.135414L242.5625 63.83854L241.71875 63.83854Q239.71875 63.83854 239.71875 65.010414Q239.71875 65.510414 240.0625 65.80729Q240.40625 66.08854 240.9375 66.08854ZM248.35938 66.15104Q248.9375 66.15104 249.375 65.80729Q249.8125 65.447914 249.85938 64.916664L250.89062 64.916664Q250.85938 65.46354 250.5 65.96354Q250.15625 66.447914 249.57812 66.74479Q249.01562 67.041664 248.35938 67.041664Q247.0625 67.041664 246.29688 66.18229Q245.54688 65.30729 245.54688 63.80729L245.54688 63.61979Q245.54688 62.697914 245.875 61.979164Q246.21875 61.260414 246.84375 60.86979Q247.48438 60.46354 248.35938 60.46354Q249.42188 60.46354 250.125 61.104164Q250.84375 61.729164 250.89062 62.760414L249.85938 62.760414Q249.8125 62.135414 249.39062 61.74479Q248.96875 61.354164 248.35938 61.354164Q247.53125 61.354164 247.07812 61.947914Q246.625 62.541664 246.625 63.666664L246.625 63.86979Q246.625 64.96354 247.07812 65.55729Q247.53125 66.15104 248.35938 66.15104ZM252.90625 61.33854Q253.625 60.46354 254.78125 60.46354Q256.79688 60.46354 256.8125 62.729164L256.8125 66.916664L255.71875 66.916664L255.71875 62.71354Q255.71875 62.041664 255.40625 61.71354Q255.10938 61.385414 254.45312 61.385414Q253.92188 61.385414 253.51562 61.666664Q253.125 61.947914 252.90625 62.40104L252.90625 66.916664L251.82812 66.916664L251.82812 57.916664L252.90625 57.916664L252.90625 61.33854ZM261.45312 67.041664Q260.15625 67.041664 259.34375 66.197914Q258.54688 65.33854 258.54688 63.916664L258.54688 63.729164Q258.54688 62.77604 258.90625 62.041664Q259.26562 61.291664 259.90625 60.885414Q260.5625 60.46354 261.3125 60.46354Q262.54688 60.46354 263.23438 61.27604Q263.92188 62.08854 263.92188 63.604164L263.92188 64.05729L259.625 64.05729Q259.65625 64.99479 260.17188 65.572914Q260.70312 66.15104 261.51562 66.15104Q262.07812 66.15104 262.46875 65.916664Q262.875 65.68229 263.1875 65.291664L263.84375 65.80729Q263.04688 67.041664 261.45312 67.041664ZM261.3125 61.354164Q260.65625 61.354164 260.20312 61.83854Q259.76562 62.30729 259.67188 63.166664L262.84375 63.166664L262.84375 63.08854Q262.79688 62.260414 262.39062 61.80729Q262.0 61.354164 261.3125 61.354164ZM264.5625 63.697914Q264.5625 62.229164 265.25 61.354164Q265.9375 60.46354 267.0625 60.46354Q268.17188 60.46354 268.82812 61.21354L268.82812 57.916664L269.90625 57.916664L269.90625 66.916664L268.90625 66.916664L268.85938 66.229164Q268.20312 67.041664 267.04688 67.041664Q265.95312 67.041664 265.25 66.135414Q264.5625 65.229164 264.5625 63.77604L264.5625 63.697914ZM265.64062 63.822914Q265.64062 64.90104 266.07812 65.510414Q266.53125 66.11979 267.3125 66.11979Q268.34375 66.11979 268.82812 65.18229L268.82812 62.27604Q268.34375 61.385414 267.32812 61.385414Q266.53125 61.385414 266.07812 61.99479Q265.64062 62.604164 265.64062 63.822914Z" fill-rule="nonzero"/><path stroke="#f4b400" stroke-width="4.0" stroke-linecap="butt" d="M287.0 62.416668L299.0 62.416668" fill-rule="nonzero"/><path fill="#757575" d="M311.125 63.46354L309.10938 63.46354L309.10938 66.916664L307.98438 66.916664L307.98438 58.385414L310.8125 58.385414Q312.25 58.385414 313.01562 59.041664Q313.79688 59.697914 313.79688 60.947914Q313.79688 61.74479 313.35938 62.33854Q312.9375 62.93229 312.17188 63.229164L314.17188 66.83854L314.17188 66.916664L312.96875 66.916664L311.125 63.46354ZM309.10938 62.541664L310.84375 62.541664Q311.6875 62.541664 312.17188 62.11979Q312.67188 61.68229 312.67188 60.947914Q312.67188 60.166664 312.20312 59.74479Q311.73438 59.322914 310.84375 59.30729L309.10938 59.30729L309.10938 62.541664ZM316.0 66.916664L314.92188 66.916664L314.92188 60.572914L316.0 60.572914L316.0 66.916664ZM314.82812 58.90104Q314.82812 58.635414 314.98438 58.447914Q315.15625 58.260414 315.46875 58.260414Q315.78125 58.260414 315.9375 58.447914Q316.10938 58.635414 316.10938 58.90104Q316.10938 59.15104 315.9375 59.33854Q315.78125 59.510414 315.46875 59.510414Q315.15625 59.510414 314.98438 59.33854Q314.82812 59.15104 314.82812 58.90104ZM317.5625 63.697914Q317.5625 62.21354 318.25 61.33854Q318.9375 60.46354 320.0625 60.46354Q321.21875 60.46354 321.875 61.27604L321.92188 60.572914L322.92188 60.572914L322.92188 66.760414Q322.92188 67.99479 322.1875 68.697914Q321.45312 69.416664 320.23438 69.416664Q319.54688 69.416664 318.89062 69.11979Q318.23438 68.822914 317.89062 68.322914L318.45312 67.666664Q319.14062 68.52604 320.15625 68.52604Q320.9375 68.52604 321.375 68.072914Q321.82812 67.635414 321.82812 66.822914L321.82812 66.27604Q321.17188 67.041664 320.04688 67.041664Q318.9375 67.041664 318.25 66.15104Q317.5625 65.24479 317.5625 63.697914ZM318.65625 63.822914Q318.65625 64.885414 319.09375 65.510414Q319.53125 66.11979 320.32812 66.11979Q321.34375 66.11979 321.82812 65.18229L321.82812 62.291664Q321.32812 61.385414 320.32812 61.385414Q319.54688 61.385414 319.09375 61.99479Q318.65625 62.604164 318.65625 63.822914ZM326.29688 59.041664L326.29688 60.572914L327.46875 60.572914L327.46875 61.416664L326.29688 61.416664L326.29688 65.33854Q326.29688 65.729164 326.45312 65.916664Q326.60938 66.104164 326.98438 66.104164Q327.17188 66.104164 327.5 66.041664L327.5 66.916664Q327.07812 67.041664 326.67188 67.041664Q325.95312 67.041664 325.57812 66.604164Q325.20312 66.15104 325.20312 65.33854L325.20312 61.416664L324.04688 61.416664L324.04688 60.572914L325.20312 60.572914L325.20312 59.041664L326.29688 59.041664ZM328.53125 63.68229Q328.53125 62.760414 328.89062 62.010414Q329.26562 61.260414 329.92188 60.86979Q330.57812 60.46354 331.40625 60.46354Q332.70312 60.46354 333.5 61.354164Q334.3125 62.24479 334.3125 63.74479L334.3125 63.822914Q334.3125 64.74479 333.95312 65.479164Q333.59375 66.21354 332.9375 66.635414Q332.28125 67.041664 331.42188 67.041664Q330.14062 67.041664 329.32812 66.15104Q328.53125 65.24479 328.53125 63.760414L328.53125 63.68229ZM329.625 63.822914Q329.625 64.86979 330.10938 65.510414Q330.60938 66.15104 331.42188 66.15104Q332.25 66.15104 332.73438 65.510414Q333.21875 64.854164 333.21875 63.68229Q333.21875 62.65104 332.71875 62.010414Q332.23438 61.354164 331.40625 61.354164Q330.60938 61.354164 330.10938 61.99479Q329.625 62.61979 329.625 63.822914ZM338.89062 61.541664Q338.64062 61.510414 338.35938 61.510414Q337.28125 61.510414 336.90625 62.416664L336.90625 66.916664L335.82812 66.916664L335.82812 60.572914L336.875 60.572914L336.89062 61.30729Q337.42188 60.46354 338.40625 60.46354Q338.71875 60.46354 338.89062 60.541664L338.89062 61.541664ZM345.17188 63.822914Q345.17188 65.260414 344.51562 66.15104Q343.85938 67.041664 342.71875 67.041664Q341.5625 67.041664 340.90625 66.30729L340.90625 69.354164L339.82812 69.354164L339.82812 60.572914L340.8125 60.572914L340.85938 61.27604Q341.53125 60.46354 342.70312 60.46354Q343.84375 60.46354 344.5 61.322914Q345.17188 62.18229 345.17188 63.71354L345.17188 63.822914ZM344.09375 63.697914Q344.09375 62.61979 343.625 62.010414Q343.17188 61.385414 342.375 61.385414Q341.39062 61.385414 340.90625 62.24479L340.90625 65.27604Q341.39062 66.15104 342.39062 66.15104Q343.17188 66.15104 343.625 65.541664Q344.09375 64.916664 344.09375 63.697914Z" fill-rule="nonzero"/><path stroke="#0f9d58" stroke-width="4.0" stroke-linecap="butt" d="M362.0 62.416668L374.0 62.416668" fill-rule="nonzero"/><path fill="#757575" d="M384.4375 58.385414L387.23438 65.33854L390.01562 58.385414L391.48438 58.385414L391.48438 66.916664L390.35938 66.916664L390.35938 63.58854L390.46875 60.010414L387.65625 66.916664L386.79688 66.916664L384.0 60.02604L384.10938 63.58854L384.10938 66.916664L382.98438 66.916664L382.98438 58.385414L384.4375 58.385414ZM392.53125 63.68229Q392.53125 62.760414 392.89062 62.010414Q393.26562 61.260414 393.92188 60.86979Q394.57812 60.46354 395.40625 60.46354Q396.70312 60.46354 397.5 61.354164Q398.3125 62.24479 398.3125 63.74479L398.3125 63.822914Q398.3125 64.74479 397.95312 65.479164Q397.59375 66.21354 396.9375 66.635414Q396.28125 67.041664 395.42188 67.041664Q394.14062 67.041664 393.32812 66.15104Q392.53125 65.24479 392.53125 63.760414L392.53125 63.68229ZM393.625 63.822914Q393.625 64.86979 394.10938 65.510414Q394.60938 66.15104 395.42188 66.15104Q396.25 66.15104 396.73438 65.510414Q397.21875 64.854164 397.21875 63.68229Q397.21875 62.65104 396.71875 62.010414Q396.23438 61.354164 395.40625 61.354164Q394.60938 61.354164 394.10938 61.99479Q393.625 62.61979 393.625 63.822914ZM399.53125 63.68229Q399.53125 62.760414 399.89062 62.010414Q400.26562 61.260414 400.92188 60.86979Q401.57812 60.46354 402.40625 60.46354Q403.70312 60.46354 404.5 61.354164Q405.3125 62.24479 405.3125 63.74479L405.3125 63.822914Q405.3125 64.74479 404.95312 65.479164Q404.59375 66.21354 403.9375 66.635414Q403.28125 67.041664 402.42188 67.041664Q401.14062 67.041664 400.32812 66.15104Q399.53125 65.24479 399.53125 63.760414L399.53125 63.68229ZM400.625 63.822914Q400.625 64.86979 401.10938 65.510414Q401.60938 66.15104 402.42188 66.15104Q403.25 66.15104 403.73438 65.510414Q404.21875 64.854164 404.21875 63.68229Q404.21875 62.65104 403.71875 62.010414Q403.23438 61.354164 402.40625 61.354164Q401.60938 61.354164 401.10938 61.99479Q400.625 62.61979 400.625 63.822914ZM406.5625 63.697914Q406.5625 62.229164 407.25 61.354164Q407.9375 60.46354 409.0625 60.46354Q410.17188 60.46354 410.82812 61.21354L410.82812 57.916664L411.90625 57.916664L411.90625 66.916664L410.90625 66.916664L410.85938 66.229164Q410.20312 67.041664 409.04688 67.041664Q407.95312 67.041664 407.25 66.135414Q406.5625 65.229164 406.5625 63.77604L406.5625 63.697914ZM407.64062 63.822914Q407.64062 64.90104 408.07812 65.510414Q408.53125 66.11979 409.3125 66.11979Q410.34375 66.11979 410.82812 65.18229L410.82812 62.27604Q410.34375 61.385414 409.32812 61.385414Q408.53125 61.385414 408.07812 61.99479Q407.64062 62.604164 407.64062 63.822914ZM415.89062 65.322914L417.375 60.572914L418.53125 60.572914L415.98438 67.90104Q415.39062 69.479164 414.10938 69.479164L413.89062 69.46354L413.5 69.385414L413.5 68.510414L413.78125 68.52604Q414.34375 68.52604 414.64062 68.30729Q414.95312 68.08854 415.15625 67.49479L415.39062 66.83854L413.125 60.572914L414.3125 60.572914L415.89062 65.322914ZM422.35938 66.15104Q422.9375 66.15104 423.375 65.80729Q423.8125 65.447914 423.85938 64.916664L424.89062 64.916664Q424.85938 65.46354 424.5 65.96354Q424.15625 66.447914 423.57812 66.74479Q423.01562 67.041664 422.35938 67.041664Q421.0625 67.041664 420.29688 66.18229Q419.54688 65.30729 419.54688 63.80729L419.54688 63.61979Q419.54688 62.697914 419.875 61.979164Q420.21875 61.260414 420.84375 60.86979Q421.48438 60.46354 422.35938 60.46354Q423.42188 60.46354 424.125 61.104164Q424.84375 61.729164 424.89062 62.760414L423.85938 62.760414Q423.8125 62.135414 423.39062 61.74479Q422.96875 61.354164 422.35938 61.354164Q421.53125 61.354164 421.07812 61.947914Q420.625 62.541664 420.625 63.666664L420.625 63.86979Q420.625 64.96354 421.07812 65.55729Q421.53125 66.15104 422.35938 66.15104ZM429.73438 66.916664Q429.64062 66.729164 429.57812 66.24479Q428.82812 67.041664 427.78125 67.041664Q426.84375 67.041664 426.23438 66.510414Q425.64062 65.979164 425.64062 65.15104Q425.64062 64.166664 426.39062 63.61979Q427.14062 63.072914 428.51562 63.072914L429.5625 63.072914L429.5625 62.572914Q429.5625 62.010414 429.21875 61.68229Q428.89062 61.33854 428.21875 61.33854Q427.64062 61.33854 427.25 61.635414Q426.85938 61.916664 426.85938 62.33854L425.76562 62.33854Q425.76562 61.854164 426.09375 61.416664Q426.4375 60.979164 427.01562 60.729164Q427.59375 60.46354 428.28125 60.46354Q429.39062 60.46354 430.0 61.010414Q430.625 61.55729 430.65625 62.510414L430.65625 65.43229Q430.65625 66.30729 430.875 66.822914L430.875 66.916664L429.73438 66.916664ZM427.9375 66.08854Q428.45312 66.08854 428.90625 65.822914Q429.35938 65.55729 429.5625 65.135414L429.5625 63.83854L428.71875 63.83854Q426.71875 63.83854 426.71875 65.010414Q426.71875 65.510414 427.0625 65.80729Q427.40625 66.08854 427.9375 66.08854ZM433.84375 60.572914L433.875 61.27604Q434.5625 60.46354 435.75 60.46354Q437.07812 60.46354 437.5625 61.479164Q437.875 61.02604 438.375 60.74479Q438.89062 60.46354 439.57812 60.46354Q441.67188 60.46354 441.70312 62.666664L441.70312 66.916664L440.625 66.916664L440.625 62.729164Q440.625 62.05729 440.3125 61.729164Q440.0 61.385414 439.26562 61.385414Q438.65625 61.385414 438.25 61.74479Q437.85938 62.104164 437.79688 62.71354L437.79688 66.916664L436.71875 66.916664L436.71875 62.760414Q436.71875 61.385414 435.35938 61.385414Q434.29688 61.385414 433.90625 62.291664L433.90625 66.916664L432.8125 66.916664L432.8125 60.572914L433.84375 60.572914ZM446.45312 67.041664Q445.15625 67.041664 444.34375 66.197914Q443.54688 65.33854 443.54688 63.916664L443.54688 63.729164Q443.54688 62.77604 443.90625 62.041664Q444.26562 61.291664 444.90625 60.885414Q445.5625 60.46354 446.3125 60.46354Q447.54688 60.46354 448.23438 61.27604Q448.92188 62.08854 448.92188 63.604164L448.92188 64.05729L444.625 64.05729Q444.65625 64.99479 445.17188 65.572914Q445.70312 66.15104 446.51562 66.15104Q447.07812 66.15104 447.46875 65.916664Q447.875 65.68229 448.1875 65.291664L448.84375 65.80729Q448.04688 67.041664 446.45312 67.041664ZM446.3125 61.354164Q445.65625 61.354164 445.20312 61.83854Q444.76562 62.30729 444.67188 63.166664L447.84375 63.166664L447.84375 63.08854Q447.79688 62.260414 447.39062 61.80729Q447.0 61.354164 446.3125 61.354164ZM451.0 66.916664L449.92188 66.916664L449.92188 57.916664L451.0 57.916664L451.0 66.916664Z" fill-rule="nonzero"/><path fill="#757575" d="M28.2375 30.971874L22.08125 30.971874L22.08125 36.01875L29.2375 36.01875L29.2375 37.55L20.20625 37.55L20.20625 23.33125L29.14375 23.33125L29.14375 24.878124L22.08125 24.878124L22.08125 29.440624L28.2375 29.440624L28.2375 30.971874ZM32.878124 37.55L31.08125 37.55L31.08125 22.55L32.878124 22.55L32.878124 37.55ZM40.3 37.753124Q38.159374 37.753124 36.8 36.346874Q35.45625 34.925 35.45625 32.565624L35.45625 32.221874Q35.45625 30.659374 36.05 29.425Q36.659374 28.190624 37.7375 27.4875Q38.815624 26.784374 40.08125 26.784374Q42.14375 26.784374 43.284374 28.14375Q44.425 29.503124 44.425 32.034374L44.425 32.784374L37.26875 32.784374Q37.3 34.346874 38.175 35.315624Q39.05 36.26875 40.39375 36.26875Q41.3625 36.26875 42.01875 35.878124Q42.690624 35.4875 43.190624 34.846874L44.284374 35.70625Q42.95625 37.753124 40.3 37.753124ZM40.08125 28.26875Q38.9875 28.26875 38.2375 29.065624Q37.503124 29.8625 37.33125 31.3L42.6125 31.3L42.6125 31.159374Q42.534374 29.784374 41.8625 29.034374Q41.20625 28.26875 40.08125 28.26875ZM48.6125 26.9875L48.659374 28.159374Q49.83125 26.784374 51.8 26.784374Q54.01875 26.784374 54.815624 28.4875Q55.346874 27.721874 56.190624 27.253124Q57.034374 26.784374 58.190624 26.784374Q61.659374 26.784374 61.721874 30.471874L61.721874 37.55L59.909374 37.55L59.909374 30.58125Q59.909374 29.440624 59.39375 28.878124Q58.878124 28.315624 57.659374 28.315624Q56.659374 28.315624 55.9875 28.925Q55.33125 29.51875 55.221874 30.534374L55.221874 37.55L53.409374 37.55L53.409374 30.628124Q53.409374 28.315624 51.14375 28.315624Q49.3625 28.315624 48.721874 29.83125L48.721874 37.55L46.909374 37.55L46.909374 26.9875L48.6125 26.9875ZM69.3 37.753124Q67.15938 37.753124 65.8 36.346874Q64.45625 34.925 64.45625 32.565624L64.45625 32.221874Q64.45625 30.659374 65.05 29.425Q65.65938 28.190624 66.7375 27.4875Q67.81563 26.784374 69.08125 26.784374Q71.14375 26.784374 72.28438 28.14375Q73.425 29.503124 73.425 32.034374L73.425 32.784374L66.26875 32.784374Q66.3 34.346874 67.175 35.315624Q68.05 36.26875 69.39375 36.26875Q70.3625 36.26875 71.01875 35.878124Q71.69063 35.4875 72.19063 34.846874L73.28438 35.70625Q71.95625 37.753124 69.3 37.753124ZM69.08125 28.26875Q67.9875 28.26875 67.2375 29.065624Q66.50313 29.8625 66.33125 31.3L71.6125 31.3L71.6125 31.159374Q71.53438 29.784374 70.8625 29.034374Q70.20625 28.26875 69.08125 28.26875ZM77.62813 26.9875L77.69063 28.315624Q78.89375 26.784374 80.84688 26.784374Q84.20625 26.784374 84.22188 30.565624L84.22188 37.55L82.425 37.55L82.425 30.55Q82.40938 29.409374 81.89375 28.8625Q81.39375 28.315624 80.3 28.315624Q79.425 28.315624 78.75313 28.784374Q78.09688 29.253124 77.72188 30.01875L77.72188 37.55L75.925 37.55L75.925 26.9875L77.62813 26.9875ZM89.3625 24.425L89.3625 26.9875L91.34688 26.9875L91.34688 28.378124L89.3625 28.378124L89.3625 34.925Q89.3625 35.565624 89.62813 35.89375Q89.89375 36.20625 90.53438 36.20625Q90.84688 36.20625 91.39375 36.08125L91.39375 37.55Q90.675 37.753124 90.00313 37.753124Q88.8 37.753124 88.175 37.01875Q87.56563 36.284374 87.56563 34.925L87.56563 28.378124L85.64375 28.378124L85.64375 26.9875L87.56563 26.9875L87.56563 24.425L89.3625 24.425ZM103.39375 31.20625Q100.97188 30.51875 99.87813 29.51875Q98.78438 28.503124 98.78438 27.01875Q98.78438 25.33125 100.12813 24.2375Q101.47188 23.128124 103.6125 23.128124Q105.08125 23.128124 106.22188 23.70625Q107.37813 24.26875 108.00313 25.26875Q108.62813 26.253124 108.62813 27.440624L106.75313 27.440624Q106.75313 26.159374 105.925 25.425Q105.1125 24.675 103.6125 24.675Q102.22188 24.675 101.44063 25.284374Q100.675 25.89375 100.675 26.9875Q100.675 27.846874 101.40938 28.45625Q102.14375 29.05 103.90938 29.55Q105.69063 30.05 106.69063 30.659374Q107.69063 31.253124 108.175 32.05Q108.65938 32.846874 108.65938 33.940624Q108.65938 35.659374 107.31563 36.70625Q105.97188 37.753124 103.70625 37.753124Q102.25313 37.753124 100.97188 37.190624Q99.70625 36.628124 99.01875 35.659374Q98.33125 34.675 98.33125 33.425L100.22188 33.425Q100.22188 34.721874 101.175 35.471874Q102.12813 36.20625 103.70625 36.20625Q105.19063 36.20625 105.9875 35.6125Q106.78438 35.003124 106.78438 33.95625Q106.78438 32.909374 106.05 32.346874Q105.31563 31.76875 103.39375 31.20625ZM112.87813 37.55L111.08125 37.55L111.08125 26.9875L112.87813 26.9875L112.87813 37.55ZM110.925 24.175Q110.925 23.7375 111.19063 23.440624Q111.47188 23.128124 111.9875 23.128124Q112.51875 23.128124 112.78438 23.440624Q113.06563 23.7375 113.06563 24.175Q113.06563 24.6125 112.78438 24.909374Q112.51875 25.20625 111.9875 25.20625Q111.47188 25.20625 111.19063 24.909374Q110.925 24.6125 110.925 24.175ZM117.6125 36.08125L123.8 36.08125L123.8 37.55L115.40938 37.55L115.40938 36.221874L121.2375 28.471874L115.50313 28.471874L115.50313 26.9875L123.50313 26.9875L123.50313 28.26875L117.6125 36.08125ZM130.3 37.753124Q128.15938 37.753124 126.8 36.346874Q125.45625 34.925 125.45625 32.565624L125.45625 32.221874Q125.45625 30.659374 126.05 29.425Q126.65938 28.190624 127.7375 27.4875Q128.81563 26.784374 130.08125 26.784374Q132.14375 26.784374 133.28438 28.14375Q134.425 29.503124 134.425 32.034374L134.425 32.784374L127.26875 32.784374Q127.3 34.346874 128.175 35.315624Q129.05 36.26875 130.39375 36.26875Q131.3625 36.26875 132.01875 35.878124Q132.69063 35.4875 133.19063 34.846874L134.28438 35.70625Q132.95625 37.753124 130.3 37.753124ZM130.08125 28.26875Q128.9875 28.26875 128.2375 29.065624Q127.50313 29.8625 127.33125 31.3L132.6125 31.3L132.6125 31.159374Q132.53438 29.784374 131.8625 29.034374Q131.20625 28.26875 130.08125 28.26875ZM150.3625 27.034374Q150.3625 28.1125 149.8 28.940624Q149.2375 29.76875 148.26875 30.2375Q149.39375 30.70625 150.03438 31.628124Q150.69063 32.55 150.69063 33.70625Q150.69063 35.55 149.44063 36.659374Q148.19063 37.753124 146.15938 37.753124Q144.1125 37.753124 142.87813 36.659374Q141.64375 35.55 141.64375 33.70625Q141.64375 32.565624 142.26875 31.64375Q142.90938 30.70625 144.01875 30.221874Q143.06563 29.753124 142.51875 28.925Q141.97188 28.096874 141.97188 27.034374Q141.97188 25.2375 143.12813 24.190624Q144.28438 23.128124 146.15938 23.128124Q148.03438 23.128124 149.19063 24.190624Q150.3625 25.2375 150.3625 27.034374ZM148.87813 33.675Q148.87813 32.4875 148.1125 31.7375Q147.3625 30.971874 146.14375 30.971874Q144.925 30.971874 144.19063 31.721874Q143.45625 32.45625 143.45625 33.675Q143.45625 34.878124 144.175 35.58125Q144.89375 36.26875 146.15938 36.26875Q147.44063 36.26875 148.15938 35.58125Q148.87813 34.878124 148.87813 33.675ZM146.15938 24.6125Q145.09688 24.6125 144.44063 25.284374Q143.78438 25.940624 143.78438 27.065624Q143.78438 28.159374 144.425 28.83125Q145.08125 29.4875 146.15938 29.4875Q147.25313 29.4875 147.89375 28.83125Q148.55 28.159374 148.55 27.08125Q148.55 25.9875 147.87813 25.3Q147.20625 24.6125 146.15938 24.6125Z" fill-rule="nonzero"/></svg>
